Fraunces-ItalicSemiboldOpMid.ufo
<glyph name="dollar" format="2">
  <advance width="496.80555555555554"/>
  <unicode hex="0024"/>
  <outline>
    <contour>
      <point x="257.38194444444446" y="0.0" type="curve" smooth="yes"/>
      <point x="381.05555555555554" y="0.0"/>
      <point x="481.38194444444446" y="67.81944444444444"/>
      <point x="504.7986111111111" y="158.375" type="curve" smooth="yes"/>
      <point x="524.5069444444445" y="233.97916666666666"/>
      <point x="495.81944444444446" y="304.1736111111111"/>
      <point x="373.6736111111111" y="353.72222222222223" type="curve" smooth="yes"/>
      <point x="278.31944444444446" y="392.15972222222223"/>
      <point x="250.06944444444446" y="430.55555555555554"/>
      <point x="264.47222222222223" y="485.1666666666667" type="curve" smooth="yes"/>
      <point x="282.80555555555554" y="553.5902777777778"/>
      <point x="348.84027777777777" y="594.875"/>
      <point x="416.4375" y="594.875" type="curve" smooth="yes"/>
      <point x="473.90972222222223" y="594.875"/>
      <point x="502.49305555555554" y="556.7430555555555"/>
      <point x="488.90972222222223" y="506.02777777777777" type="curve" smooth="yes"/>
      <point x="481.90972222222223" y="480.02777777777777" type="line" smooth="yes"/>
      <point x="472.75" y="446.44444444444446"/>
      <point x="491.4861111111111" y="423.05555555555554"/>
      <point x="520.4513888888889" y="423.05555555555554" type="curve" smooth="yes"/>
      <point x="548.4166666666666" y="423.05555555555554"/>
      <point x="578.8888888888889" y="446.84027777777777"/>
      <point x="588.5763888888889" y="480.9166666666667" type="curve" smooth="yes"/>
      <point x="609.6458333333334" y="559.8819444444445"/>
      <point x="539.1875" y="629.0"/>
      <point x="434.06944444444446" y="629.0" type="curve" smooth="yes"/>
      <point x="307.2916666666667" y="629.0"/>
      <point x="198.45138888888889" y="556.7430555555555"/>
      <point x="172.41666666666666" y="456.34722222222223" type="curve" smooth="yes"/>
      <point x="150.29166666666666" y="373.0625"/>
      <point x="185.72222222222223" y="309.0416666666667"/>
      <point x="301.7708333333333" y="262.75" type="curve" smooth="yes"/>
      <point x="397.3263888888889" y="223.95138888888889"/>
      <point x="425.59722222222223" y="184.5"/>
      <point x="411.2291666666667" y="131.83333333333334" type="curve" smooth="yes"/>
      <point x="394.80555555555554" y="72.43055555555556"/>
      <point x="338.0138888888889" y="36.673611111111114"/>
      <point x="269.69444444444446" y="36.673611111111114" type="curve" smooth="yes"/>
      <point x="203.57638888888889" y="36.673611111111114"/>
      <point x="172.20833333333334" y="77.71527777777777"/>
      <point x="186.70138888888889" y="132.97222222222223" type="curve" smooth="yes"/>
      <point x="193.70138888888889" y="158.97222222222223" type="line" smooth="yes"/>
      <point x="203.42361111111111" y="194.61111111111111"/>
      <point x="184.50694444444446" y="218.58333333333334"/>
      <point x="155.54166666666666" y="218.58333333333334" type="curve" smooth="yes"/>
      <point x="125.52083333333333" y="218.58333333333334"/>
      <point x="95.11805555555556" y="194.74305555555554"/>
      <point x="85.43055555555556" y="158.08333333333334" type="curve" smooth="yes"/>
      <point x="63.326388888888886" y="77.8125"/>
      <point x="136.03472222222223" y="0.0"/>
    </contour>
    <contour>
      <point x="318.6666666666667" y="278.125" type="line"/>
      <point x="263.4016377472509" y="71.05911075405676"/>
      <point x="216.24462893361965" y="27.297108396672236"/>
      <point x="204.05555555555554" y="-19.430555555555557" type="curve" smooth="yes"/>
      <point x="193.50412875490304" y="-58.5654104689505"/>
      <point x="213.34027777777777" y="-75.625"/>
      <point x="238.94444444444446" y="-75.625" type="curve" smooth="yes"/>
      <point x="265.7979938271605" y="-75.625"/>
      <point x="289.3930405787582" y="-58.334767152614354"/>
      <point x="300.22222222222223" y="-23.125" type="curve" smooth="yes"/>
      <point x="313.52888633222835" y="24.041177804163134"/>
      <point x="289.39565252030746" y="67.37967426301553"/>
      <point x="346.47222222222223" y="278.125" type="curve"/>
    </contour>
    <contour>
      <point x="362.78472222222223" y="346.25" type="line"/>
      <point x="421.125" y="563.1736111111111"/>
      <point x="466.77777777777777" y="605.0486111111111"/>
      <point x="480.55555555555554" y="655.0138888888889" type="curve" smooth="yes"/>
      <point x="490.15277777777777" y="691.7430555555555"/>
      <point x="469.2708333333333" y="709.625"/>
      <point x="446.19444444444446" y="709.625" type="curve" smooth="yes"/>
      <point x="420.68055555555554" y="709.625"/>
      <point x="395.13194444444446" y="693.3055555555555"/>
      <point x="385.40972222222223" y="657.0138888888889" type="curve" smooth="yes"/>
      <point x="372.63194444444446" y="610.9236111111111"/>
      <point x="396.31944444444446" y="567.7013888888889"/>
      <point x="335.9791666666667" y="346.25" type="curve"/>
    </contour>
  </outline>
</glyph>
<glyph name="parenleft" format="2">
  <advance width="406.25"/>
  <unicode hex="0028"/>
  <outline>
    <contour>
      <point x="157.3125" y="288.6875" type="curve" smooth="yes"/>
      <point x="94.1875" y="54.875"/>
      <point x="174.1875" y="-116.625"/>
      <point x="300.9375" y="-166.375" type="curve" smooth="yes"/>
      <point x="311.25" y="-170.1875"/>
      <point x="321.6875" y="-171.3125"/>
      <point x="328.625" y="-171.3125" type="curve" smooth="yes"/>
      <point x="341.0" y="-171.3125"/>
      <point x="352.375" y="-161.0625"/>
      <point x="355.5" y="-147.6875" type="curve" smooth="yes"/>
      <point x="358.0625" y="-139.4375"/>
      <point x="355.9375" y="-130.875"/>
      <point x="344.0" y="-125.0625" type="curve" smooth="yes"/>
      <point x="249.5625" y="-75.125"/>
      <point x="221.625" y="76.0625"/>
      <point x="279.0625" y="288.6875" type="curve" smooth="yes"/>
      <point x="335.9375" y="501.1875"/>
      <point x="444.75" y="652.9375"/>
      <point x="565.8125" y="702.4375" type="curve" smooth="yes"/>
      <point x="580.875" y="708.6875"/>
      <point x="587.5625" y="717.375"/>
      <point x="590.125" y="727.1875" type="curve" smooth="yes"/>
      <point x="593.25" y="738.4375"/>
      <point x="587.5625" y="749.6875"/>
      <point x="575.75" y="749.6875" type="curve" smooth="yes"/>
      <point x="568.8125" y="749.6875"/>
      <point x="560.625" y="746.875"/>
      <point x="545.8125" y="741.9375" type="curve" smooth="yes"/>
      <point x="384.3125" y="686.125"/>
      <point x="216.5" y="509.4375"/>
    </contour>
  </outline>
</glyph>
<glyph name="plus" format="2">
  <advance width="498.0"/>
  <unicode hex="002B"/>
  <outline>
    <contour>
      <point x="119.75" y="303.0" type="curve" smooth="yes"/>
      <point x="113.0625" y="278.8125"/>
      <point x="131.0" y="259.75"/>
      <point x="155.625" y="259.75" type="curve" smooth="yes"/>
      <point x="212.625" y="259.75"/>
      <point x="283.1875" y="273.75"/>
      <point x="325.1875" y="273.75" type="curve" smooth="yes"/>
      <point x="368.1875" y="273.75"/>
      <point x="428.625" y="259.75"/>
      <point x="481.625" y="259.75" type="curve" smooth="yes"/>
      <point x="510.375" y="259.75"/>
      <point x="533.5625" y="278.8125"/>
      <point x="540.25" y="303.0" type="curve" smooth="yes"/>
      <point x="546.9375" y="328.1875"/>
      <point x="532.5625" y="348.25"/>
      <point x="505.375" y="348.25" type="curve" smooth="yes"/>
      <point x="451.8125" y="348.25"/>
      <point x="384.8125" y="334.25"/>
      <point x="341.8125" y="334.25" type="curve" smooth="yes"/>
      <point x="292.8125" y="334.25"/>
      <point x="236.375" y="348.25"/>
      <point x="180.375" y="348.25" type="curve" smooth="yes"/>
      <point x="156.75" y="348.25"/>
      <point x="126.4375" y="328.1875"/>
    </contour>
    <contour>
      <point x="277.625" y="91.75" type="curve" smooth="yes"/>
      <point x="301.8125" y="91.75"/>
      <point x="326.5625" y="113.8125"/>
      <point x="333.25" y="139.0" type="curve" smooth="yes"/>
      <point x="349.25" y="196.0"/>
      <point x="352.25" y="263.0"/>
      <point x="364.25" y="305.0" type="curve" smooth="yes"/>
      <point x="375.25" y="348.0"/>
      <point x="406.25" y="412.0"/>
      <point x="421.25" y="465.0" type="curve" smooth="yes"/>
      <point x="428.5" y="493.75"/>
      <point x="414.5625" y="512.25"/>
      <point x="390.375" y="512.25" type="curve" smooth="yes"/>
      <point x="364.625" y="512.25"/>
      <point x="339.4375" y="492.75"/>
      <point x="332.75" y="465.0" type="curve" smooth="yes"/>
      <point x="317.75" y="412.0"/>
      <point x="314.75" y="348.0"/>
      <point x="303.75" y="305.0" type="curve" smooth="yes"/>
      <point x="290.75" y="256.0"/>
      <point x="260.75" y="196.0"/>
      <point x="245.75" y="140.0" type="curve" smooth="yes"/>
      <point x="239.0625" y="116.375"/>
      <point x="252.4375" y="91.75"/>
    </contour>
  </outline>
</glyph>
<glyph name="comma" format="2">
  <advance width="249.5"/>
  <unicode hex="002C"/>
  <outline>
    <contour>
      <point x="118.0" y="-1.5555555555555554" type="curve" smooth="yes"/>
      <point x="136.1875" y="-8.930555555555555"/>
      <point x="142.78472222222223" y="-14.472222222222221"/>
      <point x="142.78472222222223" y="-29.02777777777778" type="curve" smooth="yes"/>
      <point x="142.78472222222223" y="-67.89583333333333"/>
      <point x="104.46584677602216" y="-121.6339652629483"/>
      <point x="31.208333333333336" y="-158.93055555555554" type="curve" smooth="yes"/>
      <point x="13.835062676131457" y="-167.44127458579547"/>
      <point x="8.833333333333336" y="-175.98817966903073"/>
      <point x="8.833333333333336" y="-184.99305555555554" type="curve" smooth="yes"/>
      <point x="8.833333333333336" y="-195.79861111111111"/>
      <point x="16.479166666666664" y="-204.625"/>
      <point x="26.77777777777778" y="-204.625" type="curve" smooth="yes"/>
      <point x="36.638888888888886" y="-204.625"/>
      <point x="46.75" y="-201.46527777777777"/>
      <point x="60.20833333333333" y="-195.79861111111111" type="curve" smooth="yes"/>
      <point x="149.39583333333334" y="-154.84722222222223"/>
      <point x="225.76388888888889" y="-62.479166666666664"/>
      <point x="225.76388888888889" y="74.10416666666667" type="curve" smooth="yes"/>
      <point x="225.76388888888889" y="121.00694444444444"/>
      <point x="201.59722222222223" y="150.05555555555554"/>
      <point x="165.88194444444446" y="150.05555555555554" type="curve" smooth="yes"/>
      <point x="117.24305555555556" y="150.05555555555554"/>
      <point x="78.44444444444444" y="102.10416666666667"/>
      <point x="78.44444444444444" y="54.99305555555556" type="curve" smooth="yes"/>
      <point x="78.44444444444444" y="27.131944444444443"/>
      <point x="92.05555555555556" y="8.1875"/>
    </contour>
  </outline>
</glyph>
<glyph name="hyphen" format="2">
  <advance width="403.5625"/>
  <unicode hex="002D"/>
  <outline>
    <contour>
      <point x="402.0" y="289.125" type="curve" smooth="yes"/>
      <point x="166.625" y="289.125" type="line" smooth="yes"/>
      <point x="142.5625" y="289.125"/>
      <point x="129.75" y="280.4375"/>
      <point x="119.5" y="257.375" type="curve" smooth="yes"/>
      <point x="112.8125" y="243.0" type="line" smooth="yes"/>
      <point x="109.25" y="234.3125"/>
      <point x="107.6875" y="229.1875"/>
      <point x="107.6875" y="224.0625" type="curve" smooth="yes"/>
      <point x="107.6875" y="207.125"/>
      <point x="122.0625" y="196.875"/>
      <point x="140.0" y="196.875" type="curve" smooth="yes"/>
      <point x="374.8125" y="196.875" type="line" smooth="yes"/>
      <point x="399.4375" y="196.875"/>
      <point x="412.25" y="206.125"/>
      <point x="422.5" y="229.1875" type="curve" smooth="yes"/>
      <point x="428.625" y="243.0" type="line" smooth="yes"/>
      <point x="432.75" y="252.25"/>
      <point x="433.75" y="257.375"/>
      <point x="433.75" y="262.5" type="curve" smooth="yes"/>
      <point x="433.75" y="278.875"/>
      <point x="419.9375" y="289.125"/>
    </contour>
  </outline>
</glyph>
<glyph name="period" format="2">
  <advance width="244.03472222222223"/>
  <unicode hex="002E"/>
  <outline>
    <contour>
      <point x="128.81944444444446" y="-12.36111111111111" type="curve" smooth="yes"/>
      <point x="177.90242805755395" y="-12.36111111111111"/>
      <point x="226.05555555555554" y="39.66822240259741"/>
      <point x="226.05555555555554" y="96.06944444444444" type="curve" smooth="yes"/>
      <point x="226.05555555555554" y="129.6113387978142"/>
      <point x="203.75992063492063" y="152.88888888888889"/>
      <point x="168.30555555555554" y="152.88888888888889" type="curve" smooth="yes"/>
      <point x="116.33234126984127" y="152.88888888888889"/>
      <point x="70.59722222222223" y="93.85982881736699"/>
      <point x="70.59722222222223" y="44.93055555555556" type="curve" smooth="yes"/>
      <point x="70.59722222222223" y="11.969982078853043"/>
      <point x="93.50176056338029" y="-12.36111111111111"/>
    </contour>
  </outline>
</glyph>
<glyph name="four" format="2">
  <advance width="501.47222222222223"/>
  <unicode hex="0034"/>
  <outline>
    <contour>
      <point x="371.05555555555554" y="336.69444444444446" type="curve" smooth="yes"/>
      <point x="308.90972222222223" y="102.75" type="line" smooth="yes"/>
      <point x="301.4375" y="74.1875"/>
      <point x="284.90972222222223" y="59.81944444444444"/>
      <point x="257.34722222222223" y="54.1875" type="curve" smooth="yes"/>
      <point x="213.70138888888889" y="46.625" type="line" smooth="yes"/>
      <point x="192.15972222222223" y="41.30555555555556"/>
      <point x="179.88194444444446" y="37.451388888888886"/>
      <point x="175.77777777777777" y="21.57638888888889" type="curve" smooth="yes"/>
      <point x="172.14583333333334" y="6.138888888888889"/>
      <point x="178.19444444444446" y="0.0"/>
      <point x="198.27083333333334" y="0.0" type="curve" smooth="yes"/>
      <point x="455.22222222222223" y="0.0" type="line" smooth="yes"/>
      <point x="474.8263888888889" y="0.0"/>
      <point x="485.94444444444446" y="6.138888888888889"/>
      <point x="489.5763888888889" y="21.57638888888889" type="curve" smooth="yes"/>
      <point x="493.68055555555554" y="37.451388888888886"/>
      <point x="486.15972222222223" y="45.80555555555556"/>
      <point x="470.59027777777777" y="48.3125" type="curve" smooth="yes"/>
      <point x="439.7916666666667" y="52.1875" type="line" smooth="yes"/>
      <point x="415.7916666666667" y="55.75"/>
      <point x="406.7916666666667" y="71.1875"/>
      <point x="413.7013888888889" y="99.75" type="curve" smooth="yes"/>
      <point x="498.6458333333333" y="420.19444444444446" type="line" smooth="yes"/>
      <point x="503.4583333333333" y="437.6111111111111"/>
      <point x="497.7916666666667" y="444.49305555555554"/>
      <point x="486.93055555555554" y="444.49305555555554" type="curve" smooth="yes"/>
      <point x="478.28472222222223" y="444.49305555555554"/>
      <point x="469.6388888888889" y="443.0763888888889"/>
      <point x="453.7083333333333" y="428.9236111111111" type="curve" smooth="yes"/>
      <point x="395.03472222222223" y="374.15277777777777" type="line" smooth="yes"/>
      <point x="382.97222222222223" y="363.30555555555554"/>
      <point x="374.59722222222223" y="352.13194444444446"/>
    </contour>
    <contour>
      <point x="295.77777777777777" y="415.59722222222223" type="curve" smooth="yes"/>
      <point x="94.07638888888889" y="233.98611111111111" type="line" smooth="yes"/>
      <point x="73.49305555555556" y="216.74305555555554"/>
      <point x="59.59027777777778" y="201.74305555555554"/>
      <point x="56.95833333333333" y="189.72222222222223" type="curve" smooth="yes"/>
      <point x="51.854166666666664" y="170.83333333333334"/>
      <point x="61.02777777777778" y="159.59027777777777"/>
      <point x="81.86111111111111" y="159.59027777777777" type="curve" smooth="yes"/>
      <point x="495.74305555555554" y="159.59027777777777" type="line" smooth="yes"/>
      <point x="518.9583333333334" y="159.59027777777777"/>
      <point x="532.2222222222222" y="168.72916666666666"/>
      <point x="538.5069444444445" y="189.11111111111111" type="curve" smooth="yes"/>
      <point x="541.5208333333334" y="202.1875"/>
      <point x="530.5902777777778" y="208.79861111111111"/>
      <point x="514.7361111111111" y="208.79861111111111" type="curve" smooth="yes"/>
      <point x="111.84722222222223" y="208.79861111111111" type="line"/>
      <point x="107.22222222222223" y="193.15277777777777" type="line"/>
      <point x="399.34027777777777" y="453.1458333333333" type="line" smooth="yes"/>
      <point x="469.00694444444446" y="513.3541666666666"/>
      <point x="495.84027777777777" y="544.7222222222222"/>
      <point x="505.78472222222223" y="580.4652777777778" type="curve" smooth="yes"/>
      <point x="517.4166666666666" y="626.4861111111111"/>
      <point x="494.43055555555554" y="658.4375"/>
      <point x="451.06944444444446" y="658.4375" type="curve" smooth="yes"/>
      <point x="398.5138888888889" y="658.4375"/>
      <point x="356.625" y="621.9861111111111"/>
      <point x="345.8125" y="580.4236111111111" type="curve" smooth="yes"/>
      <point x="335.8125" y="542.8611111111111"/>
      <point x="365.84722222222223" y="530.3333333333334"/>
      <point x="356.9375" y="495.3333333333333" type="curve" smooth="yes"/>
      <point x="349.7708333333333" y="468.5763888888889"/>
      <point x="329.6875" y="444.5138888888889"/>
    </contour>
  </outline>
</glyph>
<glyph name="eight" format="2">
  <advance width="552.5"/>
  <unicode hex="0038"/>
  <outline>
    <contour>
      <point x="266.3125" y="-15.0" type="curve" smooth="yes"/>
      <point x="421.4375" y="-15.0"/>
      <point x="550.375" y="80.6875"/>
      <point x="550.375" y="187.375" type="curve" smooth="yes"/>
      <point x="550.375" y="253.625"/>
      <point x="512.125" y="304.875"/>
      <point x="415.9375" y="345.25" type="curve" smooth="yes"/>
      <point x="332.1875" y="379.375"/>
      <point x="302.75" y="416.4375"/>
      <point x="302.75" y="461.1875" type="curve" smooth="yes"/>
      <point x="302.75" y="526.4375"/>
      <point x="356.60689252336454" y="585.6875"/>
      <point x="431.9375" y="585.6875" type="curve" smooth="yes"/>
      <point x="486.8125" y="585.6875"/>
      <point x="520.25" y="551.46875"/>
      <point x="520.25" y="494.25" type="curve" smooth="yes"/>
      <point x="520.25" y="422.0462962962963"/>
      <point x="466.4933707250015" y="361.3684837958338"/>
      <point x="387.9375" y="337.0" type="curve"/>
      <point x="403.625" y="307.625" type="line"/>
      <point x="550.2382087481683" y="330.4072179671518"/>
      <point x="644.5" y="414.5717794759825"/>
      <point x="644.5" y="512.25" type="curve" smooth="yes"/>
      <point x="644.5" y="593.35"/>
      <point x="584.5" y="656.0625"/>
      <point x="470.9375" y="656.0625" type="curve" smooth="yes"/>
      <point x="303.5" y="656.0625"/>
      <point x="168.625" y="528.0625"/>
      <point x="168.625" y="423.6875" type="curve" smooth="yes"/>
      <point x="168.625" y="348.0"/>
      <point x="210.0625" y="297.75"/>
      <point x="304.6875" y="256.8125" type="curve" smooth="yes"/>
      <point x="386.8125" y="221.5625"/>
      <point x="415.375" y="193.9375"/>
      <point x="415.375" y="152.375" type="curve" smooth="yes"/>
      <point x="415.375" y="95.625"/>
      <point x="372.0344387755102" y="49.8125"/>
      <point x="298.875" y="49.8125" type="curve" smooth="yes"/>
      <point x="236.625" y="49.8125"/>
      <point x="204.5" y="83.6875"/>
      <point x="204.5" y="138.0" type="curve" smooth="yes"/>
      <point x="204.5" y="203.3125"/>
      <point x="243.375" y="257.625"/>
      <point x="315.25" y="287.4375" type="curve"/>
      <point x="295.5" y="304.625" type="line"/>
      <point x="163.30142288947903" y="293.9571091875461"/>
      <point x="84.875" y="208.7875"/>
      <point x="84.875" y="115.4375" type="curve" smooth="yes"/>
      <point x="84.875" y="36.375"/>
      <point x="143.3125" y="-15.0"/>
    </contour>
  </outline>
</glyph>
<glyph name="less" format="2">
  <advance width="523.625"/>
  <unicode hex="003C"/>
  <outline>
    <contour>
      <point x="507.75" y="117.375" type="curve" smooth="yes"/>
      <point x="515.4375" y="144.0"/>
      <point x="503.3125" y="169.1875"/>
      <point x="463.75" y="191.25" type="curve" smooth="yes"/>
      <point x="395.5625" y="231.5625"/>
      <point x="289.125" y="274.5625"/>
      <point x="171.625" y="311.0" type="curve"/>
      <point x="167.625" y="295.0" type="line"/>
      <point x="304.0" y="330.875"/>
      <point x="433.9375" y="372.4375"/>
      <point x="526.5625" y="415.75" type="curve" smooth="yes"/>
      <point x="575.375" y="438.375"/>
      <point x="600.4375" y="462.0"/>
      <point x="607.125" y="486.625" type="curve" smooth="yes"/>
      <point x="612.8125" y="510.375"/>
      <point x="605.8125" y="527.875"/>
      <point x="586.125" y="527.875" type="curve" smooth="yes"/>
      <point x="568.75" y="527.875"/>
      <point x="545.25" y="519.75"/>
      <point x="519.1875" y="503.25" type="curve" smooth="yes"/>
      <point x="455.625" y="463.5"/>
      <point x="297.5625" y="393.1875"/>
      <point x="169.75" y="349.875" type="curve" smooth="yes"/>
      <point x="135.25" y="337.8125"/>
      <point x="120.0625" y="320.75"/>
      <point x="115.375" y="303.0" type="curve" smooth="yes"/>
      <point x="110.6875" y="285.8125"/>
      <point x="117.0625" y="268.1875"/>
      <point x="144.75" y="256.125" type="curve" smooth="yes"/>
      <point x="249.6875" y="213.375"/>
      <point x="371.875" y="143.5"/>
      <point x="412.0" y="102.75" type="curve" smooth="yes"/>
      <point x="429.25" y="84.6875"/>
      <point x="448.3125" y="78.125"/>
      <point x="462.125" y="78.125" type="curve" smooth="yes"/>
      <point x="483.8125" y="78.125"/>
      <point x="502.0625" y="94.625"/>
    </contour>
  </outline>
</glyph>
<glyph name="at" format="2">
  <advance width="762.7638888888889"/>
  <unicode hex="0040"/>
  <outline>
    <contour>
      <point x="350.94444444444446" y="205.77083333333334" type="curve" smooth="yes"/>
      <point x="348.13194444444446" y="329.8253968253968"/>
      <point x="427.97055555555556" y="424.7291666666667"/>
      <point x="504.1388888888889" y="424.7291666666667" type="curve" smooth="yes"/>
      <point x="524.6064814814815" y="424.7291666666667"/>
      <point x="537.7777777777778" y="415.22222222222223"/>
      <point x="538.3402777777778" y="388.1111111111111" type="curve" smooth="yes"/>
      <point x="539.7410433662903" y="315.1116349403575"/>
      <point x="458.729797979798" y="146.52083333333334"/>
      <point x="392.56944444444446" y="146.52083333333334" type="curve" smooth="yes"/>
      <point x="369.06944444444446" y="146.52083333333334"/>
      <point x="352.2645068709909" y="163.8572408687706"/>
    </contour>
    <contour>
      <point x="625.8472222222222" y="132.94444444444446" type="curve" smooth="yes"/>
      <point x="605.2152777777778" y="132.94444444444446"/>
      <point x="596.5277777777778" y="145.85416666666666"/>
      <point x="596.5277777777778" y="161.11111111111111" type="curve" smooth="yes"/>
      <point x="596.5277777777778" y="193.4512471655329"/>
      <point x="614.7222222222222" y="297.9861111111111"/>
      <point x="625.2361111111111" y="363.84027777777777" type="curve" smooth="yes"/>
      <point x="630.7777777777778" y="395.8888888888889"/>
      <point x="657.1319444444445" y="410.7083333333333"/>
      <point x="657.1319444444445" y="435.4166666666667" type="curve" smooth="yes"/>
      <point x="657.1319444444445" y="463.8333333333333"/>
      <point x="626.7117215587538" y="485.75"/>
      <point x="568.5208333333334" y="485.75" type="curve" smooth="yes"/>
      <point x="402.1017795138889" y="485.75"/>
      <point x="246.9619160006994" y="318.521488313473"/>
      <point x="251.56944444444446" y="156.875" type="curve" smooth="yes"/>
      <point x="253.25694444444446" y="97.8125"/>
      <point x="288.63194444444446" y="73.5"/>
      <point x="337.81944444444446" y="73.5" type="curve" smooth="yes"/>
      <point x="397.15195105820106" y="73.5"/>
      <point x="481.29752191697594" y="125.19992126355814"/>
      <point x="537.0555555555555" y="271.3888888888889" type="curve"/>
      <point x="515.75" y="269.52777777777777" type="line"/>
      <point x="518.8003164763808" y="220.07612765681375"/>
      <point x="497.3912840924779" y="166.2145460489904"/>
      <point x="498.56944444444446" y="128.6875" type="curve" smooth="yes"/>
      <point x="500.25694444444446" y="94.875"/>
      <point x="517.5694444444445" y="73.5"/>
      <point x="566.4444444444445" y="73.5" type="curve" smooth="yes"/>
      <point x="679.2430555555555" y="73.5"/>
      <point x="820.1041666666666" y="220.67279411764707"/>
      <point x="820.1041666666666" y="418.0" type="curve" smooth="yes"/>
      <point x="820.1041666666666" y="564.5763888888889"/>
      <point x="746.0411425576519" y="657.8125"/>
      <point x="581.4444444444445" y="657.8125" type="curve" smooth="yes"/>
      <point x="318.82958834630807" y="657.8125"/>
      <point x="94.65972222222223" y="374.28472222222223"/>
      <point x="94.65972222222223" y="130.4375" type="curve" smooth="yes"/>
      <point x="94.65972222222223" y="-36.69444444444444"/>
      <point x="176.19444444444446" y="-126.4375"/>
      <point x="340.44444444444446" y="-126.4375" type="curve" smooth="yes"/>
      <point x="473.93381642512077" y="-126.4375"/>
      <point x="587.2748368198719" y="-80.57739206255454"/>
      <point x="692.9791666666666" y="20.541666666666668" type="curve" smooth="yes"/>
      <point x="727.3472222222222" y="52.96527777777778"/>
      <point x="700.9583333333334" y="78.98611111111111"/>
      <point x="670.0972222222222" y="48.125" type="curve" smooth="yes"/>
      <point x="582.152612855479" y="-39.81960936674326"/>
      <point x="471.1212839093274" y="-89.08333333333334"/>
      <point x="350.80555555555554" y="-89.08333333333334" type="curve" smooth="yes"/>
      <point x="214.53472222222223" y="-89.08333333333334"/>
      <point x="135.39583333333334" y="-16.131944444444443"/>
      <point x="135.39583333333334" y="142.52083333333334" type="curve" smooth="yes"/>
      <point x="135.39583333333334" y="346.9861111111111"/>
      <point x="344.3625730994152" y="621.5833333333334"/>
      <point x="569.8888888888889" y="621.5833333333334" type="curve" smooth="yes"/>
      <point x="706.3125" y="621.5833333333334"/>
      <point x="779.3680555555555" y="538.9583333333334"/>
      <point x="779.3680555555555" y="410.22222222222223" type="curve" smooth="yes"/>
      <point x="779.3680555555555" y="242.63805325034576"/>
      <point x="678.6180555555555" y="132.94444444444446"/>
    </contour>
  </outline>
</glyph>
<glyph name="C" format="2">
  <advance width="606.3680555555555"/>
  <unicode hex="0043"/>
  <outline>
    <contour>
      <point x="643.2708333333334" y="193.1875" type="curve" smooth="yes"/>
      <point x="643.2708333333334" y="208.24493243243242"/>
      <point x="636.3583333333333" y="215.76388888888889"/>
      <point x="625.2361111111111" y="215.76388888888889" type="curve" smooth="yes"/>
      <point x="610.7584325396825" y="215.76388888888889"/>
      <point x="600.5997488142268" y="207.14743935974656"/>
      <point x="582.7152777777778" y="180.44444444444446" type="curve" smooth="yes"/>
      <point x="529.110464019007" y="96.74870557491896"/>
      <point x="474.08599730078157" y="67.3125"/>
      <point x="405.56944444444446" y="67.3125" type="curve" smooth="yes"/>
      <point x="313.4464285714286" y="67.3125"/>
      <point x="248.04861111111111" y="150.9042525626828"/>
      <point x="248.04861111111111" y="292.0625" type="curve" smooth="yes"/>
      <point x="248.04861111111111" y="482.8495156875692"/>
      <point x="368.7291666666667" y="665.6597222222222"/>
      <point x="504.03472222222223" y="665.6597222222222" type="curve" smooth="yes"/>
      <point x="580.6583672086721" y="665.6597222222222"/>
      <point x="621.4965771409856" y="636.7050066956937"/>
      <point x="647.7916666666666" y="559.2638888888889" type="curve" smooth="yes"/>
      <point x="659.7083333333334" y="523.6875" type="line" smooth="yes"/>
      <point x="668.3598597388849" y="501.3588495316337"/>
      <point x="679.6008652094717" y="488.9375"/>
      <point x="697.0138888888889" y="488.9375" type="curve" smooth="yes"/>
      <point x="710.7218137254902" y="488.9375"/>
      <point x="721.7417765082475" y="499.88982516429223"/>
      <point x="720.5902777777778" y="525.3680555555555" type="curve" smooth="yes"/>
      <point x="718.1597222222222" y="678.3055555555555" type="line" smooth="yes"/>
      <point x="717.125" y="699.8819444444445"/>
      <point x="709.1111111111111" y="713.25"/>
      <point x="695.5208333333334" y="713.25" type="curve" smooth="yes"/>
      <point x="676.7986111111111" y="713.25"/>
      <point x="661.6388888888889" y="682.5347222222222"/>
      <point x="640.3541666666666" y="682.5347222222222" type="curve" smooth="yes"/>
      <point x="618.5" y="682.5347222222222"/>
      <point x="584.4861111111111" y="712.8888888888889"/>
      <point x="511.03472222222223" y="712.8888888888889" type="curve" smooth="yes"/>
      <point x="287.11805555555554" y="712.8888888888889"/>
      <point x="108.77083333333333" y="481.77708839303784"/>
      <point x="108.77083333333333" y="241.9375" type="curve" smooth="yes"/>
      <point x="108.77083333333333" y="89.86398024582638"/>
      <point x="200.44313063063063" y="-12.36111111111111"/>
      <point x="341.40972222222223" y="-12.36111111111111" type="curve" smooth="yes"/>
      <point x="478.51357865597555" y="-12.36111111111111"/>
      <point x="581.9540922103432" y="59.99095971152117"/>
      <point x="631.5694444444445" y="156.375" type="curve" smooth="yes"/>
      <point x="639.7750091347028" y="173.2727942202429"/>
      <point x="643.2708333333334" y="182.10416666666666"/>
    </contour>
  </outline>
</glyph>
<glyph name="E" format="2">
  <advance width="580.9097222222222"/>
  <unicode hex="0045"/>
  <anchor x="467.6111111111111" y="734.0" name="center"/>
  <outline>
    <contour>
      <point x="291.8541666666667" y="370.28472222222223" type="line"/>
      <point x="283.06944444444446" y="323.65277777777777" type="line"/>
      <point x="456.13194444444446" y="323.65277777777777" type="line" smooth="yes"/>
      <point x="496.4513888888889" y="323.65277777777777"/>
      <point x="518.7291666666666" y="310.2638888888889"/>
      <point x="538.2152777777778" y="275.74305555555554" type="curve" smooth="yes"/>
      <point x="550.6180555555555" y="260.2986111111111"/>
      <point x="557.7569444444445" y="255.375"/>
      <point x="571.1597222222222" y="255.375" type="curve" smooth="yes"/>
      <point x="579.625" y="255.375"/>
      <point x="590.8333333333334" y="262.3333333333333"/>
      <point x="587.7986111111111" y="276.74305555555554" type="curve" smooth="yes"/>
      <point x="561.2291666666666" y="419.8263888888889" type="line" smooth="yes"/>
      <point x="558.0694444444445" y="437.0416666666667"/>
      <point x="549.5902777777778" y="449.9375"/>
      <point x="535.5694444444445" y="449.9375" type="curve" smooth="yes"/>
      <point x="527.0694444444445" y="449.9375"/>
      <point x="520.5833333333334" y="443.6875"/>
      <point x="512.0833333333334" y="431.49305555555554" type="curve" smooth="yes"/>
      <point x="493.84027777777777" y="386.8263888888889"/>
      <point x="471.8541666666667" y="370.28472222222223"/>
      <point x="441.2361111111111" y="370.28472222222223" type="curve" smooth="yes"/>
    </contour>
    <contour>
      <point x="414.5486111111111" y="0.0" type="line" smooth="yes"/>
      <point x="443.99305555555554" y="0.0"/>
      <point x="461.0763888888889" y="-15.645833333333332"/>
      <point x="481.5416666666667" y="-15.645833333333332" type="curve" smooth="yes"/>
      <point x="532.6993827160494" y="-15.645833333333332"/>
      <point x="587.4930555555555" y="66.82506613756614"/>
      <point x="587.4930555555555" y="153.11805555555554" type="curve" smooth="yes"/>
      <point x="587.4930555555555" y="177.0300925925926"/>
      <point x="579.6964285714286" y="188.1875"/>
      <point x="567.0972222222222" y="188.1875" type="curve" smooth="yes"/>
      <point x="554.0763888888889" y="188.1875"/>
      <point x="546.9375" y="183.08333333333334"/>
      <point x="537.0763888888889" y="167.11805555555554" type="curve" smooth="yes"/>
      <point x="525.1388888888889" y="142.89583333333334" type="line" smooth="yes"/>
      <point x="488.49305555555554" y="72.3125"/>
      <point x="437.1111111111111" y="44.50694444444444"/>
      <point x="364.00694444444446" y="44.50694444444444" type="curve" smooth="yes"/>
      <point x="328.50694444444446" y="44.50694444444444" type="line" smooth="yes"/>
      <point x="289.38194444444446" y="44.50694444444444"/>
      <point x="273.84027777777777" y="66.14583333333333"/>
      <point x="275.9375" y="97.60416666666667" type="curve" smooth="yes"/>
      <point x="287.05555555555554" y="185.53472222222223"/>
      <point x="346.84722222222223" y="447.15972222222223"/>
      <point x="412.6458333333333" y="655.9305555555555" type="curve"/>
      <point x="525.8402777777778" y="655.9305555555555" type="line" smooth="yes"/>
      <point x="566.4375" y="655.9305555555555"/>
      <point x="594.2430555555555" y="635.1041666666666"/>
      <point x="608.2291666666666" y="599.8263888888889" type="curve" smooth="yes"/>
      <point x="628.7638888888889" y="546.7222222222222" type="line" smooth="yes"/>
      <point x="635.1041666666666" y="530.1736111111111"/>
      <point x="645.0555555555555" y="520.1875"/>
      <point x="660.4027777777778" y="520.1875" type="curve" smooth="yes"/>
      <point x="671.1766975308642" y="520.1875"/>
      <point x="684.2471083272203" y="530.8565542451179"/>
      <point x="683.3958333333334" y="549.5416666666666" type="curve" smooth="yes"/>
      <point x="673.8680555555555" y="698.4861111111111" type="line" smooth="yes"/>
      <point x="673.0281483010009" y="716.7336708778953"/>
      <point x="666.3680555555555" y="724.0416666666666"/>
      <point x="653.9236111111111" y="724.0416666666666" type="curve" smooth="yes"/>
      <point x="645.4404761904761" y="724.0416666666666"/>
      <point x="639.0625" y="719.5"/>
      <point x="628.4166666666666" y="711.4166666666666" type="curve" smooth="yes"/>
      <point x="617.3055555555555" y="703.9444444444445"/>
      <point x="605.4513888888889" y="700.0"/>
      <point x="588.5902777777778" y="700.0" type="curve" smooth="yes"/>
      <point x="224.97222222222223" y="700.0" type="line" smooth="yes"/>
      <point x="209.05601851851853" y="700.0"/>
      <point x="198.29861111111111" y="691.0532407407408"/>
      <point x="198.29861111111111" y="677.0069444444445" type="curve" smooth="yes"/>
      <point x="198.29861111111111" y="662.7268518518518"/>
      <point x="204.875" y="655.6666666666666"/>
      <point x="216.47222222222223" y="652.3402777777778" type="curve" smooth="yes"/>
      <point x="251.5" y="643.8125" type="line" smooth="yes"/>
      <point x="264.84722222222223" y="640.4305555555555"/>
      <point x="271.3541666666667" y="630.6458333333334"/>
      <point x="270.13194444444446" y="612.0763888888889" type="curve" smooth="yes"/>
      <point x="255.24103749892075" y="508.35343635761865"/>
      <point x="185.4385058216694" y="239.14923687991774"/>
      <point x="138.25694444444446" y="96.95138888888889" type="curve"/>
      <point x="129.65972222222223" y="71.17361111111111"/>
      <point x="120.08999441803736" y="57.54092971826116"/>
      <point x="96.02083333333333" y="52.86805555555556" type="curve" smooth="yes"/>
      <point x="64.99305555555556" y="47.34027777777778" type="line" smooth="yes"/>
      <point x="46.201388888888886" y="43.541666666666664"/>
      <point x="37.494403980921206" y="33.15190124747876"/>
      <point x="37.111111111111114" y="23.03472222222222" type="curve" smooth="yes"/>
      <point x="36.43819602959953" y="8.912506340620354"/>
      <point x="46.59027777777778" y="0.0"/>
      <point x="63.05555555555556" y="0.0" type="curve" smooth="yes"/>
    </contour>
  </outline>
</glyph>
<glyph name="G" format="2">
  <advance width="690.7152777777778"/>
  <unicode hex="0047"/>
  <anchor x="579.1527777777778" y="783.0" name="center"/>
  <outline>
    <contour>
      <point x="536.2638888888889" y="714.0" type="curve" smooth="yes"/>
      <point x="314.03795297095655" y="714.0"/>
      <point x="108.875" y="474.999649122807"/>
      <point x="108.875" y="246.60416666666666" type="curve" smooth="yes"/>
      <point x="108.875" y="91.53450349956255"/>
      <point x="205.17361111111111" y="-12.36111111111111"/>
      <point x="356.2638888888889" y="-12.36111111111111" type="curve" smooth="yes"/>
      <point x="456.6474826388889" y="-12.36111111111111"/>
      <point x="494.63585069444446" y="32.61805555555556"/>
      <point x="518.4236111111111" y="32.61805555555556" type="curve" smooth="yes"/>
      <point x="542.822601010101" y="32.61805555555556"/>
      <point x="555.6710858585859" y="-12.36111111111111"/>
      <point x="578.0208333333334" y="-12.36111111111111" type="curve" smooth="yes"/>
      <point x="595.8055555555555" y="-12.36111111111111"/>
      <point x="607.8680555555555" y="1.5694444444444446"/>
      <point x="615.6597222222222" y="31.61111111111111" type="curve" smooth="yes"/>
      <point x="635.0486111111111" y="105.83333333333333"/>
      <point x="652.0" y="162.25"/>
      <point x="662.9513888888889" y="196.67361111111111" type="curve" smooth="yes"/>
      <point x="685.0243087920037" y="266.6062619924489"/>
      <point x="693.5587654130891" y="277.6460064822019"/>
      <point x="737.375" y="289.2916666666667" type="curve" smooth="yes"/>
      <point x="758.2291666666666" y="295.25"/>
      <point x="766.5792537669637" y="304.5572975614974"/>
      <point x="767.0763888888889" y="317.15277777777777" type="curve" smooth="yes"/>
      <point x="768.1156052601985" y="329.12827482420784"/>
      <point x="761.3153735632184" y="335.3125"/>
      <point x="739.4652777777778" y="335.3125" type="curve" smooth="yes"/>
      <point x="506.1875" y="335.3125" type="line" smooth="yes"/>
      <point x="489.61805555555554" y="335.3125"/>
      <point x="479.59027777777777" y="328.6111111111111"/>
      <point x="479.59027777777777" y="314.7361111111111" type="curve" smooth="yes"/>
      <point x="479.59027777777777" y="303.0208333333333"/>
      <point x="483.56944444444446" y="296.3541666666667"/>
      <point x="501.9375" y="290.72222222222223" type="curve" smooth="yes"/>
      <point x="533.0763888888889" y="282.0833333333333" type="line" smooth="yes"/>
      <point x="551.7986111111111" y="276.19444444444446"/>
      <point x="562.3263888888889" y="254.55555555555554"/>
      <point x="552.2152777777778" y="200.86111111111111" type="curve" smooth="yes"/>
      <point x="529.0806999510179" y="87.40842668323717"/>
      <point x="472.2157986111111" y="44.36805555555556"/>
      <point x="392.7083333333333" y="44.36805555555556" type="curve" smooth="yes"/>
      <point x="296.64548022598865" y="44.36805555555556"/>
      <point x="247.33333333333334" y="126.30555555555556"/>
      <point x="247.33333333333334" y="251.19444444444446" type="curve" smooth="yes"/>
      <point x="247.33333333333334" y="452.1111111111111"/>
      <point x="383.668382316447" y="667.3333333333334"/>
      <point x="530.2152777777778" y="667.3333333333334" type="curve" smooth="yes"/>
      <point x="606.7842789598109" y="667.3333333333334"/>
      <point x="645.8559271617287" y="633.2954422199995"/>
      <point x="683.0833333333334" y="557.2083333333334" type="curve" smooth="yes"/>
      <point x="703.5138888888889" y="513.3611111111111" type="line" smooth="yes"/>
      <point x="713.9722222222222" y="493.5138888888889"/>
      <point x="722.1111111111111" y="482.8333333333333"/>
      <point x="738.7083333333334" y="482.8333333333333" type="curve" smooth="yes"/>
      <point x="753.0763888888889" y="482.8333333333333"/>
      <point x="763.2847222222222" y="492.09722222222223"/>
      <point x="763.375" y="515.2222222222222" type="curve" smooth="yes"/>
      <point x="766.3958333333334" y="685.1388888888889" type="line" smooth="yes"/>
      <point x="766.4861111111111" y="702.7083333333334"/>
      <point x="758.4375" y="713.2638888888889"/>
      <point x="747.0625" y="713.2638888888889" type="curve" smooth="yes"/>
      <point x="722.2569444444445" y="713.2638888888889"/>
      <point x="702.6666666666666" y="673.7222222222222"/>
      <point x="675.8611111111111" y="673.7222222222222" type="curve" smooth="yes"/>
      <point x="653.6138285024155" y="673.7222222222222"/>
      <point x="619.5500217013889" y="714.0"/>
    </contour>
  </outline>
</glyph>
<glyph name="H" format="2">
  <advance width="733.75"/>
  <unicode hex="0048"/>
  <outline>
    <contour>
      <point x="264.0625" y="360.0" type="line"/>
      <point x="255.28472222222223" y="308.28472222222223" type="line"/>
      <point x="630.3125" y="308.28472222222223" type="line"/>
      <point x="639.0902777777778" y="360.0" type="line"/>
    </contour>
    <component base="I" xOffset="5.743055555555557"/>
    <component base="I" xOffset="384.53472222222223"/>
  </outline>
</glyph>
<glyph name="J" format="2">
  <advance width="339.19444444444446"/>
  <unicode hex="004A"/>
  <outline>
    <contour>
      <point x="391.88194444444446" y="588.1319444444445" type="curve" smooth="yes"/>
      <point x="403.2361111111111" y="625.4305555555555"/>
      <point x="416.3958333333333" y="634.0347222222222"/>
      <point x="436.72222222222223" y="640.1597222222222" type="curve" smooth="yes"/>
      <point x="473.4375" y="649.8541666666666" type="line" smooth="yes"/>
      <point x="490.7291666666667" y="655.6111111111111"/>
      <point x="505.25694444444446" y="666.3402777777778"/>
      <point x="505.9513888888889" y="678.9652777777778" type="curve" smooth="yes"/>
      <point x="506.7361111111111" y="693.8611111111111"/>
      <point x="500.9375" y="700.0"/>
      <point x="481.1736111111111" y="700.0" type="curve" smooth="yes"/>
      <point x="227.14583333333334" y="700.0" type="line" smooth="yes"/>
      <point x="209.6875" y="700.0"/>
      <point x="198.91666666666666" y="692.7361111111111"/>
      <point x="198.65972222222223" y="678.8958333333334" type="curve" smooth="yes"/>
      <point x="198.49305555555554" y="665.6736111111111"/>
      <point x="207.66666666666666" y="659.0069444444445"/>
      <point x="219.38888888888889" y="654.8472222222222" type="curve" smooth="yes"/>
      <point x="246.29861111111111" y="646.2430555555555" type="line" smooth="yes"/>
      <point x="264.80555555555554" y="640.1180555555555"/>
      <point x="276.43055555555554" y="623.0763888888889"/>
      <point x="269.74305555555554" y="589.7152777777778" type="curve" smooth="yes"/>
      <point x="240.78799434936212" y="446.8923104325464"/>
      <point x="167.13194444444446" y="208.96527777777777"/>
      <point x="148.04861111111111" y="86.46527777777777" type="curve" smooth="yes"/>
      <point x="143.6875" y="36.5625"/>
      <point x="171.01388888888889" y="13.98611111111111"/>
      <point x="171.01388888888889" y="-32.1875" type="curve" smooth="yes"/>
      <point x="171.01388888888889" y="-63.576388888888886"/>
      <point x="153.20138888888889" y="-79.29861111111111"/>
      <point x="129.26388888888889" y="-79.29861111111111" type="curve" smooth="yes"/>
      <point x="92.65972222222223" y="-79.29861111111111"/>
      <point x="60.18055555555556" y="-40.72222222222222"/>
      <point x="19.48611111111111" y="-40.72222222222222" type="curve" smooth="yes"/>
      <point x="-21.166666666666668" y="-40.72222222222222"/>
      <point x="-43.826388888888886" y="-69.10416666666667"/>
      <point x="-43.826388888888886" y="-101.9375" type="curve" smooth="yes"/>
      <point x="-43.826388888888886" y="-141.73611111111111"/>
      <point x="-13.909722222222221" y="-173.03472222222223"/>
      <point x="41.50694444444444" y="-173.03472222222223" type="curve" smooth="yes"/>
      <point x="135.61111111111111" y="-173.03472222222223"/>
      <point x="223.11111111111111" y="-96.90277777777777"/>
      <point x="252.9375" y="48.83333333333333" type="curve" smooth="yes"/>
      <point x="274.69444444444446" y="150.73611111111111"/>
      <point x="346.1453938978966" y="432.82536292170846"/>
    </contour>
  </outline>
</glyph>
<glyph name="N" format="2">
  <advance width="672.0625"/>
  <unicode hex="004E"/>
  <outline>
    <contour>
      <point x="200.65972222222223" y="111.29861111111111" type="line" smooth="yes"/>
      <point x="195.76250000000002" y="90.04166666666667"/>
      <point x="200.72960069444446" y="74.92230902777777"/>
      <point x="226.84027777777777" y="62.9375" type="curve" smooth="yes"/>
      <point x="258.28472222222223" y="48.77083333333333" type="line" smooth="yes"/>
      <point x="271.65972222222223" y="42.84722222222222"/>
      <point x="278.65277777777777" y="33.638888888888886"/>
      <point x="278.65277777777777" y="21.45138888888889" type="curve" smooth="yes"/>
      <point x="278.65277777777777" y="7.138888888888889"/>
      <point x="268.3125" y="0.0"/>
      <point x="251.66666666666666" y="0.0" type="curve" smooth="yes"/>
      <point x="50.791666666666664" y="0.0" type="line" smooth="yes"/>
      <point x="35.70833333333333" y="0.0"/>
      <point x="27.131944444444443" y="7.611111111111111"/>
      <point x="27.131944444444443" y="21.854166666666664" type="curve" smooth="yes"/>
      <point x="27.131944444444443" y="34.041666666666664"/>
      <point x="34.291666666666664" y="44.28472222222222"/>
      <point x="55.1875" y="51.24305555555556" type="curve" smooth="yes"/>
      <point x="93.02083333333333" y="63.99305555555556" type="line" smooth="yes"/>
      <point x="119.49305555555556" y="73.46527777777777"/>
      <point x="139.34722222222223" y="87.46527777777777"/>
      <point x="146.25694444444446" y="113.9375" type="curve" smooth="yes"/>
      <point x="266.0763888888889" y="553.7777777777778" type="line" smooth="yes"/>
      <point x="270.89722222222224" y="569.9902777777778"/>
      <point x="266.40758547008545" y="576.6837606837607"/>
      <point x="256.6458333333333" y="588.3055555555555" type="curve" smooth="yes"/>
      <point x="220.90972222222223" y="646.2638888888889" type="line" smooth="yes"/>
      <point x="210.75694444444446" y="657.4375"/>
      <point x="204.6875" y="667.4652777777778"/>
      <point x="205.125" y="677.5486111111111" type="curve" smooth="yes"/>
      <point x="205.47222222222223" y="691.7361111111111"/>
      <point x="214.63194444444446" y="700.0"/>
      <point x="228.93055555555554" y="700.0" type="curve" smooth="yes"/>
      <point x="345.93055555555554" y="700.0" type="line" smooth="yes"/>
      <point x="361.4861111111111" y="700.0"/>
      <point x="370.97222222222223" y="691.875"/>
      <point x="380.0763888888889" y="668.4166666666666" type="curve" smooth="yes"/>
      <point x="468.5833333333333" y="448.1111111111111"/>
      <point x="538.5277777777778" y="291.30555555555554"/>
      <point x="601.6944444444445" y="159.70833333333334" type="curve"/>
      <point x="564.4930555555555" y="135.80555555555554" type="line"/>
      <point x="670.1388888888889" y="580.2569444444445" type="line" smooth="yes"/>
      <point x="693.4444444444445" y="681.1527777777778"/>
      <point x="734.4097222222222" y="721.3194444444445"/>
      <point x="785.2708333333334" y="721.3194444444445" type="curve" smooth="yes"/>
      <point x="826.7986111111111" y="721.3194444444445"/>
      <point x="845.1319444444445" y="699.8958333333334"/>
      <point x="845.6597222222222" y="663.5625" type="curve" smooth="yes"/>
      <point x="846.1875" y="624.4722222222222"/>
      <point x="815.7361111111111" y="595.7430555555555"/>
      <point x="778.6041666666666" y="580.0" type="curve" smooth="yes"/>
      <point x="738.6875" y="562.5833333333334"/>
      <point x="712.7361111111111" y="536.4652777777778"/>
      <point x="702.4097222222222" y="491.5138888888889" type="curve" smooth="yes"/>
      <point x="620.625" y="148.76388888888889" type="line" smooth="yes"/>
      <point x="617.2777777777778" y="132.88888888888889"/>
      <point x="616.1875" y="124.88888888888889"/>
      <point x="616.1875" y="117.88888888888889" type="curve" smooth="yes"/>
      <point x="616.1875" y="92.07638888888889"/>
      <point x="640.7361111111111" y="60.604166666666664"/>
      <point x="640.7361111111111" y="31.84722222222222" type="curve" smooth="yes"/>
      <point x="640.7361111111111" y="9.229166666666666"/>
      <point x="624.5833333333334" y="0.0"/>
      <point x="609.3194444444445" y="0.0" type="curve" smooth="yes"/>
      <point x="516.7916666666666" y="0.0" type="line" smooth="yes"/>
      <point x="500.7083333333333" y="0.0"/>
      <point x="492.27777777777777" y="8.0"/>
      <point x="491.8263888888889" y="22.40972222222222" type="curve" smooth="yes"/>
      <point x="491.28472222222223" y="46.548611111111114"/>
      <point x="499.22222222222223" y="74.84027777777777"/>
      <point x="490.4236111111111" y="94.16666666666666" type="curve" smooth="yes"/>
      <point x="435.71527777777777" y="221.61805555555554"/>
      <point x="365.53472222222223" y="382.3541666666667"/>
      <point x="288.5208333333333" y="559.5555555555555" type="curve"/>
      <point x="323.11805555555554" y="562.4166666666666" type="line"/>
    </contour>
  </outline>
</glyph>
<glyph name="P" format="2">
  <advance width="611.5555555555555"/>
  <unicode hex="0050"/>
  <outline>
    <contour>
      <point x="723.5902777777778" y="498.27777777777777" type="curve" smooth="yes"/>
      <point x="723.5902777777778" y="624.1111111111111"/>
      <point x="640.0069444444445" y="700.0"/>
      <point x="506.34027777777777" y="700.0" type="curve" smooth="yes"/>
      <point x="227.29861111111111" y="700.0" type="line" smooth="yes"/>
      <point x="210.1172385620915" y="700.0"/>
      <point x="201.85416666666666" y="683.699074074074"/>
      <point x="201.85416666666666" y="674.9513888888889" type="curve" smooth="yes"/>
      <point x="201.85416666666666" y="664.6527777777778"/>
      <point x="206.65277777777777" y="656.8263888888889"/>
      <point x="217.99305555555554" y="653.7916666666666" type="curve" smooth="yes"/>
      <point x="251.54861111111111" y="644.0972222222222" type="line" smooth="yes"/>
      <point x="267.4375" y="639.5347222222222"/>
      <point x="274.8541666666667" y="631.2083333333334"/>
      <point x="274.8541666666667" y="616.7916666666666" type="curve" smooth="yes"/>
      <point x="274.8541666666667" y="611.2083333333334"/>
      <point x="274.38194444444446" y="603.5694444444445"/>
      <point x="271.2708333333333" y="589.0694444444445" type="curve"/>
      <point x="237.19444444444446" y="428.99305555555554"/>
      <point x="193.05555555555554" y="255.10416666666666"/>
      <point x="144.34027777777777" y="95.68055555555556" type="curve" smooth="yes"/>
      <point x="137.95833333333334" y="74.20833333333333"/>
      <point x="125.8125" y="58.791666666666664"/>
      <point x="104.8125" y="53.263888888888886" type="curve" smooth="yes"/>
      <point x="70.89583333333333" y="44.625" type="line" smooth="yes"/>
      <point x="53.72222222222222" y="40.20833333333333"/>
      <point x="46.979166666666664" y="28.84027777777778"/>
      <point x="46.979166666666664" y="17.59722222222222" type="curve" smooth="yes"/>
      <point x="46.979166666666664" y="6.229166666666666"/>
      <point x="53.8125" y="0.0"/>
      <point x="66.0625" y="0.0" type="curve" smooth="yes"/>
      <point x="328.6388888888889" y="0.0" type="line" smooth="yes"/>
      <point x="342.72222222222223" y="0.0"/>
      <point x="352.97222222222223" y="10.680555555555555"/>
      <point x="352.97222222222223" y="23.430555555555557" type="curve" smooth="yes"/>
      <point x="352.97222222222223" y="34.81944444444444"/>
      <point x="348.1736111111111" y="43.263888888888886"/>
      <point x="337.3611111111111" y="45.68055555555556" type="curve" smooth="yes"/>
      <point x="299.1111111111111" y="54.31944444444444" type="line" smooth="yes"/>
      <point x="278.27777777777777" y="59.263888888888886"/>
      <point x="267.9166666666667" y="67.68055555555556"/>
      <point x="267.9166666666667" y="80.56944444444444" type="curve" smooth="yes"/>
      <point x="267.9166666666667" y="86.15277777777777"/>
      <point x="269.3888888888889" y="91.68055555555556"/>
      <point x="272.3888888888889" y="105.68055555555556" type="curve" smooth="yes"/>
      <point x="303.68055555555554" y="240.29166666666666"/>
      <point x="373.7708333333333" y="509.0486111111111"/>
      <point x="393.6736111111111" y="576.7777777777778" type="curve" smooth="yes"/>
      <point x="409.3125" y="629.0208333333334"/>
      <point x="449.4375" y="654.0625"/>
      <point x="501.86805555555554" y="654.0625" type="curve" smooth="yes"/>
      <point x="559.2013888888889" y="654.0625"/>
      <point x="598.5625" y="605.3888888888889"/>
      <point x="598.5625" y="514.5277777777778" type="curve" smooth="yes"/>
      <point x="598.5625" y="358.7986111111111"/>
      <point x="508.84722222222223" y="264.4791666666667"/>
      <point x="401.4236111111111" y="264.4791666666667" type="curve" smooth="yes"/>
      <point x="335.1041666666667" y="264.4791666666667"/>
      <point x="288.1736111111111" y="283.3125"/>
      <point x="247.28472222222223" y="315.4861111111111" type="curve"/>
      <point x="232.5625" y="278.90277777777777" type="line"/>
      <point x="290.34722222222223" y="236.84722222222223"/>
      <point x="335.6111111111111" y="215.38194444444446"/>
      <point x="430.80555555555554" y="215.38194444444446" type="curve" smooth="yes"/>
      <point x="583.8472222222222" y="215.38194444444446"/>
      <point x="723.5902777777778" y="332.00694444444446"/>
    </contour>
  </outline>
</glyph>
<glyph name="R" format="2">
  <advance width="650.3194444444445"/>
  <unicode hex="0052"/>
  <outline>
    <contour>
      <point x="275.49305555555554" y="282.65277777777777" type="line"/>
      <point x="302.74305555555554" y="266.0"/>
      <point x="344.24305555555554" y="254.06944444444446"/>
      <point x="387.15972222222223" y="254.54166666666666" type="curve" smooth="yes"/>
      <point x="569.965641452947" y="256.43056377420345"/>
      <point x="722.2986111111111" y="347.7068810730883"/>
      <point x="722.2986111111111" y="513.6944444444445" type="curve" smooth="yes"/>
      <point x="722.2986111111111" y="618.5833333333334"/>
      <point x="631.9949130754297" y="699.712787724661"/>
      <point x="494.96527777777777" y="700.0" type="curve" smooth="yes"/>
      <point x="234.10416666666666" y="700.5625" type="line" smooth="yes"/>
      <point x="214.5" y="700.5625"/>
      <point x="202.94444444444446" y="693.8958333333334"/>
      <point x="202.94444444444446" y="678.4027777777778" type="curve" smooth="yes"/>
      <point x="202.94444444444446" y="667.0277777777778"/>
      <point x="208.04861111111111" y="660.2361111111111"/>
      <point x="224.76388888888889" y="653.8263888888889" type="curve" smooth="yes"/>
      <point x="248.50694444444446" y="646.2430555555555" type="line" smooth="yes"/>
      <point x="270.44297170319317" y="638.2169010160918"/>
      <point x="277.6263568795275" y="625.1378827050042"/>
      <point x="271.31944444444446" y="593.9305555555555" type="curve" smooth="yes"/>
      <point x="241.2060928975961" y="439.0260025889175"/>
      <point x="198.81501541974745" y="275.19095458543956"/>
      <point x="141.81944444444446" y="98.31944444444444" type="curve" smooth="yes"/>
      <point x="133.34722222222223" y="73.31944444444444"/>
      <point x="120.81944444444444" y="59.31944444444444"/>
      <point x="97.81944444444444" y="54.31944444444444" type="curve" smooth="yes"/>
      <point x="61.263888888888886" y="46.20833333333333" type="line" smooth="yes"/>
      <point x="47.7311729010116" y="42.96948007117362"/>
      <point x="37.81944444444444" y="36.47222222222222"/>
      <point x="37.81944444444444" y="22.15972222222222" type="curve" smooth="yes"/>
      <point x="37.81944444444444" y="8.70138888888889"/>
      <point x="45.263888888888886" y="0.0"/>
      <point x="61.52777777777778" y="0.0" type="curve" smooth="yes"/>
      <point x="307.6458333333333" y="0.0" type="line" smooth="yes"/>
      <point x="327.7986111111111" y="0.0"/>
      <point x="341.88194444444446" y="5.666666666666666"/>
      <point x="341.88194444444446" y="22.15972222222222" type="curve" smooth="yes"/>
      <point x="341.88194444444446" y="36.94444444444444"/>
      <point x="336.8333333333333" y="39.361111111111114"/>
      <point x="321.6458333333333" y="45.68055555555556" type="curve" smooth="yes"/>
      <point x="295.88194444444446" y="54.31944444444444" type="line" smooth="yes"/>
      <point x="275.06442120807094" y="61.86624011717594"/>
      <point x="268.27151224037493" y="78.3646414277273"/>
      <point x="275.88194444444446" y="115.19444444444444" type="curve" smooth="yes"/>
      <point x="316.1906462662767" y="298.3490610100982"/>
      <point x="350.76345164710733" y="443.53787103004083"/>
      <point x="395.0833333333333" y="579.3263888888889" type="curve" smooth="yes"/>
      <point x="408.74161311560255" y="624.899550858817"/>
      <point x="433.9820113788487" y="650.5416666666666"/>
      <point x="484.125" y="650.5416666666666" type="curve" smooth="yes"/>
      <point x="555.8448975571316" y="650.5416666666666"/>
      <point x="599.1597222222222" y="600.0979532163743"/>
      <point x="599.1597222222222" y="530.8055555555555" type="curve" smooth="yes"/>
      <point x="599.1597222222222" y="388.19926697530866"/>
      <point x="509.27582199546487" y="300.84722222222223"/>
      <point x="385.4583333333333" y="300.84722222222223" type="curve" smooth="yes"/>
      <point x="341.34027777777777" y="300.84722222222223"/>
      <point x="301.75" y="309.8333333333333"/>
      <point x="284.56944444444446" y="321.4861111111111" type="curve"/>
    </contour>
    <contour>
      <point x="376.3888888888889" y="281.4166666666667" type="line"/>
      <point x="432.5833333333333" y="129.69444444444446" type="line" smooth="yes"/>
      <point x="478.8190057006364" y="11.049738453500105"/>
      <point x="509.0961554142205" y="-12.36111111111111"/>
      <point x="556.9305555555555" y="-12.36111111111111" type="curve" smooth="yes"/>
      <point x="618.8411458333333" y="-12.36111111111111"/>
      <point x="677.6944444444445" y="37.48049428104575"/>
      <point x="677.6944444444445" y="92.57638888888889" type="curve" smooth="yes"/>
      <point x="677.6944444444445" y="106.86342592592592"/>
      <point x="668.4100378787879" y="117.54861111111111"/>
      <point x="655.5" y="117.54861111111111" type="curve" smooth="yes"/>
      <point x="640.8618827160494" y="117.54861111111111"/>
      <point x="631.2430555555555" y="96.04166666666667"/>
      <point x="607.375" y="96.04166666666667" type="curve" smooth="yes"/>
      <point x="580.6111111111111" y="96.04166666666667"/>
      <point x="553.6274141675352" y="115.27371442413097"/>
      <point x="529.1527777777778" y="177.29861111111111" type="curve" smooth="yes"/>
      <point x="486.1875" y="289.4513888888889" type="line"/>
    </contour>
  </outline>
</glyph>
<glyph name="T" format="2">
  <advance width="575.5138888888889"/>
  <unicode hex="0054"/>
  <outline>
    <contour>
      <point x="345.55555555555554" y="714.2708333333334" type="curve" smooth="yes"/>
      <point x="216.96168005354752" y="714.2708333333334"/>
      <point x="156.32638888888889" y="656.7627219455375"/>
      <point x="156.32638888888889" y="585.5347222222222" type="curve" smooth="yes"/>
      <point x="156.32638888888889" y="536.5555555555555"/>
      <point x="183.24305555555554" y="509.5486111111111"/>
      <point x="222.35416666666666" y="509.5486111111111" type="curve" smooth="yes"/>
      <point x="262.22222222222223" y="509.5486111111111"/>
      <point x="288.8611111111111" y="538.8055555555555"/>
      <point x="288.8611111111111" y="568.0625" type="curve" smooth="yes"/>
      <point x="288.8611111111111" y="594.2953431372549"/>
      <point x="264.875" y="605.1470588235294"/>
      <point x="264.875" y="629.0277777777778" type="curve" smooth="yes"/>
      <point x="264.875" y="655.6128118617872"/>
      <point x="287.9650157232704" y="672.6597222222222"/>
      <point x="351.8611111111111" y="672.6597222222222" type="curve" smooth="yes"/>
      <point x="436.49010047281325" y="672.6597222222222"/>
      <point x="570.6112815269257" y="615.3055555555555"/>
      <point x="663.6458333333334" y="615.3055555555555" type="curve" smooth="yes"/>
      <point x="726.5300925925926" y="615.3055555555555"/>
      <point x="765.7777777777778" y="650.1606160703275"/>
      <point x="765.7777777777778" y="693.2083333333334" type="curve" smooth="yes"/>
      <point x="765.7777777777778" y="732.1744759529686"/>
      <point x="745.6968453803265" y="749.5347222222222"/>
      <point x="716.8958333333334" y="749.5347222222222" type="curve" smooth="yes"/>
      <point x="685.8000626994984" y="749.5347222222222"/>
      <point x="666.0866781277391" y="729.9441787268743"/>
      <point x="655.25" y="705.5069444444445" type="curve" smooth="yes"/>
      <point x="645.7671800460116" y="681.5015828455969"/>
      <point x="631.629310773206" y="672.7013888888889"/>
      <point x="607.4375" y="672.7013888888889" type="curve" smooth="yes"/>
      <point x="550.6618747233289" y="672.7013888888889"/>
      <point x="441.47623574144484" y="714.2708333333334"/>
    </contour>
    <contour>
      <point x="433.75" y="682.8055555555555" type="line"/>
      <point x="385.75" y="501.4375"/>
      <point x="329.2106469008773" y="309.22235047045154"/>
      <point x="262.78472222222223" y="109.67361111111111" type="curve" smooth="yes"/>
      <point x="251.40972222222223" y="77.36111111111111"/>
      <point x="237.98057513556898" y="60.17674345361615"/>
      <point x="210.90972222222223" y="51.611111111111114" type="curve" smooth="yes"/>
      <point x="179.45138888888889" y="43.5" type="line" smooth="yes"/>
      <point x="160.63194444444446" y="36.61805555555556"/>
      <point x="147.13888888888889" y="34.854166666666664"/>
      <point x="145.28472222222223" y="21.069444444444443" type="curve" smooth="yes"/>
      <point x="142.8125" y="6.701388888888889"/>
      <point x="148.82638888888889" y="0.0"/>
      <point x="168.46527777777777" y="0.0" type="curve" smooth="yes"/>
      <point x="433.56944444444446" y="0.0" type="line" smooth="yes"/>
      <point x="452.6666666666667" y="0.0"/>
      <point x="463.78472222222223" y="6.138888888888889"/>
      <point x="465.69444444444446" y="21.069444444444443" type="curve" smooth="yes"/>
      <point x="467.5138888888889" y="35.38194444444444"/>
      <point x="457.86805555555554" y="36.02083333333333"/>
      <point x="438.77777777777777" y="44.02777777777778" type="curve" smooth="yes"/>
      <point x="414.06944444444446" y="51.611111111111114" type="line" smooth="yes"/>
      <point x="394.80150656760554" y="58.49379877261349"/>
      <point x="387.9791666666667" y="75.79861111111111"/>
      <point x="396.31944444444446" y="110.79861111111111" type="curve" smooth="yes"/>
      <point x="442.9438870956791" y="312.6378254432103"/>
      <point x="489.36805555555554" y="486.125"/>
      <point x="538.3194444444445" y="654.0833333333334" type="curve"/>
    </contour>
  </outline>
</glyph>
<glyph name="V" format="2">
  <advance width="609.1736111111111"/>
  <unicode hex="0056"/>
  <outline>
    <contour>
      <point x="561.1805555555555" y="675.0625" type="curve" smooth="yes"/>
      <point x="561.1805555555555" y="663.8194444444445"/>
      <point x="568.2638888888889" y="655.7361111111111"/>
      <point x="580.4722222222222" y="646.9097222222222" type="curve" smooth="yes"/>
      <point x="600.8611111111111" y="636.5902777777778" type="line" smooth="yes"/>
      <point x="617.665726767702" y="626.7232496286282"/>
      <point x="624.8472222222222" y="612.2708333333334"/>
      <point x="624.8472222222222" y="595.2222222222222" type="curve" smooth="yes"/>
      <point x="624.8472222222222" y="583.5347222222222"/>
      <point x="618.1597222222222" y="564.6319444444445"/>
      <point x="605.7847222222222" y="544.6041666666666" type="curve" smooth="yes"/>
      <point x="315.8888888888889" y="76.30555555555556" type="line"/>
      <point x="347.6666666666667" y="79.0" type="line"/>
      <point x="345.77777777777777" y="249.125"/>
      <point x="343.4583333333333" y="478.05555555555554"/>
      <point x="345.0416666666667" y="575.9722222222222" type="curve" smooth="yes"/>
      <point x="345.56944444444446" y="616.8472222222222"/>
      <point x="362.6041666666667" y="636.7569444444445"/>
      <point x="388.0416666666667" y="642.8472222222222" type="curve" smooth="yes"/>
      <point x="415.8958333333333" y="649.3958333333334" type="line" smooth="yes"/>
      <point x="429.9236111111111" y="652.9930555555555"/>
      <point x="443.0416666666667" y="660.0763888888889"/>
      <point x="443.0416666666667" y="676.4236111111111" type="curve" smooth="yes"/>
      <point x="443.0416666666667" y="691.8263888888889"/>
      <point x="431.28472222222223" y="700.0"/>
      <point x="418.05555555555554" y="700.0" type="curve" smooth="yes"/>
      <point x="201.625" y="700.0" type="line" smooth="yes"/>
      <point x="187.47222222222223" y="700.0"/>
      <point x="175.84722222222223" y="689.2847222222222"/>
      <point x="175.84722222222223" y="675.5347222222222" type="curve" smooth="yes"/>
      <point x="175.84722222222223" y="664.2708333333334"/>
      <point x="178.63194444444446" y="655.8611111111111"/>
      <point x="191.20833333333334" y="649.4305555555555" type="curve" smooth="yes"/>
      <point x="205.48611111111111" y="644.4861111111111"/>
      <point x="220.375" y="624.9027777777778"/>
      <point x="222.40972222222223" y="578.9722222222222" type="curve" smooth="yes"/>
      <point x="228.24305555555554" y="453.55555555555554"/>
      <point x="234.79861111111111" y="154.97222222222223"/>
      <point x="231.72222222222223" y="101.97222222222223" type="curve" smooth="yes"/>
      <point x="230.8125" y="91.35416666666667"/>
      <point x="229.66666666666666" y="84.43055555555556"/>
      <point x="225.72222222222223" y="66.875" type="curve" smooth="yes"/>
      <point x="217.64583333333334" y="34.61805555555556" type="line" smooth="yes"/>
      <point x="212.70138888888889" y="12.868055555555555"/>
      <point x="222.80555555555554" y="0.0"/>
      <point x="244.33333333333334" y="0.0" type="curve" smooth="yes"/>
      <point x="320.94444444444446" y="0.0" type="line" smooth="yes"/>
      <point x="341.2013888888889" y="0.0"/>
      <point x="359.5833333333333" y="10.375"/>
      <point x="364.0" y="31.069444444444443" type="curve" smooth="yes"/>
      <point x="372.59027777777777" y="61.27777777777778" type="line" smooth="yes"/>
      <point x="377.59027777777777" y="81.20138888888889"/>
      <point x="386.22222222222223" y="95.4375"/>
      <point x="395.1111111111111" y="110.36111111111111" type="curve" smooth="yes"/>
      <point x="670.5069444444445" y="547.1666666666666" type="line" smooth="yes"/>
      <point x="707.7860995530286" y="605.9374904341851"/>
      <point x="730.4112037720902" y="626.8297883793274"/>
      <point x="755.375" y="635.2569444444445" type="curve" smooth="yes"/>
      <point x="780.3342025891953" y="644.4156411101847"/>
      <point x="787.7083333333334" y="654.5625"/>
      <point x="787.7083333333334" y="670.3263888888889" type="curve" smooth="yes"/>
      <point x="787.7083333333334" y="691.1388888888889"/>
      <point x="777.5376984126984" y="700.0"/>
      <point x="755.0694444444445" y="700.0" type="curve" smooth="yes"/>
      <point x="585.7638888888889" y="700.0" type="line" smooth="yes"/>
      <point x="572.5" y="700.0"/>
      <point x="561.1805555555555" y="689.3194444444445"/>
    </contour>
  </outline>
</glyph>
<glyph name="W" format="2">
  <advance width="957.5555555555555"/>
  <unicode hex="0057"/>
  <anchor x="681.25" y="739.0" name="center"/>
  <outline>
    <contour>
      <point x="607.2569444444445" y="579.4305555555555" type="line"/>
      <point x="305.9236111111111" y="86.875" type="line"/>
      <point x="341.56944444444446" y="90.25" type="line"/>
      <point x="342.9990384835573" y="250.40245918059458"/>
      <point x="340.8888888888889" y="481.9583333333333"/>
      <point x="342.77777777777777" y="584.9722222222222" type="curve" smooth="yes"/>
      <point x="342.6875" y="624.5416666666666"/>
      <point x="360.8888888888889" y="640.7569444444445"/>
      <point x="409.77777777777777" y="648.9236111111111" type="curve" smooth="yes"/>
      <point x="429.1666666666667" y="652.3402777777778"/>
      <point x="438.3611111111111" y="663.9482323232323"/>
      <point x="438.3611111111111" y="677.9305555555555" type="curve" smooth="yes"/>
      <point x="438.3611111111111" y="693.3333333333334"/>
      <point x="428.00694444444446" y="700.0"/>
      <point x="407.8611111111111" y="700.0" type="curve" smooth="yes"/>
      <point x="199.75694444444446" y="700.0" type="line" smooth="yes"/>
      <point x="185.40277777777777" y="700.0"/>
      <point x="175.55555555555554" y="690.8819444444445"/>
      <point x="175.55555555555554" y="677.0208333333334" type="curve" smooth="yes"/>
      <point x="175.55555555555554" y="664.3935723514212"/>
      <point x="181.08632718258283" y="656.4854403174373"/>
      <point x="189.5" y="651.6944444444445" type="curve" smooth="yes"/>
      <point x="209.15010250795572" y="642.0055012866378"/>
      <point x="219.89007566092354" y="622.0857812998169"/>
      <point x="220.90277777777777" y="592.1388888888889" type="curve" smooth="yes"/>
      <point x="225.57875135428145" y="429.6299431201786"/>
      <point x="229.86111111111111" y="212.60416666666666"/>
      <point x="226.63888888888889" y="102.75" type="curve" smooth="yes"/>
      <point x="226.20138888888889" y="81.44444444444444"/>
      <point x="209.58333333333334" y="45.41955266955267"/>
      <point x="209.58333333333334" y="24.444444444444443" type="curve" smooth="yes"/>
      <point x="209.58333333333334" y="9.777777777777779"/>
      <point x="214.52777777777777" y="0.0"/>
      <point x="230.36111111111111" y="0.0" type="curve" smooth="yes"/>
      <point x="316.3125" y="0.0" type="line" smooth="yes"/>
      <point x="332.03472222222223" y="0.0"/>
      <point x="342.28472222222223" y="10.777777777777779"/>
      <point x="346.75694444444446" y="26.61111111111111" type="curve" smooth="yes"/>
      <point x="359.21660574086457" y="71.56400763935325"/>
      <point x="368.44176350820754" y="93.12883280717834"/>
      <point x="382.53472222222223" y="115.91666666666667" type="curve" smooth="yes"/>
      <point x="633.0486111111111" y="525.1666666666666" type="line"/>
    </contour>
    <contour>
      <point x="918.4236111111111" y="676.1527777777778" type="curve" smooth="yes"/>
      <point x="918.4236111111111" y="664.7140151515151"/>
      <point x="925.2916666666666" y="655.1527777777778"/>
      <point x="942.9236111111111" y="644.0" type="curve" smooth="yes"/>
      <point x="968.8541666666666" y="632.8333333333334"/>
      <point x="980.9652777777778" y="614.6527777777778"/>
      <point x="981.4375" y="598.4166666666666" type="curve" smooth="yes"/>
      <point x="981.9097222222222" y="584.8107638888889"/>
      <point x="977.9721883283516" y="567.653433104169"/>
      <point x="967.125" y="549.75" type="curve" smooth="yes"/>
      <point x="688.9375" y="86.3125" type="line"/>
      <point x="726.6319444444445" y="90.25" type="line"/>
      <point x="719.2152777777778" y="229.90277777777777"/>
      <point x="715.3402777777778" y="474.0416666666667"/>
      <point x="713.0902777777778" y="578.6388888888889" type="curve" smooth="yes"/>
      <point x="712.5277777777778" y="620.9097222222222"/>
      <point x="730.2569444444445" y="636.4930555555555"/>
      <point x="775.4375" y="645.4027777777778" type="curve" smooth="yes"/>
      <point x="797.8263888888889" y="651.8333333333334"/>
      <point x="803.5347222222222" y="664.3275862068965"/>
      <point x="803.5347222222222" y="678.9305555555555" type="curve" smooth="yes"/>
      <point x="803.5347222222222" y="693.2277777777778"/>
      <point x="796.2469135802469" y="700.0"/>
      <point x="774.5972222222222" y="700.0" type="curve" smooth="yes"/>
      <point x="572.4097222222222" y="700.0" type="line" smooth="yes"/>
      <point x="559.9652777777778" y="700.0"/>
      <point x="548.5" y="691.8263888888889"/>
      <point x="547.4652777777778" y="677.5138888888889" type="curve" smooth="yes"/>
      <point x="546.4305555555555" y="666.3055555555555"/>
      <point x="550.6909614722304" y="657.4661485208313"/>
      <point x="563.2430555555555" y="650.5555555555555" type="curve" smooth="yes"/>
      <point x="582.5897717508384" y="641.704987617846"/>
      <point x="594.3163530926621" y="628.7551066746397"/>
      <point x="597.2430555555555" y="591.6111111111111" type="curve" smooth="yes"/>
      <point x="607.1838514717908" y="444.9833980103532"/>
      <point x="611.9930555555555" y="276.7361111111111"/>
      <point x="614.2430555555555" y="113.80555555555556" type="curve" smooth="yes"/>
      <point x="614.8055555555555" y="82.33333333333333"/>
      <point x="594.2430555555555" y="45.22222222222222"/>
      <point x="594.2430555555555" y="25.38888888888889" type="curve" smooth="yes"/>
      <point x="594.2430555555555" y="10.25"/>
      <point x="602.6041666666666" y="0.0"/>
      <point x="616.8541666666666" y="0.0" type="curve" smooth="yes"/>
      <point x="703.3125" y="0.0" type="line" smooth="yes"/>
      <point x="718.1964869281046" y="0.0"/>
      <point x="731.1180555555555" y="10.194444444444445"/>
      <point x="734.6458333333334" y="29.27777777777778" type="curve" smooth="yes"/>
      <point x="743.9236111111111" y="70.61111111111111"/>
      <point x="749.9513888888889" y="96.79166666666667"/>
      <point x="761.3125" y="114.91666666666667" type="curve" smooth="yes"/>
      <point x="1026.6666666666667" y="551.0" type="line" smooth="yes"/>
      <point x="1061.0967174437385" y="607.791396615028"/>
      <point x="1086.5780467928257" y="628.8661091638378"/>
      <point x="1112.6319444444443" y="638.6388888888889" type="curve" smooth="yes"/>
      <point x="1135.35320266575" y="647.4342483806904"/>
      <point x="1142.298611111111" y="656.8041666666667"/>
      <point x="1142.298611111111" y="670.5486111111111" type="curve" smooth="yes"/>
      <point x="1142.298611111111" y="690.5208333333334"/>
      <point x="1129.7152777777778" y="700.0"/>
      <point x="1106.2708333333333" y="700.0" type="curve" smooth="yes"/>
      <point x="939.7013888888889" y="700.0" type="line" smooth="yes"/>
      <point x="927.4861111111111" y="700.0"/>
      <point x="918.4236111111111" y="689.8472222222222"/>
    </contour>
  </outline>
</glyph>
<glyph name="Y" format="2">
  <advance width="595.3333333333334"/>
  <unicode hex="0059"/>
  <anchor x="474.7638888888889" y="748.0" name="center"/>
  <outline>
    <contour>
      <point x="387.0138888888889" y="241.25694444444446" type="curve"/>
      <point x="395.8263888888889" y="233.28472222222223" type="line"/>
      <point x="397.8790704807028" y="241.35641109410355"/>
      <point x="397.1388888888889" y="290.5343913207344"/>
      <point x="397.1388888888889" y="330.75" type="curve" smooth="yes"/>
      <point x="397.1388888888889" y="482.6842150392658"/>
      <point x="376.9464229869543" y="594.09116019848"/>
      <point x="343.90277777777777" y="658.8680555555555" type="curve" smooth="yes"/>
      <point x="324.4252783923672" y="694.252982107417"/>
      <point x="294.6312017927872" y="712.8125"/>
      <point x="237.80555555555554" y="712.8125" type="curve" smooth="yes"/>
      <point x="193.8510101010101" y="712.8125"/>
      <point x="169.72222222222223" y="703.7263321995465"/>
      <point x="169.72222222222223" y="685.6111111111111" type="curve" smooth="yes"/>
      <point x="169.72222222222223" y="672.3424873737374"/>
      <point x="179.47971822717125" y="662.1379640726993"/>
      <point x="198.06944444444446" y="658.2569444444445" type="curve" smooth="yes"/>
      <point x="254.94363653166153" y="647.9908035377488"/>
      <point x="291.9861111111111" y="526.0963216458533"/>
      <point x="296.2083333333333" y="291.63194444444446" type="curve" smooth="yes"/>
      <point x="297.2638888888889" y="233.9375"/>
      <point x="293.4156769423164" y="210.06548554704332"/>
      <point x="287.9583333333333" y="186.5625" type="curve" smooth="yes"/>
      <point x="269.96527777777777" y="107.89583333333333" type="line" smooth="yes"/>
      <point x="263.0208333333333" y="76.91666666666667"/>
      <point x="243.89583333333334" y="60.28472222222222"/>
      <point x="216.20833333333334" y="54.28472222222222" type="curve" smooth="yes"/>
      <point x="181.40972222222223" y="46.24305555555556" type="line" smooth="yes"/>
      <point x="165.93055555555554" y="42.736111111111114"/>
      <point x="155.25" y="35.875"/>
      <point x="155.08333333333334" y="22.15972222222222" type="curve" smooth="yes"/>
      <point x="154.82638888888889" y="7.229166666666666"/>
      <point x="161.36805555555554" y="0.0"/>
      <point x="178.31944444444446" y="0.0" type="curve" smooth="yes"/>
      <point x="439.43055555555554" y="0.0" type="line" smooth="yes"/>
      <point x="457.4375" y="0.0"/>
      <point x="470.2638888888889" y="6.666666666666666"/>
      <point x="471.0486111111111" y="22.15972222222222" type="curve" smooth="yes"/>
      <point x="471.74305555555554" y="35.84027777777778"/>
      <point x="466.50694444444446" y="37.56944444444444"/>
      <point x="449.7916666666667" y="43.888888888888886" type="curve" smooth="yes"/>
      <point x="422.30555555555554" y="51.541666666666664" type="line" smooth="yes"/>
      <point x="399.21527777777777" y="58.826388888888886"/>
      <point x="392.8333333333333" y="82.56944444444444"/>
      <point x="398.2708333333333" y="111.1875" type="curve" smooth="yes"/>
      <point x="411.1736111111111" y="180.375" type="line" smooth="yes"/>
      <point x="417.2083333333333" y="214.6875"/>
      <point x="429.0486111111111" y="253.6875"/>
      <point x="474.2361111111111" y="341.5" type="curve" smooth="yes"/>
      <point x="570.5069444444445" y="535.9375"/>
      <point x="622.395684036309" y="606.9305555555555"/>
      <point x="656.4166666666666" y="606.9305555555555" type="curve" smooth="yes"/>
      <point x="679.1041666666666" y="606.9305555555555"/>
      <point x="697.3194444444445" y="583.6527777777778"/>
      <point x="725.5694444444445" y="583.6527777777778" type="curve" smooth="yes"/>
      <point x="761.0" y="583.6527777777778"/>
      <point x="792.2708333333334" y="609.1319444444445"/>
      <point x="792.2708333333334" y="645.1527777777778" type="curve" smooth="yes"/>
      <point x="792.2708333333334" y="678.2569444444445"/>
      <point x="770.3541666666666" y="712.3611111111111"/>
      <point x="722.4861111111111" y="712.3611111111111" type="curve" smooth="yes"/>
      <point x="629.4342978395061" y="712.3611111111111"/>
      <point x="532.8263888888889" y="603.9513888888889"/>
    </contour>
  </outline>
</glyph>
<glyph name="bracketleft" format="2">
  <advance width="373.3125"/>
  <unicode hex="005B"/>
  <outline>
    <contour>
      <point x="396.1875" y="659.125" type="line" smooth="yes"/>
      <point x="402.875" y="684.3125"/>
      <point x="428.625" y="704.375"/>
      <point x="452.8125" y="704.375" type="curve" smooth="yes"/>
      <point x="515.9375" y="704.375" type="line" smooth="yes"/>
      <point x="540.8125" y="704.375"/>
      <point x="551.75" y="711.625"/>
      <point x="556.4375" y="728.6875" type="curve" smooth="yes"/>
      <point x="560.0" y="742.625"/>
      <point x="554.75" y="756.0"/>
      <point x="531.875" y="756.0" type="curve" smooth="yes"/>
      <point x="363.0" y="756.0" type="line" smooth="yes"/>
      <point x="333.8125" y="756.0"/>
      <point x="304.0625" y="728.9375"/>
      <point x="294.9375" y="695.75" type="curve" smooth="yes"/>
      <point x="77.5625" y="-116.75" type="line" smooth="yes"/>
      <point x="68.4375" y="-149.9375"/>
      <point x="83.8125" y="-177.0"/>
      <point x="113.0" y="-177.0" type="curve" smooth="yes"/>
      <point x="281.875" y="-177.0" type="line" smooth="yes"/>
      <point x="304.75" y="-177.0"/>
      <point x="317.25" y="-163.0625"/>
      <point x="320.8125" y="-149.6875" type="curve" smooth="yes"/>
      <point x="325.5" y="-132.625"/>
      <point x="317.6875" y="-125.375"/>
      <point x="292.8125" y="-125.375" type="curve" smooth="yes"/>
      <point x="229.6875" y="-125.375" type="line" smooth="yes"/>
      <point x="205.5" y="-125.375"/>
      <point x="191.5625" y="-105.3125"/>
      <point x="198.25" y="-80.125" type="curve" smooth="yes"/>
    </contour>
  </outline>
</glyph>
<glyph name="backslash" format="2">
  <advance width="420.0"/>
  <unicode hex="005C"/>
  <outline>
    <contour>
      <point x="225.9375" y="690.75" type="curve" smooth="yes"/>
      <point x="223.9375" y="702.75"/>
      <point x="223.9375" y="712.75"/>
      <point x="225.9375" y="720.75" type="curve" smooth="yes"/>
      <point x="233.625" y="748.5"/>
      <point x="258.8125" y="767.0"/>
      <point x="283.0" y="767.0" type="curve" smooth="yes"/>
      <point x="308.625" y="767.0"/>
      <point x="319.4375" y="744.375"/>
      <point x="318.4375" y="720.75" type="curve" smooth="yes"/>
      <point x="314.875" y="626.75"/>
      <point x="311.5" y="491.75"/>
      <point x="321.6875" y="344.125" type="curve" smooth="yes"/>
      <point x="332.5625" y="187.5625"/>
      <point x="360.3125" y="63.75"/>
      <point x="372.0625" y="-26.75" type="curve" smooth="yes"/>
      <point x="374.5" y="-44.75"/>
      <point x="373.0625" y="-55.75"/>
      <point x="370.625" y="-65.75" type="curve" smooth="yes"/>
      <point x="365.375" y="-85.375"/>
      <point x="342.1875" y="-106.0"/>
      <point x="319.0" y="-106.0" type="curve" smooth="yes"/>
      <point x="293.9375" y="-106.0"/>
      <point x="275.0" y="-89.625"/>
      <point x="276.125" y="-50.75" type="curve" smooth="yes"/>
      <point x="279.4375" y="39.375"/>
      <point x="286.6875" y="156.1875"/>
      <point x="276.875" y="327.875" type="curve" smooth="yes"/>
      <point x="269.375" y="484.6875"/>
      <point x="241.125" y="606.9375"/>
    </contour>
  </outline>
</glyph>
<glyph name="a" format="2">
  <advance width="486.2708333333333"/>
  <unicode hex="0061"/>
  <anchor x="378.94444444444446" y="520.0" name="center"/>
  <outline>
    <contour>
      <point x="436.7638888888889" y="95.59027777777777" type="curve" smooth="yes"/>
      <point x="436.9577061022414" y="120.60062709079503"/>
      <point x="446.64193063132814" y="166.54341915313844"/>
      <point x="486.68055555555554" y="324.84722222222223" type="curve" smooth="yes"/>
      <point x="491.2901166753095" y="347.09237087006534"/>
      <point x="500.8263888888889" y="359.61805555555554"/>
      <point x="512.6180555555555" y="369.68055555555554" type="curve" smooth="yes"/>
      <point x="523.2291666666666" y="379.0"/>
      <point x="531.9652777777778" y="390.42123538011697"/>
      <point x="531.9652777777778" y="404.3888888888889" type="curve" smooth="yes"/>
      <point x="531.9652777777778" y="441.317281420765"/>
      <point x="494.8888888888889" y="464.5138888888889"/>
      <point x="418.88194444444446" y="464.5138888888889" type="curve" smooth="yes"/>
      <point x="227.49895178197065" y="464.5138888888889"/>
      <point x="69.74305555555556" y="268.4166666666667"/>
      <point x="69.74305555555556" y="102.95138888888889" type="curve" smooth="yes"/>
      <point x="69.74305555555556" y="17.916666666666668"/>
      <point x="106.10416666666667" y="-12.36111111111111"/>
      <point x="162.40972222222223" y="-12.36111111111111" type="curve" smooth="yes"/>
      <point x="235.71527777777777" y="-12.36111111111111"/>
      <point x="323.24305555555554" y="57.15277777777777"/>
      <point x="383.30555555555554" y="188.13888888888889" type="curve"/>
      <point x="360.93055555555554" y="191.71527777777777" type="line"/>
      <point x="353.90277777777777" y="124.64583333333333"/>
      <point x="337.7638888888889" y="86.83553921568628"/>
      <point x="337.5833333333333" y="47.923611111111114" type="curve" smooth="yes"/>
      <point x="337.40277777777777" y="12.208333333333334"/>
      <point x="365.02777777777777" y="-12.833333333333332"/>
      <point x="403.84722222222223" y="-12.833333333333332" type="curve" smooth="yes"/>
      <point x="471.5138888888889" y="-12.833333333333332"/>
      <point x="512.4027777777778" y="35.75694444444444"/>
      <point x="512.4930555555555" y="85.25" type="curve" smooth="yes"/>
      <point x="512.4930555555555" y="101.28472222222223"/>
      <point x="507.44444444444446" y="107.54861111111111"/>
      <point x="499.8333333333333" y="107.54861111111111" type="curve" smooth="yes"/>
      <point x="493.49305555555554" y="107.54861111111111"/>
      <point x="489.9861111111111" y="104.75"/>
      <point x="486.71527777777777" y="100.25694444444444" type="curve" smooth="yes"/>
      <point x="481.9513888888889" y="81.16666666666667"/>
      <point x="471.47222222222223" y="69.97916666666667"/>
      <point x="455.47222222222223" y="69.97916666666667" type="curve" smooth="yes"/>
      <point x="442.81944444444446" y="69.97916666666667"/>
      <point x="436.6736111111111" y="80.0"/>
    </contour>
    <contour>
      <point x="169.04166666666666" y="147.44444444444446" type="curve" smooth="yes"/>
      <point x="169.04166666666666" y="283.53472222222223"/>
      <point x="263.1299846625767" y="397.97222222222223"/>
      <point x="354.2708333333333" y="397.97222222222223" type="curve" smooth="yes"/>
      <point x="382.94444444444446" y="397.97222222222223"/>
      <point x="396.5416666666667" y="379.6041666666667"/>
      <point x="396.5416666666667" y="339.3333333333333" type="curve" smooth="yes"/>
      <point x="396.5416666666667" y="221.45338191330345"/>
      <point x="291.7361111111111" y="70.44444444444444"/>
      <point x="226.22222222222223" y="70.44444444444444" type="curve" smooth="yes"/>
      <point x="190.02083333333334" y="70.44444444444444"/>
      <point x="169.04166666666666" y="93.32638888888889"/>
    </contour>
  </outline>
</glyph>
<glyph name="b" format="2">
  <advance width="487.49305555555554"/>
  <unicode hex="0062"/>
  <outline>
    <contour>
      <point x="298.6736111111111" y="516.2777777777778" type="line" smooth="yes"/>
      <point x="327.78644612045434" y="618.547982198905"/>
      <point x="354.4744543650794" y="659.0972222222222"/>
      <point x="400.05555555555554" y="659.0972222222222" type="curve" smooth="yes"/>
      <point x="442.15277777777777" y="659.0972222222222"/>
      <point x="499.40972222222223" y="606.6041666666666"/>
      <point x="546.4791666666666" y="606.6041666666666" type="curve" smooth="yes"/>
      <point x="587.4097222222222" y="606.6041666666666"/>
      <point x="610.375" y="633.2986111111111"/>
      <point x="610.375" y="658.9930555555555" type="curve" smooth="yes"/>
      <point x="610.375" y="694.4027777777778"/>
      <point x="579.3541666666666" y="721.1875"/>
      <point x="515.0694444444445" y="721.1875" type="curve" smooth="yes"/>
      <point x="337.6666666666667" y="721.1875"/>
      <point x="237.03472222222223" y="623.1875"/>
      <point x="190.85416666666666" y="470.7013888888889" type="curve" smooth="yes"/>
      <point x="71.60416666666667" y="77.17361111111111" type="line" smooth="yes"/>
      <point x="60.97983570959994" y="43.90801993480882"/>
      <point x="57.416666666666664" y="29.699964387464387"/>
      <point x="57.416666666666664" y="16.11111111111111" type="curve" smooth="yes"/>
      <point x="57.416666666666664" y="-1.6944444444444446"/>
      <point x="66.9811507936508" y="-12.270833333333332"/>
      <point x="78.77083333333333" y="-12.270833333333332" type="curve" smooth="yes"/>
      <point x="93.11616161616162" y="-12.270833333333332"/>
      <point x="103.8125" y="-6.166666666666667"/>
      <point x="115.63888888888889" y="13.902777777777777" type="curve" smooth="yes"/>
      <point x="168.02777777777777" y="88.28472222222223" type="line"/>
      <point x="107.25694444444444" y="118.44444444444444" type="line"/>
      <point x="120.75694444444444" y="22.444444444444443"/>
      <point x="167.281037414966" y="-12.36111111111111"/>
      <point x="240.66666666666666" y="-12.36111111111111" type="curve" smooth="yes"/>
      <point x="379.5172612708555" y="-12.36111111111111"/>
      <point x="540.2847222222222" y="142.68055555555554"/>
      <point x="540.2847222222222" y="329.9375" type="curve" smooth="yes"/>
      <point x="540.2847222222222" y="429.11805555555554"/>
      <point x="498.1622277462121" y="464.5138888888889"/>
      <point x="437.94444444444446" y="464.5138888888889" type="curve" smooth="yes"/>
      <point x="340.0239296131676" y="464.5138888888889"/>
      <point x="247.56361306686458" y="368.10649483253894"/>
      <point x="197.97916666666666" y="233.89583333333334" type="curve"/>
      <point x="224.48611111111111" y="253.20833333333334" type="line"/>
    </contour>
    <contour>
      <point x="369.02777777777777" y="385.3541666666667" type="curve" smooth="yes"/>
      <point x="405.8333333333333" y="385.3541666666667"/>
      <point x="432.2013888888889" y="356.97222222222223"/>
      <point x="432.2013888888889" y="296.46527777777777" type="curve" smooth="yes"/>
      <point x="432.2013888888889" y="134.17467700258396"/>
      <point x="343.4667875753338" y="37.39583333333333"/>
      <point x="272.4236111111111" y="37.39583333333333" type="curve" smooth="yes"/>
      <point x="226.3121087636933" y="37.39583333333333"/>
      <point x="199.0" y="69.64058265582656"/>
      <point x="199.0" y="126.32638888888889" type="curve" smooth="yes"/>
      <point x="199.0" y="232.30022446689114"/>
      <point x="303.12647306397304" y="385.3541666666667"/>
    </contour>
  </outline>
</glyph>
<glyph name="f" format="2">
  <advance width="275.6875"/>
  <unicode hex="0066"/>
  <outline>
    <contour>
      <point x="245.16666666666666" y="394.34027777777777" type="line"/>
      <point x="348.65277777777777" y="394.34027777777777" type="line" smooth="yes"/>
      <point x="368.99305555555554" y="394.34027777777777"/>
      <point x="381.63194444444446" y="403.40277777777777"/>
      <point x="381.63194444444446" y="419.1111111111111" type="curve" smooth="yes"/>
      <point x="381.63194444444446" y="433.6388888888889"/>
      <point x="372.2986111111111" y="440.34027777777777"/>
      <point x="354.1388888888889" y="440.34027777777777" type="curve" smooth="yes"/>
      <point x="255.77083333333334" y="440.34027777777777" type="line"/>
    </contour>
    <contour>
      <point x="108.13194444444444" y="420.74305555555554" type="curve" smooth="yes"/>
      <point x="108.13194444444444" y="412.3854166666667"/>
      <point x="113.49305555555556" y="401.38194444444446"/>
      <point x="124.94444444444444" y="397.5486111111111" type="curve" smooth="yes"/>
      <point x="163.38888888888889" y="386.5138888888889"/>
      <point x="173.4040998794511" y="362.36064789823024"/>
      <point x="164.38888888888889" y="332.3541666666667" type="curve" smooth="yes"/>
      <point x="45.25694444444444" y="-70.89583333333333" type="line" smooth="yes"/>
      <point x="35.78472222222222" y="-104.02083333333333"/>
      <point x="29.53472222222222" y="-123.85416666666667"/>
      <point x="30.006944444444443" y="-149.08333333333334" type="curve" smooth="yes"/>
      <point x="31.51388888888889" y="-180.84027777777777"/>
      <point x="49.28472222222222" y="-198.29861111111111"/>
      <point x="80.82638888888889" y="-198.29861111111111" type="curve" smooth="yes"/>
      <point x="128.04861111111111" y="-198.29861111111111"/>
      <point x="175.90277777777777" y="-168.73611111111111"/>
      <point x="175.90277777777777" y="-128.92361111111111" type="curve" smooth="yes"/>
      <point x="175.90277777777777" y="-100.19444444444444"/>
      <point x="154.76388888888889" y="-90.9375"/>
      <point x="154.76388888888889" y="-61.49305555555556" type="curve" smooth="yes"/>
      <point x="154.76388888888889" y="-48.96527777777778"/>
      <point x="156.29166666666666" y="-32.4375"/>
      <point x="162.81944444444446" y="-9.381944444444446" type="curve" smooth="yes"/>
      <point x="288.9375" y="426.375" type="line" smooth="yes"/>
      <point x="305.34027777777777" y="482.47222222222223"/>
      <point x="265.90972222222223" y="508.51240907145916"/>
      <point x="265.90972222222223" y="581.7986111111111" type="curve" smooth="yes"/>
      <point x="265.90972222222223" y="629.0708420684836"/>
      <point x="292.8225552171773" y="654.0486111111111"/>
      <point x="328.19444444444446" y="654.0486111111111" type="curve" smooth="yes"/>
      <point x="372.17546609780203" y="654.0486111111111"/>
      <point x="394.51113959075246" y="604.4444444444445"/>
      <point x="440.31944444444446" y="604.4444444444445" type="curve" smooth="yes"/>
      <point x="478.203022875817" y="604.4444444444445"/>
      <point x="498.1736111111111" y="629.5586419753087"/>
      <point x="498.1736111111111" y="659.0972222222222" type="curve" smooth="yes"/>
      <point x="498.1736111111111" y="692.2145061728395"/>
      <point x="467.85546808329065" y="720.5347222222222"/>
      <point x="408.5416666666667" y="720.5347222222222" type="curve" smooth="yes"/>
      <point x="299.99146666242257" y="720.5347222222222"/>
      <point x="215.25852378598802" y="652.1452961376852"/>
      <point x="200.43055555555554" y="514.1527777777778" type="curve" smooth="yes"/>
      <point x="192.18055555555554" y="440.34027777777777" type="line"/>
      <point x="132.77777777777777" y="440.34027777777777" type="line" smooth="yes"/>
      <point x="117.87777777777778" y="440.34027777777777"/>
      <point x="108.13194444444444" y="432.3125"/>
    </contour>
  </outline>
</glyph>
<glyph name="n" format="2">
  <advance width="515.2152777777778"/>
  <unicode hex="006E"/>
  <outline>
    <contour>
      <point x="116.85416666666667" y="342.1041666666667" type="curve" smooth="yes"/>
      <point x="124.73611111111111" y="342.1041666666667"/>
      <point x="130.00694444444446" y="344.21527777777777"/>
      <point x="135.90972222222223" y="352.6458333333333" type="curve" smooth="yes"/>
      <point x="143.73611111111111" y="376.15972222222223"/>
      <point x="160.78472222222223" y="387.625"/>
      <point x="174.63194444444446" y="387.625" type="curve" smooth="yes"/>
      <point x="184.70833333333334" y="387.625"/>
      <point x="191.79861111111111" y="375.5"/>
      <point x="191.70833333333334" y="361.86805555555554" type="curve" smooth="yes"/>
      <point x="191.61805555555554" y="347.93055555555554"/>
      <point x="188.74305555555554" y="334.1388888888889"/>
      <point x="180.8125" y="314.4375" type="curve" smooth="yes"/>
      <point x="90.76388888888889" y="91.15972222222223" type="line" smooth="yes"/>
      <point x="81.69444444444444" y="68.58333333333333"/>
      <point x="74.59027777777777" y="49.30520833333333"/>
      <point x="74.9375" y="28.92361111111111" type="curve" smooth="yes"/>
      <point x="75.375" y="0.6319444444444444"/>
      <point x="92.99392361111111" y="-12.36111111111111"/>
      <point x="123.35416666666666" y="-12.36111111111111" type="curve" smooth="yes"/>
      <point x="172.44444444444446" y="-12.36111111111111"/>
      <point x="212.09722222222223" y="10.930555555555555"/>
      <point x="211.75" y="38.20833333333333" type="curve" smooth="yes"/>
      <point x="211.84027777777777" y="53.05555555555556"/>
      <point x="204.48611111111111" y="71.96527777777777"/>
      <point x="204.13888888888889" y="84.72222222222223" type="curve" smooth="yes"/>
      <point x="203.70138888888889" y="105.32638888888889"/>
      <point x="210.63194444444446" y="135.86111111111111"/>
      <point x="232.07638888888889" y="192.78472222222223" type="curve" smooth="yes"/>
      <point x="282.8100785201376" y="323.6500442159886"/>
      <point x="346.9468896713615" y="383.0486111111111"/>
      <point x="397.7013888888889" y="383.0486111111111" type="curve" smooth="yes"/>
      <point x="417.47222222222223" y="383.0486111111111"/>
      <point x="427.06944444444446" y="370.2638888888889"/>
      <point x="426.8888888888889" y="353.1875" type="curve" smooth="yes"/>
      <point x="426.8888888888889" y="333.86498708010333"/>
      <point x="420.7638888888889" y="311.27777777777777"/>
      <point x="412.2916666666667" y="289.93055555555554" type="curve" smooth="yes"/>
      <point x="347.5763888888889" y="123.31944444444444" type="line" smooth="yes"/>
      <point x="335.03472222222223" y="90.86805555555556"/>
      <point x="330.19444444444446" y="70.90955488621151"/>
      <point x="330.1041666666667" y="46.65277777777778" type="curve" smooth="yes"/>
      <point x="329.9236111111111" y="14.631944444444445"/>
      <point x="357.0138888888889" y="-12.36111111111111"/>
      <point x="405.6736111111111" y="-12.36111111111111" type="curve" smooth="yes"/>
      <point x="480.6458333333333" y="-12.36111111111111"/>
      <point x="532.4791666666666" y="31.145833333333332"/>
      <point x="532.6597222222222" y="81.26388888888889" type="curve" smooth="yes"/>
      <point x="532.75" y="96.73611111111111"/>
      <point x="526.6666666666666" y="104.65277777777777"/>
      <point x="519.1111111111111" y="104.65277777777777" type="curve" smooth="yes"/>
      <point x="514.1875" y="104.65277777777777"/>
      <point x="508.6111111111111" y="102.32638888888889"/>
      <point x="505.5208333333333" y="96.92361111111111" type="curve" smooth="yes"/>
      <point x="497.6666666666667" y="73.52777777777777"/>
      <point x="483.40277777777777" y="66.75694444444444"/>
      <point x="468.3958333333333" y="66.75694444444444" type="curve" smooth="yes"/>
      <point x="456.6458333333333" y="66.75694444444444"/>
      <point x="447.8958333333333" y="76.01388888888889"/>
      <point x="447.9861111111111" y="94.88888888888889" type="curve" smooth="yes"/>
      <point x="448.1666666666667" y="110.32638888888889"/>
      <point x="451.1875" y="123.93055555555556"/>
      <point x="455.8263888888889" y="136.46527777777777" type="curve" smooth="yes"/>
      <point x="512.3194444444445" y="289.18055555555554" type="line" smooth="yes"/>
      <point x="527.6111111111111" y="330.13194444444446"/>
      <point x="537.3611111111111" y="356.9513888888889"/>
      <point x="537.3611111111111" y="392.90277777777777" type="curve" smooth="yes"/>
      <point x="537.3611111111111" y="435.0"/>
      <point x="514.4652777777778" y="464.5138888888889"/>
      <point x="469.5763888888889" y="464.5138888888889" type="curve" smooth="yes"/>
      <point x="394.0138888888889" y="464.5138888888889"/>
      <point x="310.125" y="402.6875"/>
      <point x="226.16666666666666" y="252.22222222222223" type="curve"/>
      <point x="259.36805555555554" y="277.65972222222223" type="line"/>
      <point x="264.11805555555554" y="314.68055555555554"/>
      <point x="297.25694444444446" y="371.9375"/>
      <point x="297.25694444444446" y="409.375" type="curve" smooth="yes"/>
      <point x="297.25694444444446" y="445.31944444444446"/>
      <point x="271.59722222222223" y="464.5138888888889"/>
      <point x="234.86805555555554" y="464.5138888888889" type="curve" smooth="yes"/>
      <point x="163.68055555555554" y="464.5138888888889"/>
      <point x="100.70833333333333" y="403.4236111111111"/>
      <point x="100.4375" y="363.2986111111111" type="curve" smooth="yes"/>
      <point x="100.4375" y="349.27777777777777"/>
      <point x="108.29861111111111" y="342.1041666666667"/>
    </contour>
  </outline>
</glyph>
<glyph name="o" format="2">
  <advance width="461.2986111111111"/>
  <unicode hex="006F"/>
  <outline>
    <contour>
      <point x="357.4861111111111" y="464.5138888888889" type="curve" smooth="yes"/>
      <point x="197.80555555555554" y="464.5138888888889"/>
      <point x="73.10416666666667" y="296.74305555555554"/>
      <point x="73.10416666666667" y="160.38888888888889" type="curve" smooth="yes"/>
      <point x="73.10416666666667" y="50.875"/>
      <point x="131.5625" y="-12.36111111111111"/>
      <point x="219.40972222222223" y="-12.36111111111111" type="curve" smooth="yes"/>
      <point x="366.86805555555554" y="-12.36111111111111"/>
      <point x="509.6041666666667" y="136.54166666666666"/>
      <point x="509.6041666666667" y="299.9861111111111" type="curve" smooth="yes"/>
      <point x="509.6041666666667" y="405.90972222222223"/>
      <point x="452.2638888888889" y="464.5138888888889"/>
    </contour>
    <contour>
      <point x="249.53472222222223" y="45.576388888888886" type="curve" smooth="yes"/>
      <point x="211.3945895522388" y="45.576388888888886"/>
      <point x="188.52777777777777" y="76.1746369949495"/>
      <point x="188.52777777777777" y="153.95138888888889" type="curve" smooth="yes"/>
      <point x="188.52777777777777" y="290.9594945355191"/>
      <point x="271.90337989723827" y="412.68055555555554"/>
      <point x="332.3958333333333" y="412.68055555555554" type="curve" smooth="yes"/>
      <point x="371.33194444444445" y="412.68055555555554"/>
      <point x="392.03472222222223" y="383.2456790123457"/>
      <point x="392.03472222222223" y="313.11805555555554" type="curve" smooth="yes"/>
      <point x="392.03472222222223" y="155.88263201320132"/>
      <point x="307.7627111760884" y="45.576388888888886"/>
    </contour>
  </outline>
</glyph>
<glyph name="q" format="2">
  <advance width="452.7361111111111"/>
  <unicode hex="0071"/>
  <outline>
    <contour>
      <point x="170.72916666666666" y="143.375" type="curve" smooth="yes"/>
      <point x="170.72916666666666" y="287.0656378600823"/>
      <point x="266.5217545351474" y="397.97222222222223"/>
      <point x="355.2361111111111" y="397.97222222222223" type="curve" smooth="yes"/>
      <point x="382.68953544061304" y="397.97222222222223"/>
      <point x="398.375" y="376.31346393034823"/>
      <point x="398.375" y="342.0833333333333" type="curve" smooth="yes"/>
      <point x="398.375" y="252.87514133876073"/>
      <point x="308.52245787951534" y="71.79166666666667"/>
      <point x="223.61805555555554" y="71.79166666666667" type="curve" smooth="yes"/>
      <point x="190.4933943089431" y="71.79166666666667"/>
      <point x="170.72916666666666" y="94.31944444444444"/>
    </contour>
    <contour>
      <point x="365.56944444444446" y="184.44444444444446" type="line"/>
      <point x="273.59027777777777" y="-133.36111111111111" type="line" smooth="yes"/>
      <point x="266.31195945357194" y="-157.72982052319443"/>
      <point x="250.05512134465738" y="-176.29176315797736"/>
      <point x="211.39583333333331" y="-187.13888888888889" type="curve" smooth="yes"/>
      <point x="193.38862905777333" y="-192.988940855112"/>
      <point x="186.86805555555554" y="-203.91666666666666"/>
      <point x="186.86805555555554" y="-212.54861111111111" type="curve" smooth="yes"/>
      <point x="186.86805555555554" y="-226.0652777777778"/>
      <point x="194.11805555555554" y="-232.54861111111111"/>
      <point x="206.5625" y="-232.63888888888889" type="curve" smooth="yes"/>
      <point x="386.50694444444446" y="-226.05555555555554" type="line" smooth="yes"/>
      <point x="398.11805555555554" y="-226.14583333333334"/>
      <point x="406.36805555555554" y="-219.27777777777777"/>
      <point x="406.36805555555554" y="-206.70833333333334" type="curve" smooth="yes"/>
      <point x="406.36805555555554" y="-200.09722222222223"/>
      <point x="402.2083333333333" y="-192.39583333333334"/>
      <point x="396.46527777777777" y="-189.47222222222223" type="curve" smooth="yes"/>
      <point x="376.81944444444446" y="-183.90972222222223"/>
      <point x="365.0625" y="-172.61111111111111"/>
      <point x="365.0625" y="-155.41666666666666" type="curve" smooth="yes"/>
      <point x="365.0625" y="-142.05555555555554"/>
      <point x="367.53472222222223" y="-127.16666666666666"/>
      <point x="374.00694444444446" y="-102.86111111111111" type="curve" smooth="yes"/>
      <point x="486.47222222222223" y="322.97222222222223" type="line" smooth="yes"/>
      <point x="495.3958333333333" y="358.375"/>
      <point x="531.9652777777778" y="375.80555555555554"/>
      <point x="531.9652777777778" y="400.72222222222223" type="curve" smooth="yes"/>
      <point x="531.9652777777778" y="441.5486111111111"/>
      <point x="495.74305555555554" y="463.9513888888889"/>
      <point x="428.24305555555554" y="463.9513888888889" type="curve" smooth="yes"/>
      <point x="231.22916666666666" y="463.9513888888889"/>
      <point x="69.77777777777777" y="282.3333333333333"/>
      <point x="69.77777777777777" y="97.66666666666667" type="curve" smooth="yes"/>
      <point x="69.77777777777777" y="24.430555555555557"/>
      <point x="103.94444444444444" y="-12.36111111111111"/>
      <point x="159.31944444444446" y="-12.36111111111111" type="curve" smooth="yes"/>
      <point x="233.25694444444446" y="-12.36111111111111"/>
      <point x="327.1388888888889" y="57.201388888888886"/>
      <point x="378.2986111111111" y="175.33333333333331" type="curve"/>
    </contour>
  </outline>
</glyph>
<glyph name="r" format="2">
  <advance width="369.6736111111111"/>
  <unicode hex="0072"/>
  <outline>
    <contour>
      <point x="120.54166666666667" y="346.3263888888889" type="curve" smooth="yes"/>
      <point x="125.84722222222223" y="346.3263888888889"/>
      <point x="131.71527777777777" y="348.61805555555554"/>
      <point x="137.58333333333334" y="357.2708333333333" type="curve" smooth="yes"/>
      <point x="147.07638888888889" y="379.9791666666667"/>
      <point x="159.52083333333334" y="390.7013888888889"/>
      <point x="175.02777777777777" y="390.7013888888889" type="curve" smooth="yes"/>
      <point x="186.94444444444446" y="390.7013888888889"/>
      <point x="192.97916666666666" y="380.09722222222223"/>
      <point x="192.97916666666666" y="359.5" type="curve" smooth="yes"/>
      <point x="192.97916666666666" y="342.90972222222223"/>
      <point x="187.34027777777777" y="326.11805555555554"/>
      <point x="176.38888888888889" y="296.02777777777777" type="curve" smooth="yes"/>
      <point x="117.13194444444444" y="135.875" type="line" smooth="yes"/>
      <point x="100.93055555555556" y="92.0"/>
      <point x="92.66666666666666" y="67.25694444444444"/>
      <point x="92.66666666666666" y="39.791666666666664" type="curve" smooth="yes"/>
      <point x="92.66666666666666" y="10.979166666666666"/>
      <point x="109.47222222222223" y="-12.36111111111111"/>
      <point x="144.08333333333334" y="-12.36111111111111" type="curve" smooth="yes"/>
      <point x="197.48611111111111" y="-12.36111111111111"/>
      <point x="238.875" y="14.368055555555555"/>
      <point x="238.875" y="46.61805555555556" type="curve" smooth="yes"/>
      <point x="238.875" y="71.32512626262627"/>
      <point x="218.09027777777777" y="90.93055555555556"/>
      <point x="218.09027777777777" y="126.15277777777777" type="curve" smooth="yes"/>
      <point x="218.09027777777777" y="146.22222222222223"/>
      <point x="222.16666666666666" y="173.19444444444446"/>
      <point x="234.79861111111111" y="200.11805555555554" type="curve" smooth="yes"/>
      <point x="287.605972637718" y="317.99086394750424"/>
      <point x="321.6442307692308" y="349.15277777777777"/>
      <point x="349.6111111111111" y="349.15277777777777" type="curve" smooth="yes"/>
      <point x="372.093820861678" y="349.15277777777777"/>
      <point x="390.2237811791383" y="320.9375"/>
      <point x="414.8958333333333" y="320.9375" type="curve" smooth="yes"/>
      <point x="446.3541666666667" y="320.9375"/>
      <point x="472.68055555555554" y="350.0496031746032"/>
      <point x="472.68055555555554" y="396.1666666666667" type="curve" smooth="yes"/>
      <point x="472.68055555555554" y="440.9127604166667"/>
      <point x="447.8125" y="464.5138888888889"/>
      <point x="414.5486111111111" y="464.5138888888889" type="curve" smooth="yes"/>
      <point x="357.74305555555554" y="464.5138888888889"/>
      <point x="296.8333333333333" y="418.8333333333333"/>
      <point x="199.13194444444446" y="192.54166666666666" type="curve"/>
      <point x="206.44444444444446" y="203.56944444444446"/>
      <point x="207.84027777777777" y="184.49305555555554"/>
      <point x="207.84027777777777" y="184.40277777777777" type="curve" smooth="yes"/>
      <point x="228.95138888888889" y="268.6666666666667"/>
      <point x="276.5486111111111" y="362.3125"/>
      <point x="276.5486111111111" y="417.1388888888889" type="curve" smooth="yes"/>
      <point x="276.5486111111111" y="448.84722222222223"/>
      <point x="260.1388888888889" y="464.5138888888889"/>
      <point x="227.59722222222223" y="464.5138888888889" type="curve" smooth="yes"/>
      <point x="165.28472222222223" y="464.5138888888889"/>
      <point x="101.52777777777777" y="403.6458333333333"/>
      <point x="101.52777777777777" y="368.50694444444446" type="curve" smooth="yes"/>
      <point x="101.52777777777777" y="353.9375"/>
      <point x="109.26388888888889" y="346.3263888888889"/>
    </contour>
  </outline>
</glyph>
<glyph name="t" format="2">
  <advance width="312.4861111111111"/>
  <unicode hex="0074"/>
  <outline>
    <contour>
      <point x="152.18055555555554" y="382.2638888888889" type="line" smooth="yes"/>
      <point x="164.98571751985486" y="375.29922575943704"/>
      <point x="172.29166666666666" y="368.34027777777777"/>
      <point x="172.29166666666666" y="353.38194444444446" type="curve" smooth="yes"/>
      <point x="172.29166666666666" y="343.97888321995464"/>
      <point x="167.64516819531468" y="330.7833507592051"/>
      <point x="163.58333333333334" y="318.5416666666667" type="curve" smooth="yes"/>
      <point x="111.39583333333333" y="165.80555555555554" type="line" smooth="yes"/>
      <point x="91.66666666666666" y="106.36805555555556"/>
      <point x="85.34027777777777" y="84.42361111111111"/>
      <point x="85.34027777777777" y="57.75" type="curve" smooth="yes"/>
      <point x="85.34027777777777" y="17.708333333333332"/>
      <point x="116.05779190207156" y="-12.36111111111111"/>
      <point x="166.54861111111111" y="-12.36111111111111" type="curve" smooth="yes"/>
      <point x="272.16958227311284" y="-12.36111111111111"/>
      <point x="331.6736111111111" y="58.05555555555556"/>
      <point x="331.6736111111111" y="103.56944444444444" type="curve" smooth="yes"/>
      <point x="331.6736111111111" y="112.21527777777777"/>
      <point x="328.69444444444446" y="118.26388888888889"/>
      <point x="317.50694444444446" y="118.26388888888889" type="curve" smooth="yes"/>
      <point x="311.5486111111111" y="118.26388888888889"/>
      <point x="305.68055555555554" y="115.59027777777777"/>
      <point x="299.59722222222223" y="108.45138888888889" type="curve" smooth="yes"/>
      <point x="286.2271521441092" y="81.376311703596"/>
      <point x="264.8249158249158" y="66.0"/>
      <point x="233.70833333333334" y="66.0" type="curve" smooth="yes"/>
      <point x="213.7962962962963" y="66.0"/>
      <point x="202.75" y="85.16064814814816"/>
      <point x="202.75" y="106.61805555555556" type="curve" smooth="yes"/>
      <point x="202.75" y="121.10763888888889"/>
      <point x="206.02106736621835" y="139.77548832383772"/>
      <point x="222.625" y="187.84027777777777" type="curve" smooth="yes"/>
      <point x="310.6041666666667" y="445.99305555555554" type="line" smooth="yes"/>
      <point x="322.19319679432914" y="480.89295309214066"/>
      <point x="331.375" y="505.57456140350877"/>
      <point x="331.375" y="525.4513888888889" type="curve" smooth="yes"/>
      <point x="331.375" y="538.0763888888889"/>
      <point x="323.7638888888889" y="548.25"/>
      <point x="312.1388888888889" y="548.25" type="curve" smooth="yes"/>
      <point x="296.0486111111111" y="548.25"/>
      <point x="280.6458333333333" y="540.0902777777778"/>
      <point x="267.4166666666667" y="525.9513888888889" type="curve" smooth="yes"/>
      <point x="213.24305555555554" y="465.375" type="line" smooth="yes"/>
      <point x="197.20138888888889" y="447.3333333333333"/>
      <point x="181.51388888888889" y="441.3541666666667"/>
      <point x="164.8125" y="441.3541666666667" type="curve" smooth="yes"/>
      <point x="138.29861111111111" y="441.3541666666667" type="line" smooth="yes"/>
      <point x="123.70833333333333" y="441.3541666666667"/>
      <point x="112.69444444444444" y="431.6388888888889"/>
      <point x="112.69444444444444" y="420.3611111111111" type="curve" smooth="yes"/>
      <point x="112.69444444444444" y="409.27916666666664"/>
      <point x="117.52777777777777" y="401.8541666666667"/>
      <point x="126.9375" y="395.3888888888889" type="curve" smooth="yes"/>
    </contour>
    <contour>
      <point x="233.54861111111111" y="395.43055555555554" type="line"/>
      <point x="233.54861111111111" y="395.43055555555554"/>
      <point x="355.3261494252874" y="395.43055555555554"/>
      <point x="379.5486111111111" y="395.43055555555554" type="curve" smooth="yes"/>
      <point x="398.17901234567904" y="395.43055555555554"/>
      <point x="411.7291666666667" y="403.7291666666667"/>
      <point x="412.0208333333333" y="421.77777777777777" type="curve" smooth="yes"/>
      <point x="412.5215543326363" y="434.0321037735955"/>
      <point x="407.2027777777778" y="440.90277777777777"/>
      <point x="392.81944444444446" y="440.90277777777777" type="curve" smooth="yes"/>
      <point x="375.59209770114944" y="440.90277777777777"/>
      <point x="251.98611111111111" y="440.90277777777777"/>
      <point x="251.98611111111111" y="440.90277777777777" type="curve"/>
    </contour>
  </outline>
</glyph>
<glyph name="braceleft" format="2">
  <advance width="425.875"/>
  <unicode hex="007B"/>
  <outline>
    <contour>
      <point x="307.125" y="289.0" type="curve" smooth="yes"/>
      <point x="309.6875" y="297.25"/>
      <point x="318.5" y="304.5"/>
      <point x="328.875" y="304.5" type="curve" smooth="yes"/>
      <point x="362.75" y="304.5"/>
      <point x="394.1875" y="337.1875"/>
      <point x="406.3125" y="383.4375" type="curve" smooth="yes"/>
      <point x="427.1875" y="460.625"/>
      <point x="392.6875" y="527.8125"/>
      <point x="411.125" y="598.0" type="curve" smooth="yes"/>
      <point x="426.875" y="656.0"/>
      <point x="481.375" y="702.25"/>
      <point x="531.5625" y="702.25" type="curve" smooth="yes"/>
      <point x="564.6875" y="702.25" type="line" smooth="yes"/>
      <point x="585.4375" y="702.25"/>
      <point x="601.5" y="712.0625"/>
      <point x="606.1875" y="729.125" type="curve" smooth="yes"/>
      <point x="610.3125" y="743.625"/>
      <point x="602.5" y="755.0"/>
      <point x="580.625" y="755.0" type="curve" smooth="yes"/>
      <point x="517.375" y="755.0" type="line" smooth="yes"/>
      <point x="406.375" y="755.0"/>
      <point x="310.375" y="692.0"/>
      <point x="286.375" y="600.0" type="curve" smooth="yes"/>
      <point x="261.5" y="507.625"/>
      <point x="330.25" y="448.0"/>
      <point x="309.9375" y="373.0625" type="curve" smooth="yes"/>
      <point x="302.8125" y="345.25"/>
      <point x="275.0" y="330.0"/>
      <point x="248.5625" y="329.4375" type="curve" smooth="yes"/>
      <point x="223.375" y="329.4375"/>
      <point x="211.625" y="346.375"/>
      <point x="185.4375" y="346.375" type="curve" smooth="yes"/>
      <point x="159.0625" y="346.375"/>
      <point x="128.6875" y="318.875"/>
      <point x="121.4375" y="290.0" type="curve" smooth="yes"/>
      <point x="113.1875" y="258.5625"/>
      <point x="126.75" y="233.625"/>
      <point x="156.5625" y="233.625" type="curve" smooth="yes"/>
      <point x="184.0" y="233.625"/>
      <point x="206.375" y="250.5625"/>
      <point x="228.1875" y="250.5625" type="curve" smooth="yes"/>
      <point x="256.0625" y="250.0"/>
      <point x="271.625" y="231.1875"/>
      <point x="264.0625" y="201.9375" type="curve" smooth="yes"/>
      <point x="245.1875" y="131.4375"/>
      <point x="143.6875" y="69.8125"/>
      <point x="117.375" y="-30.0" type="curve" smooth="yes"/>
      <point x="93.375" y="-120.0"/>
      <point x="154.375" y="-185.0"/>
      <point x="265.375" y="-185.0" type="curve" smooth="yes"/>
      <point x="328.625" y="-185.0" type="line" smooth="yes"/>
      <point x="350.5" y="-185.0"/>
      <point x="365.0" y="-170.5"/>
      <point x="368.125" y="-159.125" type="curve" smooth="yes"/>
      <point x="373.25" y="-139.5"/>
      <point x="361.875" y="-132.25"/>
      <point x="341.125" y="-132.25" type="curve" smooth="yes"/>
      <point x="308.0" y="-132.25" type="line" smooth="yes"/>
      <point x="257.8125" y="-132.25"/>
      <point x="228.375" y="-84.5625"/>
      <point x="243.125" y="-28.0" type="curve" smooth="yes"/>
      <point x="263.5625" y="47.1875"/>
      <point x="335.375" y="118.375"/>
      <point x="355.25" y="192.5625" type="curve" smooth="yes"/>
      <point x="366.8125" y="237.25"/>
      <point x="357.375" y="273.9375"/>
      <point x="320.5" y="273.9375" type="curve" smooth="yes"/>
      <point x="310.125" y="273.9375"/>
      <point x="305.0" y="278.625"/>
    </contour>
  </outline>
</glyph>
<glyph name="bar" format="2">
  <advance width="357.0"/>
  <unicode hex="007C"/>
  <outline>
    <contour>
      <point x="310.0625" y="694.125" type="curve" smooth="yes"/>
      <point x="290.625" y="577.9375"/>
      <point x="243.75" y="343.625"/>
      <point x="222.875" y="265.0" type="curve" smooth="yes"/>
      <point x="198.0" y="171.375"/>
      <point x="121.5" y="-52.9375"/>
      <point x="78.625" y="-170.125" type="curve" smooth="yes"/>
      <point x="75.625" y="-178.125"/>
      <point x="73.625" y="-185.125"/>
      <point x="71.625" y="-193.125" type="curve" smooth="yes"/>
      <point x="61.8125" y="-228.25"/>
      <point x="78.4375" y="-250.0"/>
      <point x="111.0" y="-250.0" type="curve" smooth="yes"/>
      <point x="143.6875" y="-250.0"/>
      <point x="168.5625" y="-228.25"/>
      <point x="177.375" y="-196.125" type="curve" smooth="yes"/>
      <point x="179.375" y="-187.125"/>
      <point x="182.375" y="-178.125"/>
      <point x="184.375" y="-167.125" type="curve" smooth="yes"/>
      <point x="208.8125" y="-50.0625"/>
      <point x="247.25" y="164.9375"/>
      <point x="273.125" y="263.0" type="curve" smooth="yes"/>
      <point x="293.5625" y="336.1875"/>
      <point x="372.9375" y="579.375"/>
      <point x="410.375" y="693.125" type="curve" smooth="yes"/>
      <point x="415.375" y="707.125"/>
      <point x="415.375" y="708.125"/>
      <point x="416.375" y="710.125" type="curve" smooth="yes"/>
      <point x="424.1875" y="740.6875"/>
      <point x="411.6875" y="765.0"/>
      <point x="380.0" y="765.0" type="curve" smooth="yes"/>
      <point x="349.875" y="765.0"/>
      <point x="323.4375" y="743.8125"/>
      <point x="313.625" y="708.125" type="curve" smooth="yes"/>
      <point x="312.625" y="704.125"/>
      <point x="311.625" y="699.125"/>
    </contour>
  </outline>
</glyph>
<glyph name="cent" format="2">
  <advance width="436.375"/>
  <unicode hex="00A2"/>
  <outline>
    <contour>
      <point x="200.3125" y="32.5625" type="curve" smooth="yes"/>
      <point x="191.0625" y="-0.75"/>
      <point x="207.0" y="-16.4375"/>
      <point x="229.1875" y="-16.4375" type="curve" smooth="yes"/>
      <point x="254.6875" y="-16.4375"/>
      <point x="278.3125" y="3.0625"/>
      <point x="286.875" y="32.5625" type="curve" smooth="yes"/>
      <point x="296.75" y="69.0"/>
      <point x="282.125" y="112.4375"/>
      <point x="342.0" y="335.375" type="curve" smooth="yes"/>
      <point x="395.875" y="537.5625"/>
      <point x="434.0" y="575.125"/>
      <point x="443.0" y="609.4375" type="curve" smooth="yes"/>
      <point x="451.6875" y="641.75"/>
      <point x="434.1875" y="658.4375"/>
      <point x="412.6875" y="658.4375" type="curve" smooth="yes"/>
      <point x="389.0625" y="658.4375"/>
      <point x="363.5625" y="642.75"/>
      <point x="355.3125" y="611.4375" type="curve" smooth="yes"/>
      <point x="346.875" y="580.5625"/>
      <point x="365.4375" y="541.5625"/>
      <point x="310.5625" y="335.375" type="curve" smooth="yes"/>
      <point x="250.6875" y="114.4375"/>
      <point x="209.75" y="69.0"/>
    </contour>
    <contour>
      <point x="517.3125" y="430.8125" type="curve" smooth="yes"/>
      <point x="534.125" y="494.5"/>
      <point x="487.3125" y="541.3125"/>
      <point x="404.5" y="541.3125" type="curve" smooth="yes"/>
      <point x="274.9375" y="541.3125"/>
      <point x="153.625" y="445.0"/>
      <point x="118.5" y="313.625" type="curve" smooth="yes"/>
      <point x="87.375" y="198.5625"/>
      <point x="150.4375" y="113.9375"/>
      <point x="263.3125" y="113.9375" type="curve" smooth="yes"/>
      <point x="356.125" y="113.9375"/>
      <point x="443.625" y="172.6875"/>
      <point x="458.5625" y="228.3125" type="curve" smooth="yes"/>
      <point x="461.6875" y="241.9375"/>
      <point x="457.0" y="251.0"/>
      <point x="446.75" y="251.0" type="curve" smooth="yes"/>
      <point x="438.0625" y="251.0"/>
      <point x="428.25" y="246.4375"/>
      <point x="410.75" y="233.9375" type="curve" smooth="yes"/>
      <point x="388.875" y="216.5"/>
      <point x="360.1875" y="205.1875"/>
      <point x="320.1875" y="205.1875" type="curve" smooth="yes"/>
      <point x="245.25" y="205.1875"/>
      <point x="201.5" y="266.875"/>
      <point x="224.6875" y="354.75" type="curve" smooth="yes"/>
      <point x="244.5625" y="427.5625"/>
      <point x="302.625" y="483.75"/>
      <point x="363.0625" y="483.75" type="curve" smooth="yes"/>
      <point x="402.125" y="483.75"/>
      <point x="421.3125" y="467.1875"/>
      <point x="414.75" y="444.0625" type="curve" smooth="yes"/>
      <point x="411.75" y="431.0625" type="line" smooth="yes"/>
      <point x="402.5" y="397.1875"/>
      <point x="419.1875" y="372.875"/>
      <point x="449.9375" y="372.875" type="curve" smooth="yes"/>
      <point x="479.125" y="372.875"/>
      <point x="508.625" y="398.5"/>
    </contour>
  </outline>
</glyph>
<glyph name="sterling" format="2">
  <advance width="555.625"/>
  <unicode hex="00A3"/>
  <outline>
    <contour>
      <point x="140.0625" y="314.375" type="curve" smooth="yes"/>
      <point x="135.9375" y="298.0"/>
      <point x="142.625" y="287.75"/>
      <point x="159.5625" y="287.75" type="curve" smooth="yes"/>
      <point x="448.5625" y="287.75" type="line" smooth="yes"/>
      <point x="465.5" y="287.75"/>
      <point x="479.3125" y="298.0"/>
      <point x="483.4375" y="314.375" type="curve" smooth="yes"/>
      <point x="488.0" y="330.3125"/>
      <point x="479.875" y="341.5625"/>
      <point x="462.9375" y="341.5625" type="curve" smooth="yes"/>
      <point x="174.9375" y="341.5625" type="line" smooth="yes"/>
      <point x="159.0" y="341.5625"/>
      <point x="144.625" y="330.3125"/>
    </contour>
    <contour>
      <point x="145.6875" y="102.1875" type="curve" smooth="yes"/>
      <point x="213.875" y="102.1875"/>
      <point x="268.875" y="-15.0"/>
      <point x="390.625" y="-15.0" type="curve" smooth="yes"/>
      <point x="474.1875" y="-15.0"/>
      <point x="540.1875" y="40.125"/>
      <point x="566.5625" y="138.75" type="curve" smooth="yes"/>
      <point x="572.8125" y="161.5"/>
      <point x="563.5625" y="174.4375"/>
      <point x="548.1875" y="174.4375" type="curve" smooth="yes"/>
      <point x="530.9375" y="174.4375"/>
      <point x="516.875" y="160.0625"/>
      <point x="505.9375" y="143.5625" type="curve" smooth="yes"/>
      <point x="484.0" y="110.1875"/>
      <point x="455.8125" y="91.5"/>
      <point x="404.1875" y="91.5" type="curve" smooth="yes"/>
      <point x="340.0" y="91.5"/>
      <point x="269.0625" y="168.9375"/>
      <point x="179.1875" y="168.9375" type="curve" smooth="yes"/>
      <point x="110.5625" y="168.9375"/>
      <point x="54.1875" y="129.8125"/>
      <point x="39.625" y="74.4375" type="curve" smooth="yes"/>
      <point x="24.9375" y="21.375"/>
      <point x="59.4375" y="-15.0"/>
      <point x="128.3125" y="-15.0" type="curve" smooth="yes"/>
      <point x="188.8125" y="-15.0"/>
      <point x="269.0625" y="27.125"/>
      <point x="293.4375" y="118.5" type="curve" smooth="yes"/>
      <point x="322.4375" y="226.0625"/>
      <point x="327.1875" y="349.6875"/>
      <point x="362.5" y="481.0625" type="curve" smooth="yes"/>
      <point x="386.625" y="570.0"/>
      <point x="423.9375" y="608.125"/>
      <point x="474.25" y="608.125" type="curve" smooth="yes"/>
      <point x="505.4375" y="608.125"/>
      <point x="523.1875" y="590.0"/>
      <point x="513.0625" y="551.625" type="curve" smooth="yes"/>
      <point x="506.625" y="527.625" type="line" smooth="yes"/>
      <point x="495.375" y="484.75"/>
      <point x="518.875" y="455.125"/>
      <point x="554.625" y="455.125" type="curve" smooth="yes"/>
      <point x="597.5" y="455.125"/>
      <point x="631.125" y="481.0625"/>
      <point x="643.8125" y="526.9375" type="curve" smooth="yes"/>
      <point x="664.0625" y="602.25"/>
      <point x="622.875" y="658.3125"/>
      <point x="501.4375" y="658.3125" type="curve" smooth="yes"/>
      <point x="375.375" y="658.3125"/>
      <point x="267.0625" y="580.9375"/>
      <point x="232.9375" y="453.4375" type="curve" smooth="yes"/>
      <point x="201.3125" y="334.5625"/>
      <point x="264.1875" y="215.75"/>
      <point x="238.1875" y="119.625" type="curve" smooth="yes"/>
      <point x="219.25" y="50.0"/>
      <point x="178.3125" y="25.9375"/>
      <point x="139.5" y="25.9375" type="curve" smooth="yes"/>
      <point x="103.75" y="25.9375"/>
      <point x="84.375" y="43.125"/>
      <point x="90.8125" y="66.5625" type="curve" smooth="yes"/>
      <point x="96.25" y="87.4375"/>
      <point x="116.125" y="102.1875"/>
    </contour>
  </outline>
</glyph>
<glyph name="currency" format="2">
  <advance width="516.5"/>
  <unicode hex="00A4"/>
  <outline>
    <contour>
      <point x="295.4375" y="143.4375" type="curve" smooth="yes"/>
      <point x="195.8125" y="143.4375"/>
      <point x="137.5625" y="227.9375"/>
      <point x="163.6875" y="326.0" type="curve" smooth="yes"/>
      <point x="190.8125" y="425.0625"/>
      <point x="293.4375" y="506.5625"/>
      <point x="393.0625" y="506.5625" type="curve" smooth="yes"/>
      <point x="494.6875" y="506.5625"/>
      <point x="552.9375" y="425.0625"/>
      <point x="525.8125" y="326.0" type="curve" smooth="yes"/>
      <point x="499.6875" y="227.9375"/>
      <point x="397.0625" y="143.4375"/>
    </contour>
    <contour>
      <point x="317.9375" y="221.1875" type="curve" smooth="yes"/>
      <point x="373.5625" y="221.1875"/>
      <point x="433.625" y="267.375"/>
      <point x="449.0625" y="326.0" type="curve" smooth="yes"/>
      <point x="464.9375" y="384.625"/>
      <point x="429.1875" y="429.8125"/>
      <point x="373.5625" y="429.8125" type="curve" smooth="yes"/>
      <point x="314.9375" y="429.8125"/>
      <point x="258.3125" y="384.625"/>
      <point x="242.4375" y="326.0" type="curve" smooth="yes"/>
      <point x="227.0" y="267.375"/>
      <point x="259.3125" y="221.1875"/>
    </contour>
    <contour>
      <point x="200.375" y="527.6875" type="curve" smooth="yes"/>
      <point x="215.625" y="539.9375"/>
      <point x="234.8125" y="538.6875"/>
      <point x="245.9375" y="524.3125" type="curve" smooth="yes"/>
      <point x="302.0625" y="447.1875" type="line"/>
      <point x="246.0625" y="402.875" type="line"/>
      <point x="189.375" y="478.4375" type="line" smooth="yes"/>
      <point x="178.5625" y="492.25"/>
      <point x="181.4375" y="513.4375"/>
    </contour>
    <contour>
      <point x="479.0" y="396.875" type="line"/>
      <point x="445.375" y="441.3125" type="line"/>
      <point x="552.1875" y="525.0" type="line" smooth="yes"/>
      <point x="570.125" y="539.375"/>
      <point x="589.625" y="540.5"/>
      <point x="599.75" y="526.6875" type="curve" smooth="yes"/>
      <point x="609.0" y="513.4375"/>
      <point x="603.75" y="495.5"/>
      <point x="584.6875" y="480.5625" type="curve" smooth="yes"/>
    </contour>
    <contour>
      <point x="445.6875" y="249.3125" type="line"/>
      <point x="500.4375" y="175.6875" type="line" smooth="yes"/>
      <point x="511.8125" y="160.1875"/>
      <point x="508.375" y="139.4375"/>
      <point x="493.125" y="127.3125" type="curve" smooth="yes"/>
      <point x="474.1875" y="113.5"/>
      <point x="455.25" y="115.1875"/>
      <point x="445.0" y="129.5625" type="curve" smooth="yes"/>
      <point x="392.375" y="202.75" type="line"/>
    </contour>
    <contour>
      <point x="92.75" y="126.3125" type="curve" smooth="yes"/>
      <point x="83.625" y="140.5625"/>
      <point x="89.3125" y="160.0625"/>
      <point x="107.8125" y="174.4375" type="curve" smooth="yes"/>
      <point x="207.9375" y="253.5625" type="line"/>
      <point x="235.5" y="205.1875" type="line"/>
      <point x="139.4375" y="129.125" type="line" smooth="yes"/>
      <point x="121.625" y="115.3125"/>
      <point x="100.75" y="114.0625"/>
    </contour>
  </outline>
</glyph>
<glyph name="yen" format="2">
  <advance width="589.875"/>
  <unicode hex="00A5"/>
  <outline>
    <contour>
      <point x="583.875" y="185.0" type="curve" smooth="yes"/>
      <point x="608.875" y="185.0"/>
      <point x="623.875" y="198.0"/>
      <point x="626.875" y="212.0" type="curve" smooth="yes"/>
      <point x="631.875" y="231.0"/>
      <point x="623.875" y="244.0"/>
      <point x="599.875" y="245.0" type="curve" smooth="yes"/>
      <point x="570.0524577683541" y="245.9620174913434"/>
      <point x="530.6126425855514" y="230.0"/>
      <point x="346.875" y="230.0" type="curve" smooth="yes"/>
      <point x="174.375" y="230.0"/>
      <point x="146.58333333333334" y="242.0"/>
      <point x="116.875" y="242.0" type="curve" smooth="yes"/>
      <point x="92.875" y="242.0"/>
      <point x="76.875" y="225.0"/>
      <point x="71.875" y="208.0" type="curve" smooth="yes"/>
      <point x="67.875" y="194.0"/>
      <point x="75.875" y="181.0"/>
      <point x="98.875" y="181.0" type="curve" smooth="yes"/>
      <point x="124.78629032258064" y="181.0"/>
      <point x="161.2540322580645" y="193.0"/>
      <point x="336.875" y="193.0" type="curve" smooth="yes"/>
      <point x="519.4820038910506" y="193.0"/>
      <point x="554.0812256809338" y="185.0"/>
    </contour>
    <contour>
      <point x="314.4375" y="335.8125" type="line"/>
      <point x="195.2273035657387" y="338.23239885091374"/>
      <point x="170.68103872085402" y="347.375"/>
      <point x="145.1875" y="347.375" type="curve" smooth="yes"/>
      <point x="121.1875" y="347.375"/>
      <point x="105.1875" y="330.375"/>
      <point x="100.1875" y="313.375" type="curve" smooth="yes"/>
      <point x="96.75" y="299.375"/>
      <point x="104.1875" y="286.375"/>
      <point x="127.1875" y="286.375" type="curve" smooth="yes"/>
      <point x="150.98047166728904" y="286.375"/>
      <point x="182.92131828064757" y="296.4715443244051"/>
      <point x="324.3125" y="298.375" type="curve"/>
    </contour>
    <contour>
      <point x="612.1875" y="290.375" type="curve" smooth="yes"/>
      <point x="637.1875" y="290.375"/>
      <point x="651.75" y="303.375"/>
      <point x="655.1875" y="317.375" type="curve" smooth="yes"/>
      <point x="660.1875" y="336.375"/>
      <point x="652.1875" y="349.375"/>
      <point x="628.1875" y="350.375" type="curve" smooth="yes"/>
      <point x="603.2716660421814" y="351.432454501286"/>
      <point x="572.9262032126156" y="341.93215241696953"/>
      <point x="466.375" y="337.5" type="curve"/>
      <point x="435.0" y="297.8125" type="line"/>
      <point x="554.8792253643743" y="295.62587547515164"/>
      <point x="585.7547750424449" y="290.375"/>
    </contour>
    <component base="Y" xScale="0.9186557820007362" yScale="0.9186557820007362" xOffset="19.1875"/>
  </outline>
</glyph>
<glyph name="brokenbar" format="2">
  <advance width="360.9375"/>
  <unicode hex="00A6"/>
  <outline>
    <contour>
      <point x="416.9375" y="727.8125" type="line" smooth="yes"/>
      <point x="422.625" y="750.0"/>
      <point x="416.375" y="770.0625"/>
      <point x="389.5" y="771.625" type="curve" smooth="yes"/>
      <point x="363.625" y="773.1875"/>
      <point x="342.0" y="751.5625"/>
      <point x="336.3125" y="727.8125" type="curve" smooth="yes"/>
      <point x="235.6875" y="353.75" type="line" smooth="yes"/>
      <point x="229.5625" y="330.0"/>
      <point x="238.8125" y="308.375"/>
      <point x="265.6875" y="309.9375" type="curve" smooth="yes"/>
      <point x="293.5625" y="311.5"/>
      <point x="310.625" y="331.5625"/>
      <point x="316.3125" y="353.75" type="curve" smooth="yes"/>
    </contour>
    <contour>
      <point x="266.375" y="167.25" type="line" smooth="yes"/>
      <point x="272.0625" y="189.4375"/>
      <point x="266.375" y="209.5"/>
      <point x="239.5" y="211.0625" type="curve" smooth="yes"/>
      <point x="213.1875" y="212.625"/>
      <point x="192.0" y="191.0"/>
      <point x="185.75" y="167.25" type="curve" smooth="yes"/>
      <point x="85.6875" y="-206.8125" type="line" smooth="yes"/>
      <point x="79.0" y="-230.5625"/>
      <point x="88.8125" y="-252.1875"/>
      <point x="115.6875" y="-250.625" type="curve" smooth="yes"/>
      <point x="143.5625" y="-249.0625"/>
      <point x="160.625" y="-229.0"/>
      <point x="166.3125" y="-206.8125" type="curve" smooth="yes"/>
    </contour>
  </outline>
</glyph>
<glyph name="section" format="2">
  <advance width="530.25"/>
  <unicode hex="00A7"/>
  <outline>
    <contour>
      <point x="395.3125" y="36.3125" type="line"/>
      <point x="485.0625" y="70.5625"/>
      <point x="540.5625" y="139.25"/>
      <point x="540.5625" y="215.625" type="curve" smooth="yes"/>
      <point x="540.5625" y="290.625"/>
      <point x="502.5625" y="341.0625"/>
      <point x="420.5625" y="393.625" type="curve" smooth="yes"/>
      <point x="350.875" y="440.375"/>
      <point x="311.5625" y="482.625"/>
      <point x="311.5625" y="538.625" type="curve" smooth="yes"/>
      <point x="311.5625" y="598.2009615384616"/>
      <point x="365.9375" y="653.75"/>
      <point x="439.875" y="653.75" type="curve" smooth="yes"/>
      <point x="481.0625" y="653.75"/>
      <point x="507.5625" y="630.5625"/>
      <point x="522.5" y="588.9375" type="curve" smooth="yes"/>
      <point x="538.125" y="543.125" type="line" smooth="yes"/>
      <point x="548.8125" y="509.1875"/>
      <point x="568.5625" y="499.5"/>
      <point x="597.0" y="499.5" type="curve" smooth="yes"/>
      <point x="633.75" y="499.5"/>
      <point x="658.25" y="531.0"/>
      <point x="658.25" y="577.75" type="curve" smooth="yes"/>
      <point x="658.25" y="647.375"/>
      <point x="591.0" y="713.0"/>
      <point x="466.6875" y="713.0" type="curve" smooth="yes"/>
      <point x="298.5" y="713.0"/>
      <point x="200.0625" y="600.3125"/>
      <point x="200.0625" y="497.75" type="curve" smooth="yes"/>
      <point x="200.0625" y="430.375"/>
      <point x="238.0625" y="372.375"/>
      <point x="325.0625" y="314.375" type="curve" smooth="yes"/>
      <point x="393.0625" y="267.375"/>
      <point x="426.0625" y="232.375"/>
      <point x="426.0625" y="180.375" type="curve" smooth="yes"/>
      <point x="426.0625" y="134.4375"/>
      <point x="396.125" y="94.9375"/>
      <point x="353.3125" y="81.625" type="curve"/>
    </contour>
    <contour>
      <point x="226.8125" y="-182.3125" type="curve" smooth="yes"/>
      <point x="186.45296391752578" y="-182.3125"/>
      <point x="154.8494669966373" y="-158.50800425554758"/>
      <point x="138.375" y="-113.4375" type="curve" smooth="yes"/>
      <point x="125.0" y="-76.625" type="line" smooth="yes"/>
      <point x="112.75" y="-39.4375"/>
      <point x="93.75" y="-25.125"/>
      <point x="63.875" y="-25.125" type="curve" smooth="yes"/>
      <point x="31.75" y="-25.125"/>
      <point x="1.5" y="-54.0625"/>
      <point x="1.5" y="-103.9375" type="curve" smooth="yes"/>
      <point x="1.5" y="-177.125"/>
      <point x="72.92307692307692" y="-243.5625"/>
      <point x="198.0" y="-243.5625" type="curve" smooth="yes"/>
      <point x="358.875" y="-243.5625"/>
      <point x="461.25" y="-139.3125"/>
      <point x="461.25" y="-32.8125" type="curve" smooth="yes"/>
      <point x="461.25" y="37.375"/>
      <point x="419.3125" y="89.75"/>
      <point x="330.625" y="150.0" type="curve" smooth="yes"/>
      <point x="261.5" y="198.125"/>
      <point x="229.625" y="232.0"/>
      <point x="229.625" y="284.0" type="curve" smooth="yes"/>
      <point x="229.625" y="329.375"/>
      <point x="261.8125" y="369.4375"/>
      <point x="306.3125" y="382.75" type="curve"/>
      <point x="266.0" y="426.375" type="line"/>
      <point x="176.25" y="391.5625"/>
      <point x="120.75" y="320.625"/>
      <point x="120.75" y="243.125" type="curve" smooth="yes"/>
      <point x="120.75" y="168.125"/>
      <point x="160.4375" y="119.375"/>
      <point x="240.75" y="65.125" type="curve" smooth="yes"/>
      <point x="312.6875" y="13.875"/>
      <point x="345.25" y="-22.75"/>
      <point x="345.25" y="-77.0625" type="curve" smooth="yes"/>
      <point x="345.25" y="-134.5"/>
      <point x="294.6875" y="-182.3125"/>
    </contour>
  </outline>
</glyph>
<glyph name="threesuperior" format="2">
  <advance width="357.875"/>
  <unicode hex="00B3"/>
  <outline>
    <contour>
      <point x="309.3125" y="484.25" type="line"/>
      <point x="454.75" y="602.1875" type="line" smooth="yes"/>
      <point x="471.5" y="616.25"/>
      <point x="479.0" y="627.3125"/>
      <point x="481.125" y="635.6875" type="curve" smooth="yes"/>
      <point x="484.6875" y="649.625"/>
      <point x="479.0" y="658.875"/>
      <point x="459.25" y="658.875" type="curve" smooth="yes"/>
      <point x="270.5625" y="658.875" type="line" smooth="yes"/>
      <point x="250.25" y="658.875"/>
      <point x="235.1875" y="645.625"/>
      <point x="229.0625" y="627.25" type="curve" smooth="yes"/>
      <point x="205.125" y="559.75" type="line" smooth="yes"/>
      <point x="200.0" y="546.375"/>
      <point x="206.6875" y="537.0"/>
      <point x="216.625" y="537.0" type="curve" smooth="yes"/>
      <point x="226.875" y="537.0"/>
      <point x="239.25" y="547.375"/>
      <point x="246.5" y="557.75" type="curve" smooth="yes"/>
      <point x="256.6875" y="570.8125" type="line" smooth="yes"/>
      <point x="270.375" y="588.1875"/>
      <point x="284.3125" y="594.875"/>
      <point x="304.8125" y="594.875" type="curve" smooth="yes"/>
      <point x="413.8125" y="594.875" type="line"/>
      <point x="423.3125" y="629.875" type="line"/>
      <point x="267.9375" y="503.25" type="line" smooth="yes"/>
      <point x="257.8125" y="494.5625"/>
      <point x="250.125" y="487.0"/>
      <point x="248.5625" y="477.75" type="curve" smooth="yes"/>
      <point x="245.0" y="466.0625"/>
      <point x="252.125" y="460.5"/>
      <point x="262.6875" y="460.5" type="curve" smooth="yes"/>
      <point x="287.6875" y="460.5" type="line" smooth="yes"/>
      <point x="327.1875" y="460.5"/>
      <point x="347.9375" y="437.625"/>
      <point x="335.9375" y="392.625" type="curve" smooth="yes"/>
      <point x="326.0625" y="357.6875"/>
      <point x="299.5625" y="335.625"/>
      <point x="269.1875" y="335.625" type="curve" smooth="yes"/>
      <point x="240.4375" y="335.625"/>
      <point x="225.125" y="351.9375"/>
      <point x="231.125" y="373.375" type="curve" smooth="yes"/>
      <point x="235.25" y="389.0" type="line" smooth="yes"/>
      <point x="241.375" y="411.6875"/>
      <point x="226.0" y="428.9375"/>
      <point x="202.1875" y="428.9375" type="curve" smooth="yes"/>
      <point x="176.3125" y="428.9375"/>
      <point x="150.125" y="407.4375"/>
      <point x="143.0" y="380.375" type="curve" smooth="yes"/>
      <point x="129.875" y="332.6875"/>
      <point x="166.8125" y="295.0"/>
      <point x="248.125" y="295.0" type="curve" smooth="yes"/>
      <point x="330.6875" y="295.0"/>
      <point x="404.875" y="338.4375"/>
      <point x="422.3125" y="404.75" type="curve" smooth="yes"/>
      <point x="439.875" y="470.5625"/>
      <point x="395.375" y="502.25"/>
      <point x="310.5" y="502.25" type="curve" smooth="yes"/>
      <point x="308.9375" y="502.25"/>
      <point x="295.9375" y="502.25"/>
      <point x="292.9375" y="502.25" type="curve"/>
    </contour>
  </outline>
</glyph>
<glyph name="multiply" format="2">
  <advance width="443.6875"/>
  <unicode hex="00D7"/>
  <outline>
    <contour>
      <point x="100.375" y="144.125" type="curve" smooth="yes"/>
      <point x="112.3125" y="126.625"/>
      <point x="142.625" y="128.625"/>
      <point x="165.6875" y="147.125" type="curve" smooth="yes"/>
      <point x="220.125" y="190.125"/>
      <point x="278.25" y="251.125"/>
      <point x="318.6875" y="284.125" type="curve" smooth="yes"/>
      <point x="361.6875" y="317.5625"/>
      <point x="431.25" y="357.125"/>
      <point x="482.6875" y="397.125" type="curve" smooth="yes"/>
      <point x="508.3125" y="417.625"/>
      <point x="515.5625" y="444.375"/>
      <point x="502.1875" y="461.4375" type="curve" smooth="yes"/>
      <point x="489.8125" y="479.375"/>
      <point x="461.625" y="479.375"/>
      <point x="436.875" y="459.875" type="curve" smooth="yes"/>
      <point x="385.4375" y="419.875"/>
      <point x="330.4375" y="360.4375"/>
      <point x="287.4375" y="326.875" type="curve" smooth="yes"/>
      <point x="239.875" y="288.875"/>
      <point x="173.875" y="252.875"/>
      <point x="120.4375" y="209.875" type="curve" smooth="yes"/>
      <point x="99.375" y="193.5"/>
      <point x="87.125" y="161.625"/>
    </contour>
    <contour>
      <point x="422.25" y="146.125" type="curve" smooth="yes"/>
      <point x="443.3125" y="163.0625"/>
      <point x="449.0" y="192.375"/>
      <point x="436.1875" y="209.875" type="curve" smooth="yes"/>
      <point x="404.75" y="254.875"/>
      <point x="353.625" y="294.875"/>
      <point x="330.1875" y="327.875" type="curve" smooth="yes"/>
      <point x="305.625" y="360.875"/>
      <point x="282.625" y="419.875"/>
      <point x="252.1875" y="460.875" type="curve" smooth="yes"/>
      <point x="237.8125" y="480.9375"/>
      <point x="210.5" y="480.375"/>
      <point x="189.4375" y="463.875" type="curve" smooth="yes"/>
      <point x="166.8125" y="445.375"/>
      <point x="159.0" y="417.625"/>
      <point x="173.375" y="398.125" type="curve" smooth="yes"/>
      <point x="202.9375" y="357.5625"/>
      <point x="251.9375" y="318.125"/>
      <point x="276.375" y="285.125" type="curve" smooth="yes"/>
      <point x="303.5" y="247.125"/>
      <point x="325.5" y="191.125"/>
      <point x="355.9375" y="148.125" type="curve" smooth="yes"/>
      <point x="368.75" y="131.625"/>
      <point x="399.0625" y="128.625"/>
    </contour>
  </outline>
</glyph>
<glyph name="germandbls" format="2">
  <advance width="564.2152777777778"/>
  <unicode hex="00DF"/>
  <outline>
    <contour>
      <point x="207.25694444444446" y="472.3958333333333" type="curve" smooth="yes"/>
      <point x="198.41666666666666" y="440.90277777777777" type="line"/>
      <point x="135.5" y="440.90277777777777" type="line" smooth="yes"/>
      <point x="119.93055555555556" y="440.90277777777777"/>
      <point x="109.375" y="431.81944444444446"/>
      <point x="109.375" y="419.72222222222223" type="curve" smooth="yes"/>
      <point x="109.375" y="408.9513888888889"/>
      <point x="115.82638888888889" y="397.5833333333333"/>
      <point x="135.08333333333334" y="390.97222222222223" type="curve" smooth="yes"/>
      <point x="166.25" y="383.84027777777777"/>
      <point x="176.58333333333334" y="353.0625"/>
      <point x="166.61805555555554" y="318.52777777777777" type="curve" smooth="yes"/>
      <point x="51.986111111111114" y="-87.29166666666666" type="line" smooth="yes"/>
      <point x="44.0625" y="-115.77083333333334"/>
      <point x="38.270833333333336" y="-128.11111111111111"/>
      <point x="39.270833333333336" y="-151.79166666666666" type="curve" smooth="yes"/>
      <point x="41.30555555555556" y="-181.96527777777777"/>
      <point x="56.93055555555556" y="-198.33333333333334"/>
      <point x="85.23611111111111" y="-198.33333333333334" type="curve" smooth="yes"/>
      <point x="135.76388888888889" y="-198.33333333333334"/>
      <point x="185.20138888888889" y="-167.64583333333334"/>
      <point x="185.20138888888889" y="-127.20138888888889" type="curve" smooth="yes"/>
      <point x="185.20138888888889" y="-95.34027777777777"/>
      <point x="163.53472222222223" y="-90.86805555555556"/>
      <point x="163.53472222222223" y="-61.951388888888886" type="curve" smooth="yes"/>
      <point x="163.53472222222223" y="-52.65972222222222"/>
      <point x="165.09722222222223" y="-41.548611111111114"/>
      <point x="170.00694444444446" y="-22.291666666666668" type="curve" smooth="yes"/>
      <point x="170.00694444444446" y="-22.291666666666668"/>
      <point x="292.1351111871841" y="436.0941467076022"/>
      <point x="308.38194444444446" y="485.1111111111111" type="curve" smooth="yes"/>
      <point x="346.5735416448887" y="605.6135898224068"/>
      <point x="409.4905523255814" y="673.1805555555555"/>
      <point x="480.8958333333333" y="673.1805555555555" type="curve" smooth="yes"/>
      <point x="525.9236111111111" y="673.1805555555555"/>
      <point x="549.6666666666666" y="647.6633771929825"/>
      <point x="549.6666666666666" y="606.4166666666666" type="curve" smooth="yes"/>
      <point x="549.6666666666666" y="564.6111111111111"/>
      <point x="524.4930555555555" y="526.4444444444445"/>
      <point x="455.84722222222223" y="483.22222222222223" type="curve" smooth="yes"/>
      <point x="365.7708333333333" y="425.44444444444446"/>
      <point x="344.9236111111111" y="376.5625"/>
      <point x="344.9236111111111" y="333.125" type="curve" smooth="yes"/>
      <point x="344.9236111111111" y="290.99305555555554"/>
      <point x="374.5138888888889" y="245.45833333333334"/>
      <point x="435.25694444444446" y="194.68055555555554" type="curve" smooth="yes"/>
      <point x="486.05555555555554" y="151.59722222222223"/>
      <point x="494.1041666666667" y="117.375"/>
      <point x="494.1041666666667" y="89.93055555555556" type="curve" smooth="yes"/>
      <point x="494.1041666666667" y="54.4212962962963"/>
      <point x="472.7986111111111" y="34.0625"/>
      <point x="446.78472222222223" y="34.0625" type="curve" smooth="yes"/>
      <point x="411.34722222222223" y="34.0625"/>
      <point x="393.35923862402046" y="60.022769782440456"/>
      <point x="372.3263888888889" y="99.98611111111111" type="curve" smooth="yes"/>
      <point x="353.05555555555554" y="136.82638888888889"/>
      <point x="331.3611111111111" y="148.23611111111111"/>
      <point x="308.53472222222223" y="148.23611111111111" type="curve" smooth="yes"/>
      <point x="282.3333333333333" y="148.23611111111111"/>
      <point x="264.7986111111111" y="128.82638888888889"/>
      <point x="264.7986111111111" y="97.84722222222223" type="curve" smooth="yes"/>
      <point x="264.7986111111111" y="39.50694444444444"/>
      <point x="325.2530241935484" y="-12.36111111111111"/>
      <point x="404.7708333333333" y="-12.36111111111111" type="curve" smooth="yes"/>
      <point x="515.2762180629827" y="-12.36111111111111"/>
      <point x="589.7430555555555" y="49.951388888888886"/>
      <point x="589.7430555555555" y="126.33333333333333" type="curve" smooth="yes"/>
      <point x="589.7430555555555" y="165.29861111111111"/>
      <point x="573.7013888888889" y="204.23611111111111"/>
      <point x="510.125" y="260.97222222222223" type="curve" smooth="yes"/>
      <point x="458.0" y="305.6388888888889"/>
      <point x="446.75694444444446" y="328.03472222222223"/>
      <point x="446.75694444444446" y="356.1666666666667" type="curve" smooth="yes"/>
      <point x="446.75694444444446" y="382.2638888888889"/>
      <point x="459.6388888888889" y="417.19444444444446"/>
      <point x="529.4930555555555" y="460.3125" type="curve" smooth="yes"/>
      <point x="628.6180555555555" y="522.5763888888889"/>
      <point x="659.4583333333334" y="562.5138888888889"/>
      <point x="659.4583333333334" y="611.5416666666666" type="curve" smooth="yes"/>
      <point x="659.4583333333334" y="668.75"/>
      <point x="598.8611111111111" y="712.3611111111111"/>
      <point x="498.13194444444446" y="712.3611111111111" type="curve" smooth="yes"/>
      <point x="352.84722222222223" y="712.3611111111111"/>
      <point x="252.97916666666666" y="614.9791666666666"/>
    </contour>
  </outline>
</glyph>
<glyph name="ae" format="2">
  <advance width="772.0"/>
  <unicode hex="00E6"/>
  <outline>
    <contour>
      <point x="191.1875" y="151.125" type="curve" smooth="yes"/>
      <point x="191.1875" y="293.1875"/>
      <point x="284.125" y="399.0625"/>
      <point x="374.0" y="399.0625" type="curve" smooth="yes"/>
      <point x="405.3125" y="399.0625"/>
      <point x="424.1875" y="379.67424242424244"/>
      <point x="424.1875" y="343.5" type="curve" smooth="yes"/>
      <point x="424.1875" y="241.26672535211267"/>
      <point x="327.9384328358209" y="86.75"/>
      <point x="240.25" y="86.75" type="curve" smooth="yes"/>
      <point x="210.5" y="86.75"/>
      <point x="191.1875" y="107.875"/>
    </contour>
    <contour>
      <point x="534.6875" y="423.25" type="line"/>
      <point x="531.8550948329486" y="463.32511772850654"/>
      <point x="504.5991847826087" y="486.75"/>
      <point x="446.5" y="486.75" type="curve" smooth="yes"/>
      <point x="251.03545321637426" y="486.75"/>
      <point x="78.75" y="287.125"/>
      <point x="78.75" y="96.75" type="curve" smooth="yes"/>
      <point x="78.75" y="15.75"/>
      <point x="118.375" y="-15.0"/>
      <point x="168.5625" y="-15.0" type="curve" smooth="yes"/>
      <point x="274.875" y="-15.0"/>
      <point x="388.38891599587" y="80.46874004127324"/>
      <point x="450.125" y="271.0" type="curve"/>
    </contour>
    <component base="e" xOffset="311.5"/>
  </outline>
</glyph>
<glyph name="eth" format="2">
  <advance width="480.125"/>
  <unicode hex="00F0"/>
  <outline>
    <contour>
      <point x="383.375" y="486.1875" type="curve" smooth="yes"/>
      <point x="209.8125" y="486.1875"/>
      <point x="78.75" y="312.0625"/>
      <point x="78.75" y="135.0625" type="curve" smooth="yes"/>
      <point x="78.75" y="38.6875"/>
      <point x="138.5" y="-15.0"/>
      <point x="229.875" y="-15.0" type="curve" smooth="yes"/>
      <point x="390.0625" y="-15.0"/>
      <point x="536.5" y="176.6875"/>
      <point x="536.5" y="363.875" type="curve" smooth="yes"/>
      <point x="536.5" y="516.125"/>
      <point x="450.8125" y="641.0"/>
      <point x="335.9375" y="697.5" type="curve" smooth="yes"/>
      <point x="308.1875" y="710.875"/>
      <point x="291.6875" y="716.0"/>
      <point x="270.4375" y="716.0" type="curve" smooth="yes"/>
      <point x="250.9375" y="716.0"/>
      <point x="242.25" y="706.1875"/>
      <point x="242.25" y="694.375" type="curve" smooth="yes"/>
      <point x="242.25" y="685.25"/>
      <point x="248.5625" y="674.4375"/>
      <point x="272.25" y="656.75" type="curve" smooth="yes"/>
      <point x="376.5625" y="579.3125"/>
      <point x="425.25" y="500.125"/>
      <point x="425.25" y="367.5" type="curve"/>
      <point x="467.125" y="382.4375" type="line"/>
      <point x="467.125" y="447.125"/>
      <point x="438.0625" y="486.1875"/>
    </contour>
    <contour>
      <point x="267.75" y="64.75" type="curve" smooth="yes"/>
      <point x="225.125" y="64.75"/>
      <point x="201.9375" y="93.5625"/>
      <point x="201.9375" y="161.9375" type="curve" smooth="yes"/>
      <point x="201.9375" y="300.125"/>
      <point x="273.5625" y="409.5625"/>
      <point x="354.625" y="409.5625" type="curve" smooth="yes"/>
      <point x="389.1875" y="409.5625"/>
      <point x="415.3125" y="381.9375"/>
      <point x="415.3125" y="303.625" type="curve" smooth="yes"/>
      <point x="415.3125" y="159.375"/>
      <point x="338.3125" y="64.75"/>
    </contour>
    <contour>
      <point x="244.875" y="555.125" type="curve" smooth="yes"/>
      <point x="244.875" y="547.0"/>
      <point x="251.4375" y="538.3125"/>
      <point x="260.0" y="538.3125" type="curve" smooth="yes"/>
      <point x="266.0" y="538.3125"/>
      <point x="276.25" y="540.875"/>
      <point x="285.5" y="547.0" type="curve" smooth="yes"/>
      <point x="479.5" y="670.0" type="line" smooth="yes"/>
      <point x="495.375" y="680.4375"/>
      <point x="497.6875" y="685.3125"/>
      <point x="497.6875" y="694.75" type="curve" smooth="yes"/>
      <point x="497.6875" y="701.875"/>
      <point x="491.6875" y="711.0"/>
      <point x="481.6875" y="711.0" type="curve" smooth="yes"/>
      <point x="473.5625" y="711.0"/>
      <point x="462.875" y="707.5625"/>
      <point x="457.875" y="704.0" type="curve" smooth="yes"/>
      <point x="265.875" y="581.0" type="line" smooth="yes"/>
      <point x="251.875" y="572.0"/>
      <point x="244.875" y="563.5625"/>
    </contour>
  </outline>
</glyph>
<glyph name="thorn" format="2">
  <advance width="553.625"/>
  <unicode hex="00FE"/>
  <outline>
    <contour>
      <point x="261.875" y="470.0625" type="curve" smooth="yes"/>
      <point x="74.0" y="-118.125" type="line" smooth="yes"/>
      <point x="68.0" y="-136.125"/>
      <point x="55.0" y="-148.125"/>
      <point x="33.0" y="-161.125" type="curve" smooth="yes"/>
      <point x="3.9375" y="-176.9375"/>
      <point x="-5.625" y="-189.75"/>
      <point x="-5.625" y="-202.5625" type="curve" smooth="yes"/>
      <point x="-5.625" y="-224.1875"/>
      <point x="9.625" y="-236.0"/>
      <point x="30.0" y="-235.0" type="curve" smooth="yes"/>
      <point x="214.125" y="-230.0" type="line" smooth="yes"/>
      <point x="236.5" y="-229.0"/>
      <point x="251.75" y="-216.0625"/>
      <point x="251.75" y="-198.5625" type="curve" smooth="yes"/>
      <point x="251.75" y="-183.1875"/>
      <point x="242.1875" y="-172.375"/>
      <point x="216.125" y="-161.125" type="curve" smooth="yes"/>
      <point x="193.02783175132498" y="-150.31946897787498"/>
      <point x="184.125" y="-141.125"/>
      <point x="184.125" y="-124.125" type="curve" smooth="yes"/>
      <point x="184.125" y="-108.125"/>
      <point x="190.125" y="-87.125"/>
      <point x="196.125" y="-68.125" type="curve" smooth="yes"/>
      <point x="384.25" y="541.25" type="line" smooth="yes"/>
      <point x="403.3125" y="603.875"/>
      <point x="410.4375" y="628.125"/>
      <point x="409.4375" y="658.125" type="curve" smooth="yes"/>
      <point x="408.4375453353725" y="694.0610492680814"/>
      <point x="387.875" y="716.0"/>
      <point x="347.75" y="716.0" type="curve" smooth="yes"/>
      <point x="305.1875" y="716.0"/>
      <point x="265.75" y="686.1875"/>
      <point x="265.75" y="647.25" type="curve" smooth="yes"/>
      <point x="265.75" y="615.75"/>
      <point x="282.8125" y="597.5"/>
      <point x="282.8125" y="560.4375" type="curve" smooth="yes"/>
      <point x="282.8125" y="542.8125"/>
      <point x="279.3658056155051" y="523.5007695528346"/>
    </contour>
    <contour>
      <point x="133.25" y="329.625" type="curve" smooth="yes"/>
      <point x="150.5625" y="329.625"/>
      <point x="164.75" y="340.4375"/>
      <point x="178.375" y="351.375" type="curve" smooth="yes"/>
      <point x="229.3125" y="393.875"/>
      <point x="277.8125" y="410.625"/>
      <point x="346.4375" y="410.625" type="curve" smooth="yes"/>
      <point x="422.5625" y="410.625"/>
      <point x="468.75" y="360.4375"/>
      <point x="468.75" y="269.6875" type="curve" smooth="yes"/>
      <point x="468.75" y="138.3125"/>
      <point x="396.8125" y="57.5625"/>
      <point x="311.3125" y="57.5625" type="curve" smooth="yes"/>
      <point x="260.375" y="57.5625"/>
      <point x="229.75" y="86.0"/>
      <point x="227.75" y="133.875" type="curve"/>
      <point x="177.75" y="112.4375" type="line"/>
      <point x="177.75" y="44.9375"/>
      <point x="231.375" y="-16.0"/>
      <point x="321.25" y="-16.0" type="curve" smooth="yes"/>
      <point x="464.0" y="-16.0"/>
      <point x="589.6875" y="112.1875"/>
      <point x="589.6875" y="292.125" type="curve" smooth="yes"/>
      <point x="589.6875" y="412.6875"/>
      <point x="517.6875" y="485.625"/>
      <point x="395.375" y="485.625" type="curve" smooth="yes"/>
      <point x="262.25" y="485.625"/>
      <point x="186.375" y="451.1875"/>
      <point x="130.6875" y="398.0625" type="curve" smooth="yes"/>
      <point x="122.0" y="389.375"/>
      <point x="108.75" y="374.0"/>
      <point x="108.75" y="356.625" type="curve" smooth="yes"/>
      <point x="108.75" y="338.4375"/>
      <point x="120.0" y="329.625"/>
    </contour>
  </outline>
</glyph>
<glyph name="Lslash" format="2">
  <advance width="571.875"/>
  <unicode hex="0141"/>
  <outline>
    <contour>
      <point x="485.875" y="411.875" type="curve" smooth="yes"/>
      <point x="145.75" y="291.75" type="line" smooth="yes"/>
      <point x="128.75" y="285.75"/>
      <point x="118.1875" y="268.75"/>
      <point x="122.75" y="257.75" type="curve" smooth="yes"/>
      <point x="128.4375" y="245.5"/>
      <point x="139.0" y="239.8125"/>
      <point x="153.0" y="244.8125" type="curve" smooth="yes"/>
      <point x="492.0" y="364.375" type="line" smooth="yes"/>
      <point x="510.125" y="370.9375"/>
      <point x="521.25" y="389.0625"/>
      <point x="516.6875" y="401.1875" type="curve" smooth="yes"/>
      <point x="512.125" y="412.875"/>
      <point x="501.5625" y="417.4375"/>
    </contour>
    <component base="L"/>
  </outline>
</glyph>
<glyph name="eng" format="2">
  <advance width="546.9375"/>
  <unicode hex="014B"/>
  <outline>
    <contour>
      <point x="456.375" y="279.5" type="curve" smooth="yes"/>
      <point x="382.1875" y="23.0" type="line" smooth="yes"/>
      <point x="359.4875459579916" y="-54.167952896234524"/>
      <point x="382.125" y="-65.6640127388535"/>
      <point x="382.125" y="-109.75" type="curve" smooth="yes"/>
      <point x="382.125" y="-135.70362903225808"/>
      <point x="364.375" y="-148.0625"/>
      <point x="340.9375" y="-148.0625" type="curve" smooth="yes"/>
      <point x="307.8463345864662" y="-148.0625"/>
      <point x="278.62640977443607" y="-105.6875"/>
      <point x="243.125" y="-105.6875" type="curve" smooth="yes"/>
      <point x="200.71147260273972" y="-105.6875"/>
      <point x="177.0625" y="-137.8483231707317"/>
      <point x="177.0625" y="-176.75" type="curve" smooth="yes"/>
      <point x="177.0625" y="-215.7419642857143"/>
      <point x="210.1875" y="-250.625"/>
      <point x="269.625" y="-250.625" type="curve" smooth="yes"/>
      <point x="367.5625" y="-250.625"/>
      <point x="448.9375" y="-162.875"/>
      <point x="484.9375" y="-15.3125" type="curve" smooth="yes"/>
      <point x="556.8125" y="277.0625" type="line" smooth="yes"/>
      <point x="571.625" y="337.3125"/>
      <point x="591.875" y="370.66207627118644"/>
      <point x="591.875" y="413.0625" type="curve" smooth="yes"/>
      <point x="591.875" y="455.7568493150685"/>
      <point x="565.8125" y="485.625"/>
      <point x="518.8125" y="485.625" type="curve" smooth="yes"/>
      <point x="416.8125" y="485.625"/>
      <point x="331.67195346803743" y="402.32625709492703"/>
      <point x="256.875" y="264.875" type="curve"/>
      <point x="291.1875" y="296.625" type="line"/>
      <point x="291.1875" y="335.9375"/>
      <point x="328.49125665487446" y="397.3361368671339"/>
      <point x="326.4375" y="434.4375" type="curve" smooth="yes"/>
      <point x="324.875" y="466.0"/>
      <point x="300.8125" y="486.1875"/>
      <point x="261.375" y="486.1875" type="curve" smooth="yes"/>
      <point x="189.9375" y="486.1875"/>
      <point x="106.5625" y="421.4375"/>
      <point x="109.5625" y="374.875" type="curve" smooth="yes"/>
      <point x="110.125" y="358.8125"/>
      <point x="118.375" y="348.4375"/>
      <point x="132.875" y="348.4375" type="curve" smooth="yes"/>
      <point x="146.0" y="348.4375"/>
      <point x="156.6875" y="354.875"/>
      <point x="166.25" y="366.4375" type="curve" smooth="yes"/>
      <point x="176.1875" y="377.8125"/>
      <point x="185.8125" y="382.875"/>
      <point x="194.875" y="382.875" type="curve" smooth="yes"/>
      <point x="207.625" y="382.875"/>
      <point x="213.0625" y="370.1875"/>
      <point x="213.5" y="356.625" type="curve" smooth="yes"/>
      <point x="213.9375" y="341.0"/>
      <point x="210.5" y="325.0625"/>
      <point x="203.625" y="308.0" type="curve" smooth="yes"/>
      <point x="118.75" y="105.625" type="line" smooth="yes"/>
      <point x="109.1875" y="82.625"/>
      <point x="102.75" y="58.625"/>
      <point x="104.75" y="34.625" type="curve" smooth="yes"/>
      <point x="105.75" y="1.6875"/>
      <point x="124.25" y="-15.0"/>
      <point x="155.0" y="-15.0" type="curve" smooth="yes"/>
      <point x="206.52764423076923" y="-15.0"/>
      <point x="256.43492793741444" y="12.731225063954358"/>
      <point x="254.125" y="52.0" type="curve" smooth="yes"/>
      <point x="252.97113343481354" y="73.92346473854246"/>
      <point x="244.75" y="95.75"/>
      <point x="243.875" y="115.4375" type="curve" smooth="yes"/>
      <point x="243.4375" y="132.3125"/>
      <point x="249.875" y="158.625"/>
      <point x="261.375" y="190.0625" type="curve" smooth="yes"/>
      <point x="311.125" y="325.9375"/>
      <point x="379.875" y="383.625"/>
      <point x="437.0" y="383.625" type="curve" smooth="yes"/>
      <point x="460.7881097560976" y="383.625"/>
      <point x="470.375" y="368.0625"/>
      <point x="470.375" y="345.5" type="curve" smooth="yes"/>
      <point x="470.375" y="328.5"/>
      <point x="463.375" y="303.5"/>
    </contour>
  </outline>
</glyph>
<glyph name="OE" format="2">
  <advance width="977.6805555555555"/>
  <unicode hex="0152"/>
  <outline>
    <contour>
      <point x="810.3194444444445" y="0.0" type="line" smooth="yes"/>
      <point x="841.7053418803418" y="0.0"/>
      <point x="853.5069444444445" y="-15.645833333333332"/>
      <point x="880.7222222222222" y="-15.645833333333332" type="curve" smooth="yes"/>
      <point x="931.3333333333334" y="-15.645833333333332"/>
      <point x="983.4444444444445" y="66.33333333333333"/>
      <point x="983.4444444444445" y="154.25694444444446" type="curve" smooth="yes"/>
      <point x="983.4444444444445" y="177.52083333333334"/>
      <point x="975.5107323232323" y="187.88888888888889"/>
      <point x="962.6111111111111" y="187.88888888888889" type="curve" smooth="yes"/>
      <point x="948.0208333333334" y="187.88888888888889"/>
      <point x="944.5902777777778" y="182.51388888888889"/>
      <point x="929.5" y="160.24305555555554" type="curve" smooth="yes"/>
      <point x="914.1944444444445" y="133.96527777777777" type="line" smooth="yes"/>
      <point x="879.3205514899158" y="69.90429573025939"/>
      <point x="831.8958333333334" y="44.50694444444444"/>
      <point x="759.8472222222222" y="44.50694444444444" type="curve" smooth="yes"/>
      <point x="718.6875" y="44.50694444444444" type="line" smooth="yes"/>
      <point x="682.8680555555555" y="44.50694444444444"/>
      <point x="665.3263888888889" y="73.49305555555556"/>
      <point x="675.0138888888889" y="120.88194444444444" type="curve" smooth="yes"/>
      <point x="704.2361111111111" y="272.05555555555554"/>
      <point x="748.6612404825753" y="451.90524097905416"/>
      <point x="809.4722222222222" y="656.4722222222222" type="curve"/>
      <point x="913.3472222222222" y="656.4722222222222" type="line" smooth="yes"/>
      <point x="955.6319444444445" y="656.4722222222222"/>
      <point x="984.3472222222222" y="640.1041666666666"/>
      <point x="1001.7152777777778" y="600.5277777777778" type="curve" smooth="yes"/>
      <point x="1024.5694444444443" y="548.3055555555555" type="line" smooth="yes"/>
      <point x="1034.8873206132077" y="526.8407262447582"/>
      <point x="1042.0503472222222" y="521.2777777777778"/>
      <point x="1056.736111111111" y="521.2777777777778" type="curve" smooth="yes"/>
      <point x="1066.509963768116" y="521.2777777777778"/>
      <point x="1079.1319444444443" y="531.3958333333334"/>
      <point x="1078.0416666666667" y="550.5972222222222" type="curve" smooth="yes"/>
      <point x="1070.201388888889" y="695.0416666666666" type="line" smooth="yes"/>
      <point x="1069.433841627875" y="713.4856065163457"/>
      <point x="1061.048611111111" y="721.7916666666666"/>
      <point x="1048.5694444444443" y="721.7916666666666" type="curve" smooth="yes"/>
      <point x="1040.048611111111" y="721.7916666666666"/>
      <point x="1030.9305555555557" y="717.8125"/>
      <point x="1020.8819444444445" y="710.8888888888889" type="curve" smooth="yes"/>
      <point x="1011.3194444444445" y="704.5069444444445"/>
      <point x="996.8263888888889" y="700.0"/>
      <point x="984.1875" y="700.0" type="curve" smooth="yes"/>
      <point x="737.6736111111111" y="700.0" type="line" smooth="yes"/>
      <point x="671.4513888888889" y="700.0"/>
      <point x="626.5138888888889" y="712.4513888888889"/>
      <point x="566.4236111111111" y="712.4513888888889" type="curve" smooth="yes"/>
      <point x="345.78472222222223" y="712.4513888888889"/>
      <point x="184.38888888888889" y="564.5694444444445"/>
      <point x="134.375" y="363.6875" type="curve" smooth="yes"/>
      <point x="80.50694444444444" y="148.70138888888889"/>
      <point x="192.75" y="-12.36111111111111"/>
      <point x="370.1458333333333" y="-12.36111111111111" type="curve" smooth="yes"/>
      <point x="447.7986111111111" y="-12.36111111111111"/>
      <point x="499.34722222222223" y="0.0"/>
      <point x="564.6458333333334" y="0.0" type="curve" smooth="yes"/>
    </contour>
    <contour>
      <point x="396.68055555555554" y="44.451388888888886" type="curve" smooth="yes"/>
      <point x="301.15277777777777" y="44.451388888888886"/>
      <point x="229.65277777777777" y="149.21527777777777"/>
      <point x="281.0208333333333" y="362.25" type="curve" smooth="yes"/>
      <point x="323.1875" y="537.9513888888889"/>
      <point x="441.97222222222223" y="657.0625"/>
      <point x="549.8611111111111" y="657.0625" type="curve" smooth="yes"/>
      <point x="616.5694444444445" y="657.0625"/>
      <point x="648.1736111111111" y="629.8216991341991"/>
      <point x="648.1736111111111" y="573.8333333333334" type="curve" smooth="yes"/>
      <point x="648.1736111111111" y="538.3819444444445"/>
      <point x="644.9583333333334" y="508.1736111111111"/>
      <point x="635.3472222222222" y="465.68055555555554" type="curve" smooth="yes"/>
      <point x="614.4513888888889" y="383.84722222222223"/>
      <point x="584.2638888888889" y="251.15277777777777"/>
      <point x="556.8333333333334" y="163.38194444444446" type="curve" smooth="yes"/>
      <point x="529.2777777777778" y="79.23611111111111"/>
      <point x="480.59027777777777" y="44.451388888888886"/>
    </contour>
    <contour>
      <point x="697.5972222222222" y="370.28472222222223" type="line"/>
      <point x="683.5347222222222" y="323.65277777777777" type="line"/>
      <point x="851.7430555555555" y="323.65277777777777" type="line" smooth="yes"/>
      <point x="891.0069444444445" y="323.65277777777777"/>
      <point x="913.8125" y="310.7916666666667"/>
      <point x="935.4097222222222" y="273.63194444444446" type="curve" smooth="yes"/>
      <point x="947.2847222222222" y="260.2986111111111"/>
      <point x="954.3830128205128" y="255.375"/>
      <point x="967.2986111111111" y="255.375" type="curve" smooth="yes"/>
      <point x="975.9078282828283" y="255.375"/>
      <point x="986.724589327673" y="262.0639072222155"/>
      <point x="983.9375" y="276.21527777777777" type="curve" smooth="yes"/>
      <point x="956.8402777777778" y="420.3541666666667" type="line" smooth="yes"/>
      <point x="953.6805555555555" y="437.56944444444446"/>
      <point x="945.3479938271605" y="449.9375"/>
      <point x="931.7083333333334" y="449.9375" type="curve" smooth="yes"/>
      <point x="922.9338888888889" y="449.9375"/>
      <point x="916.7222222222222" y="443.6875"/>
      <point x="908.2222222222222" y="431.49305555555554" type="curve" smooth="yes"/>
      <point x="889.4513888888889" y="386.8263888888889"/>
      <point x="870.1388888888889" y="370.28472222222223"/>
      <point x="832.6597222222222" y="370.28472222222223" type="curve" smooth="yes"/>
    </contour>
  </outline>
</glyph>
<glyph name="fhook" format="2">
  <advance width="464.25"/>
  <unicode hex="0192"/>
  <outline>
    <contour>
      <point x="147.5" y="-8.8125" type="line" smooth="yes"/>
      <point x="135.5152880595931" y="-45.735282980777626"/>
      <point x="124.6875" y="-80.8125"/>
      <point x="124.6875" y="-116.5" type="curve" smooth="yes"/>
      <point x="124.6875" y="-149.3125"/>
      <point x="110.1875" y="-164.375"/>
      <point x="89.4375" y="-164.375" type="curve" smooth="yes"/>
      <point x="51.5625" y="-164.375"/>
      <point x="17.8125" y="-111.75"/>
      <point x="-22.625" y="-111.75" type="curve" smooth="yes"/>
      <point x="-65.0" y="-111.75"/>
      <point x="-86.6875" y="-141.8125"/>
      <point x="-86.6875" y="-178.0" type="curve" smooth="yes"/>
      <point x="-86.6875" y="-213.125"/>
      <point x="-53.5625" y="-243.6875"/>
      <point x="6.4375" y="-243.6875" type="curve" smooth="yes"/>
      <point x="103.6875" y="-243.6875"/>
      <point x="195.875" y="-179.9375"/>
      <point x="250.625" y="-17.8125" type="curve" smooth="yes"/>
      <point x="393.5" y="402.6875" type="line"/>
      <point x="498.5" y="402.6875" type="line" smooth="yes"/>
      <point x="525.125" y="402.6875"/>
      <point x="544.0625" y="421.75"/>
      <point x="548.1875" y="435.125" type="curve" smooth="yes"/>
      <point x="553.3125" y="457.3125"/>
      <point x="544.0625" y="465.0"/>
      <point x="524.5625" y="465.0" type="curve" smooth="yes"/>
      <point x="417.5625" y="465.0" type="line"/>
      <point x="429.75" y="506.125"/>
      <point x="434.0625" y="517.875"/>
      <point x="438.4375" y="533.75" type="curve" smooth="yes"/>
      <point x="455.6875" y="592.5"/>
      <point x="462.3125" y="616.875"/>
      <point x="462.3125" y="647.375" type="curve" smooth="yes"/>
      <point x="462.3125" y="668.375"/>
      <point x="474.3125" y="678.375"/>
      <point x="492.3125" y="678.375" type="curve" smooth="yes"/>
      <point x="525.1789772727273" y="678.375"/>
      <point x="556.2443181818181" y="623.75"/>
      <point x="594.0625" y="623.75" type="curve" smooth="yes"/>
      <point x="636.4375" y="623.75"/>
      <point x="658.6875" y="651.0"/>
      <point x="658.6875" y="684.375" type="curve" smooth="yes"/>
      <point x="658.6875" y="721.1875"/>
      <point x="625.5625" y="754.0"/>
      <point x="565.5625" y="754.0" type="curve" smooth="yes"/>
      <point x="462.19959677419354" y="754.0"/>
      <point x="377.375" y="682.625"/>
      <point x="329.9375" y="530.375" type="curve" smooth="yes"/>
      <point x="298.4375" y="430.125" type="line"/>
      <point x="323.4375" y="465.0" type="line"/>
      <point x="191.4375" y="465.0" type="line" smooth="yes"/>
      <point x="172.625" y="465.0"/>
      <point x="158.9375" y="453.1875"/>
      <point x="153.8125" y="434.125" type="curve" smooth="yes"/>
      <point x="150.6875" y="419.625"/>
      <point x="159.8125" y="403.6875"/>
      <point x="171.375" y="403.6875" type="curve" smooth="yes"/>
      <point x="229.375" y="403.6875" type="line" smooth="yes"/>
      <point x="264.23828125" y="403.6875"/>
      <point x="276.2500344830923" y="383.54322547549117"/>
      <point x="266.375" y="353.6875" type="curve" smooth="yes"/>
    </contour>
  </outline>
</glyph>
<glyph name="endash" format="2">
  <advance width="635.5625"/>
  <unicode hex="2013"/>
  <outline>
    <contour>
      <point x="625.875" y="274.625" type="curve" smooth="yes"/>
      <point x="158.125" y="274.625" type="line" smooth="yes"/>
      <point x="136.1875" y="274.625"/>
      <point x="117.25" y="257.53125"/>
      <point x="117.25" y="240.0" type="curve" smooth="yes"/>
      <point x="117.25" y="223.1722972972973"/>
      <point x="127.5" y="211.9375"/>
      <point x="148.125" y="211.9375" type="curve" smooth="yes"/>
      <point x="615.875" y="211.9375" type="line"/>
      <point x="637.8125" y="211.9375"/>
      <point x="656.75" y="228.50145348837208"/>
      <point x="656.75" y="246.0" type="curve" smooth="yes"/>
      <point x="656.75" y="263.36019736842104"/>
      <point x="645.9375" y="274.625"/>
    </contour>
  </outline>
</glyph>
<glyph name="emdash" format="2">
  <advance width="946.0"/>
  <unicode hex="2014"/>
  <outline>
    <contour>
      <point x="947.0" y="274.625" type="curve" smooth="yes"/>
      <point x="157.0" y="274.625" type="line" smooth="yes"/>
      <point x="135.9318181818182" y="274.625"/>
      <point x="118.375" y="257.8125"/>
      <point x="118.375" y="240.0" type="curve" smooth="yes"/>
      <point x="118.375" y="222.625"/>
      <point x="128.33152173913044" y="211.375"/>
      <point x="147.0" y="211.375" type="curve" smooth="yes"/>
      <point x="937.0" y="211.375" type="line"/>
      <point x="958.0681818181819" y="211.375"/>
      <point x="975.625" y="228.1875"/>
      <point x="975.625" y="246.0" type="curve" smooth="yes"/>
      <point x="975.625" y="263.375"/>
      <point x="965.6684782608695" y="274.625"/>
    </contour>
  </outline>
</glyph>
<glyph name="daggerdbl" format="2">
  <advance width="463.0"/>
  <unicode hex="2021"/>
  <outline>
    <contour>
      <point x="365.875" y="498.5" type="curve" smooth="yes"/>
      <point x="424.5" y="498.5"/>
      <point x="430.9375" y="454.75"/>
      <point x="483.8125" y="454.75" type="curve" smooth="yes"/>
      <point x="526.75" y="454.75"/>
      <point x="554.5625" y="486.375"/>
      <point x="563.25" y="518.0" type="curve" smooth="yes"/>
      <point x="570.9375" y="546.625"/>
      <point x="557.8125" y="574.8125"/>
      <point x="519.4375" y="575.25" type="curve" smooth="yes"/>
      <point x="466.5625" y="575.6875"/>
      <point x="435.75" y="531.5"/>
      <point x="374.125" y="531.5" type="curve" smooth="yes"/>
      <point x="314.5" y="531.5"/>
      <point x="308.625" y="576.25"/>
      <point x="254.75" y="576.25" type="curve" smooth="yes"/>
      <point x="211.8125" y="576.25"/>
      <point x="186.4375" y="550.1875"/>
      <point x="177.75" y="519.0" type="curve" smooth="yes"/>
      <point x="168.0625" y="482.25"/>
      <point x="182.625" y="457.1875"/>
      <point x="223.5625" y="456.75" type="curve" smooth="yes"/>
      <point x="277.4375" y="456.3125"/>
      <point x="300.0625" y="498.5"/>
    </contour>
    <contour>
      <point x="372.6875" y="304.25" type="curve" smooth="yes"/>
      <point x="393.5625" y="383.75"/>
      <point x="367.0625" y="438.9375"/>
      <point x="386.5" y="513.0" type="curve" smooth="yes"/>
      <point x="408.375" y="593.1875"/>
      <point x="459.6875" y="624.3125"/>
      <point x="471.9375" y="669.625" type="curve" smooth="yes"/>
      <point x="481.0625" y="704.0"/>
      <point x="459.0" y="726.25"/>
      <point x="424.8125" y="726.25" type="curve" smooth="yes"/>
      <point x="387.0625" y="726.25"/>
      <point x="356.0" y="706.0"/>
      <point x="345.4375" y="667.625" type="curve" smooth="yes"/>
      <point x="334.1875" y="624.3125"/>
      <point x="371.9375" y="592.1875"/>
      <point x="350.5" y="513.0" type="curve" smooth="yes"/>
      <point x="331.625" y="441.9375"/>
      <point x="272.8125" y="383.3125"/>
      <point x="251.9375" y="305.25" type="curve" smooth="yes"/>
      <point x="239.8125" y="260.0625"/>
      <point x="259.0" y="235.6875"/>
      <point x="293.5625" y="235.6875" type="curve" smooth="yes"/>
      <point x="332.25" y="235.6875"/>
      <point x="360.5625" y="260.625"/>
    </contour>
    <contour>
      <point x="226.9375" y="-18.375" type="curve" smooth="yes"/>
      <point x="161.125" y="-18.375"/>
      <point x="161.875" y="23.8125"/>
      <point x="108.0" y="23.375" type="curve" smooth="yes"/>
      <point x="66.1875" y="22.9375"/>
      <point x="38.25" y="-2.125"/>
      <point x="28.5625" y="-38.875" type="curve" smooth="yes"/>
      <point x="19.875" y="-70.0625"/>
      <point x="31.875" y="-96.125"/>
      <point x="74.8125" y="-96.125" type="curve" smooth="yes"/>
      <point x="128.6875" y="-96.125"/>
      <point x="158.5" y="-51.375"/>
      <point x="218.125" y="-51.375" type="curve" smooth="yes"/>
      <point x="279.75" y="-51.375"/>
      <point x="287.1875" y="-95.5625"/>
      <point x="340.0625" y="-95.125" type="curve" smooth="yes"/>
      <point x="378.4375" y="-94.6875"/>
      <point x="406.375" y="-66.5"/>
      <point x="414.0625" y="-37.875" type="curve" smooth="yes"/>
      <point x="422.75" y="-6.25"/>
      <point x="411.1875" y="25.375"/>
      <point x="368.25" y="25.375" type="curve" smooth="yes"/>
      <point x="315.375" y="25.375"/>
      <point x="285.5625" y="-18.375"/>
    </contour>
    <contour>
      <point x="337.875" y="175.875" type="curve" smooth="yes"/>
      <point x="350.0" y="219.5"/>
      <point x="333.9375" y="244.0"/>
      <point x="295.25" y="244.0" type="curve" smooth="yes"/>
      <point x="260.6875" y="244.0"/>
      <point x="229.25" y="220.0625"/>
      <point x="217.125" y="174.875" type="curve" smooth="yes"/>
      <point x="196.25" y="96.8125"/>
      <point x="224.1875" y="38.1875"/>
      <point x="204.3125" y="-32.875" type="curve" smooth="yes"/>
      <point x="183.875" y="-112.0625"/>
      <point x="128.125" y="-144.1875"/>
      <point x="116.875" y="-187.5" type="curve" smooth="yes"/>
      <point x="106.3125" y="-225.875"/>
      <point x="126.25" y="-246.125"/>
      <point x="164.0" y="-246.125" type="curve" smooth="yes"/>
      <point x="198.1875" y="-246.125"/>
      <point x="232.25" y="-223.875"/>
      <point x="241.375" y="-189.5" type="curve" smooth="yes"/>
      <point x="253.625" y="-144.1875"/>
      <point x="218.875" y="-113.0625"/>
      <point x="240.3125" y="-32.875" type="curve" smooth="yes"/>
      <point x="260.1875" y="41.1875"/>
      <point x="317.0" y="96.375"/>
    </contour>
  </outline>
</glyph>
<glyph name="guilsinglleft" format="2">
  <advance width="384.0"/>
  <unicode hex="2039"/>
  <outline>
    <contour>
      <point x="129.75" y="248.0" type="curve" smooth="yes"/>
      <point x="126.75" y="235.0"/>
      <point x="126.1875" y="216.875"/>
      <point x="149.75" y="203.0" type="curve" smooth="yes"/>
      <point x="195.1875" y="175.8125"/>
      <point x="238.125" y="126.125"/>
      <point x="262.5625" y="76.4375" type="curve" smooth="yes"/>
      <point x="270.8125" y="59.5"/>
      <point x="281.0625" y="53.375"/>
      <point x="292.75" y="53.375" type="curve" smooth="yes"/>
      <point x="305.6875" y="53.375"/>
      <point x="316.0625" y="61.625"/>
      <point x="319.625" y="76.0" type="curve" smooth="yes"/>
      <point x="324.1875" y="91.25"/>
      <point x="318.1875" y="102.9375"/>
      <point x="310.75" y="123.3125" type="curve" smooth="yes"/>
      <point x="287.5" y="183.1875"/>
      <point x="264.4375" y="227.25"/>
      <point x="234.6875" y="267.1875" type="curve"/>
      <point x="225.4375" y="233.875" type="line"/>
      <point x="277.4375" y="274.0625"/>
      <point x="324.875" y="315.75"/>
      <point x="376.6875" y="372.6875" type="curve" smooth="yes"/>
      <point x="394.9375" y="393.0625"/>
      <point x="408.0625" y="404.75"/>
      <point x="412.625" y="420.0" type="curve" smooth="yes"/>
      <point x="415.75" y="434.375"/>
      <point x="410.625" y="442.625"/>
      <point x="399.9375" y="442.625" type="curve" smooth="yes"/>
      <point x="388.125" y="442.625"/>
      <point x="375.75" y="435.9375"/>
      <point x="357.375" y="419.0" type="curve" smooth="yes"/>
      <point x="304.25" y="368.0625"/>
      <point x="232.25" y="319.8125"/>
      <point x="174.75" y="293.0" type="curve" smooth="yes"/>
      <point x="143.3125" y="279.25"/>
      <point x="133.75" y="261.0"/>
    </contour>
  </outline>
</glyph>
<glyph name="fraction" format="2">
  <advance width="643.0"/>
  <unicode hex="2044"/>
  <outline>
    <contour>
      <point x="720.8541666666666" y="560.0347222222222" type="curve" smooth="yes"/>
      <point x="749.2077552981541" y="583.6917415469857"/>
      <point x="766.0399770357313" y="602.8053759791826"/>
      <point x="767.3263888888889" y="621.4791666666666" type="curve" smooth="yes"/>
      <point x="768.7030856654185" y="640.5211923358045"/>
      <point x="757.3930555555555" y="656.1527777777778"/>
      <point x="733.5138888888889" y="656.1527777777778" type="curve" smooth="yes"/>
      <point x="709.5666717541717" y="656.1527777777778"/>
      <point x="688.1616682206685" y="640.1255608134408"/>
      <point x="664.2708333333334" y="614.0763888888889" type="curve" smooth="yes"/>
      <point x="595.9893985720753" y="540.1837106849163"/>
      <point x="539.559625586741" y="469.9319475882945"/>
      <point x="415.2013888888889" y="350.84722222222223" type="curve" smooth="yes"/>
      <point x="263.40573158567327" y="205.58525580622435"/>
      <point x="189.15043116980215" y="166.14168411268076"/>
      <point x="85.16666666666667" y="77.9375" type="curve" smooth="yes"/>
      <point x="62.80357664264455" y="58.33497986434875"/>
      <point x="50.93317870213895" y="37.76367705751305"/>
      <point x="49.59722222222222" y="22.625" type="curve" smooth="yes"/>
      <point x="48.09293502565964" y="6.314290607689079"/>
      <point x="59.09778528528528" y="-12.270833333333332"/>
      <point x="82.36111111111111" y="-12.270833333333332" type="curve" smooth="yes"/>
      <point x="101.91977969348659" y="-12.270833333333332"/>
      <point x="123.01451061230013" y="-5.868095934399703"/>
      <point x="147.24305555555554" y="19.944444444444443" type="curve" smooth="yes"/>
      <point x="230.92671382841496" y="107.25163924475618"/>
      <point x="278.37511070836" y="175.06173658590166"/>
      <point x="435.11805555555554" y="327.2986111111111" type="curve" smooth="yes"/>
      <point x="562.5447980446886" y="451.7139120057459"/>
      <point x="644.1679309948131" y="494.77594746359586"/>
    </contour>
  </outline>
</glyph>
<glyph name="zero.superior" format="2">
  <advance width="378.21527777777777"/>
  <unicode hex="2070"/>
  <outline>
    <contour>
      <point x="358.74305555555554" y="655.5" type="curve" smooth="yes"/>
      <point x="263.53472222222223" y="655.5"/>
      <point x="181.29166666666666" y="584.0625"/>
      <point x="156.85416666666666" y="476.0" type="curve" smooth="yes"/>
      <point x="132.01388888888889" y="368.75"/>
      <point x="179.67361111111111" y="293.0625"/>
      <point x="269.81944444444446" y="293.0625" type="curve" smooth="yes"/>
      <point x="364.34027777777777" y="293.0625"/>
      <point x="447.5833333333333" y="363.6875"/>
      <point x="472.9861111111111" y="476.0" type="curve" smooth="yes"/>
      <point x="496.2986111111111" y="581.8125"/>
      <point x="449.3263888888889" y="655.5"/>
    </contour>
    <contour>
      <point x="376.19444444444446" y="470.4375" type="curve" smooth="yes"/>
      <point x="356.7708333333333" y="366.77777777777777"/>
      <point x="318.97222222222223" y="329.7986111111111"/>
      <point x="284.6041666666667" y="329.7986111111111" type="curve" smooth="yes"/>
      <point x="246.65277777777777" y="329.7986111111111"/>
      <point x="228.85416666666666" y="384.4861111111111"/>
      <point x="251.15277777777777" y="480.9375" type="curve" smooth="yes"/>
      <point x="272.3333333333333" y="576.0416666666666"/>
      <point x="310.34027777777777" y="619.7847222222222"/>
      <point x="344.5833333333333" y="619.7847222222222" type="curve" smooth="yes"/>
      <point x="383.22222222222223" y="619.7847222222222"/>
      <point x="397.3333333333333" y="568.5069444444445"/>
    </contour>
  </outline>
</glyph>
<glyph name="four.superior" format="2">
  <advance width="383.375"/>
  <unicode hex="2074"/>
  <outline>
    <contour>
      <point x="323.625" y="454.375" type="curve" smooth="yes"/>
      <point x="304.0" y="382.4375" type="line" smooth="yes"/>
      <point x="299.0" y="362.5625"/>
      <point x="286.6875" y="352.125"/>
      <point x="265.1875" y="349.6875" type="curve" smooth="yes"/>
      <point x="242.25" y="347.125"/>
      <point x="231.0" y="339.4375"/>
      <point x="226.875" y="326.0625" type="curve" smooth="yes"/>
      <point x="223.3125" y="313.25"/>
      <point x="230.4375" y="305.0"/>
      <point x="251.375" y="305.0" type="curve" smooth="yes"/>
      <point x="392.5" y="305.0" type="line" smooth="yes"/>
      <point x="412.4375" y="305.0"/>
      <point x="422.6875" y="313.25"/>
      <point x="426.25" y="326.0625" type="curve" smooth="yes"/>
      <point x="430.375" y="339.4375"/>
      <point x="421.6875" y="345.125"/>
      <point x="406.3125" y="348.6875" type="curve" smooth="yes"/>
      <point x="388.25" y="353.125"/>
      <point x="381.9375" y="361.5625"/>
      <point x="387.375" y="381.4375" type="curve" smooth="yes"/>
      <point x="421.8125" y="509.875" type="line" smooth="yes"/>
      <point x="425.9375" y="524.125"/>
      <point x="420.6875" y="530.25"/>
      <point x="411.125" y="530.25" type="curve" smooth="yes"/>
      <point x="405.125" y="530.25"/>
      <point x="398.5625" y="527.8125"/>
      <point x="388.6875" y="520.5" type="curve" smooth="yes"/>
      <point x="350.9375" y="492.9375" type="line" smooth="yes"/>
      <point x="334.3125" y="480.5625"/>
      <point x="327.1875" y="468.75"/>
    </contour>
    <contour>
      <point x="280.375" y="527.9375" type="curve" smooth="yes"/>
      <point x="181.75" y="456.0" type="line" smooth="yes"/>
      <point x="165.1875" y="443.5625"/>
      <point x="153.1875" y="431.0"/>
      <point x="149.75" y="418.0" type="curve" smooth="yes"/>
      <point x="145.75" y="402.0"/>
      <point x="152.75" y="393.0"/>
      <point x="169.75" y="393.0" type="curve" smooth="yes"/>
      <point x="426.5" y="393.0" type="line" smooth="yes"/>
      <point x="445.4375" y="393.0"/>
      <point x="456.125" y="400.125"/>
      <point x="460.25" y="415.375" type="curve" smooth="yes"/>
      <point x="464.8125" y="431.0625"/>
      <point x="455.0" y="436.625"/>
      <point x="438.1875" y="436.625" type="curve" smooth="yes"/>
      <point x="178.4375" y="436.625" type="line"/>
      <point x="188.125" y="414.0" type="line"/>
      <point x="374.8125" y="551.0" type="line" smooth="yes"/>
      <point x="401.5" y="570.5625"/>
      <point x="416.625" y="588.5625"/>
      <point x="421.625" y="607.5625" type="curve" smooth="yes"/>
      <point x="429.3125" y="637.625"/>
      <point x="413.5" y="658.4375"/>
      <point x="380.875" y="658.4375" type="curve" smooth="yes"/>
      <point x="344.875" y="658.4375"/>
      <point x="317.0625" y="631.8125"/>
      <point x="310.8125" y="608.1875" type="curve" smooth="yes"/>
      <point x="306.375" y="590.625"/>
      <point x="314.375" y="580.0625"/>
      <point x="310.8125" y="565.5" type="curve" smooth="yes"/>
      <point x="306.6875" y="551.6875"/>
      <point x="297.3125" y="539.75"/>
    </contour>
  </outline>
</glyph>
<glyph name="lira" format="2">
  <advance width="555.625"/>
  <unicode hex="20A4"/>
  <outline>
    <contour>
      <point x="162.375" y="361.0" type="curve" smooth="yes"/>
      <point x="158.375" y="348.0"/>
      <point x="163.375" y="340.0"/>
      <point x="176.375" y="340.0" type="curve" smooth="yes"/>
      <point x="460.875" y="340.0" type="line" smooth="yes"/>
      <point x="473.875" y="340.0"/>
      <point x="484.875" y="348.0"/>
      <point x="488.875" y="361.0" type="curve" smooth="yes"/>
      <point x="491.875" y="373.0"/>
      <point x="484.875" y="382.0"/>
      <point x="471.875" y="382.0" type="curve" smooth="yes"/>
      <point x="188.375" y="382.0" type="line" smooth="yes"/>
      <point x="176.375" y="382.0"/>
      <point x="165.375" y="373.0"/>
    </contour>
    <contour>
      <point x="140.0" y="257.0" type="curve" smooth="yes"/>
      <point x="136.0" y="244.0"/>
      <point x="141.0" y="236.0"/>
      <point x="154.0" y="236.0" type="curve" smooth="yes"/>
      <point x="432.875" y="236.0" type="line" smooth="yes"/>
      <point x="445.875" y="236.0"/>
      <point x="456.875" y="244.0"/>
      <point x="460.875" y="257.0" type="curve" smooth="yes"/>
      <point x="463.875" y="269.0"/>
      <point x="456.875" y="278.0"/>
      <point x="443.875" y="278.0" type="curve" smooth="yes"/>
      <point x="166.0" y="278.0" type="line" smooth="yes"/>
      <point x="154.0" y="278.0"/>
      <point x="143.0" y="269.0"/>
    </contour>
    <contour>
      <point x="145.6875" y="102.1875" type="curve" smooth="yes"/>
      <point x="213.875" y="102.1875"/>
      <point x="268.875" y="-15.0"/>
      <point x="390.625" y="-15.0" type="curve" smooth="yes"/>
      <point x="474.1875" y="-15.0"/>
      <point x="540.1875" y="40.125"/>
      <point x="566.5625" y="138.75" type="curve" smooth="yes"/>
      <point x="572.8125" y="161.5"/>
      <point x="563.5625" y="174.4375"/>
      <point x="548.1875" y="174.4375" type="curve" smooth="yes"/>
      <point x="530.9375" y="174.4375"/>
      <point x="516.875" y="160.0625"/>
      <point x="505.9375" y="143.5625" type="curve" smooth="yes"/>
      <point x="484.0" y="110.1875"/>
      <point x="455.8125" y="91.5"/>
      <point x="404.1875" y="91.5" type="curve" smooth="yes"/>
      <point x="340.0" y="91.5"/>
      <point x="269.0625" y="168.9375"/>
      <point x="179.1875" y="168.9375" type="curve" smooth="yes"/>
      <point x="110.5625" y="168.9375"/>
      <point x="54.1875" y="129.8125"/>
      <point x="39.625" y="74.4375" type="curve" smooth="yes"/>
      <point x="24.9375" y="21.375"/>
      <point x="59.4375" y="-15.0"/>
      <point x="128.3125" y="-15.0" type="curve" smooth="yes"/>
      <point x="188.8125" y="-15.0"/>
      <point x="269.0625" y="27.125"/>
      <point x="293.4375" y="118.5" type="curve" smooth="yes"/>
      <point x="322.4375" y="226.0625"/>
      <point x="327.1875" y="349.6875"/>
      <point x="362.5" y="481.0625" type="curve" smooth="yes"/>
      <point x="386.625" y="570.0"/>
      <point x="423.9375" y="608.125"/>
      <point x="474.25" y="608.125" type="curve" smooth="yes"/>
      <point x="505.4375" y="608.125"/>
      <point x="523.1875" y="590.0"/>
      <point x="513.0625" y="551.625" type="curve" smooth="yes"/>
      <point x="506.625" y="527.625" type="line" smooth="yes"/>
      <point x="495.375" y="484.75"/>
      <point x="518.875" y="455.125"/>
      <point x="554.625" y="455.125" type="curve" smooth="yes"/>
      <point x="597.5" y="455.125"/>
      <point x="631.125" y="481.0625"/>
      <point x="643.8125" y="526.9375" type="curve" smooth="yes"/>
      <point x="664.0625" y="602.25"/>
      <point x="622.875" y="658.3125"/>
      <point x="501.4375" y="658.3125" type="curve" smooth="yes"/>
      <point x="375.375" y="658.3125"/>
      <point x="267.0625" y="580.9375"/>
      <point x="232.9375" y="453.4375" type="curve" smooth="yes"/>
      <point x="201.3125" y="334.5625"/>
      <point x="264.1875" y="215.75"/>
      <point x="238.1875" y="119.625" type="curve" smooth="yes"/>
      <point x="219.25" y="50.0"/>
      <point x="178.3125" y="25.9375"/>
      <point x="139.5" y="25.9375" type="curve" smooth="yes"/>
      <point x="103.75" y="25.9375"/>
      <point x="84.375" y="43.125"/>
      <point x="90.8125" y="66.5625" type="curve" smooth="yes"/>
      <point x="96.25" y="87.4375"/>
      <point x="116.125" y="102.1875"/>
    </contour>
  </outline>
</glyph>
<glyph name="naira" format="2">
  <advance width="715.0"/>
  <unicode hex="20A6"/>
  <outline>
    <contour>
      <point x="315.375" y="27.625" type="curve" smooth="yes"/>
      <point x="319.9375" y="46.5625"/>
      <point x="313.625" y="53.25"/>
      <point x="299.0625" y="61.8125" type="curve" smooth="yes"/>
      <point x="275.5" y="76.8125" type="line" smooth="yes"/>
      <point x="250.5" y="91.375"/>
      <point x="233.9375" y="101.375"/>
      <point x="238.9375" y="122.375" type="curve" smooth="yes"/>
      <point x="336.25" y="483.625" type="line"/>
      <point x="325.25" y="477.0625" type="line"/>
      <point x="469.9375" y="81.125" type="line" smooth="yes"/>
      <point x="478.8125" y="57.5"/>
      <point x="478.625" y="50.0"/>
      <point x="476.1875" y="39.8125" type="curve" smooth="yes"/>
      <point x="469.5" y="13.9375"/>
      <point x="480.4375" y="0.0"/>
      <point x="504.1875" y="0.0" type="curve" smooth="yes"/>
      <point x="597.5625" y="0.0" type="line" smooth="yes"/>
      <point x="617.75" y="0.0"/>
      <point x="636.9375" y="12.5"/>
      <point x="642.1875" y="31.25" type="curve" smooth="yes"/>
      <point x="650.0625" y="59.875"/>
      <point x="608.375" y="82.625"/>
      <point x="617.8125" y="117.125" type="curve" smooth="yes"/>
      <point x="724.125" y="514.375" type="line" smooth="yes"/>
      <point x="729.125" y="533.9375"/>
      <point x="752.125" y="551.375"/>
      <point x="776.6875" y="561.9375" type="curve" smooth="yes"/>
      <point x="814.25" y="578.5" type="line" smooth="yes"/>
      <point x="835.8125" y="588.0625"/>
      <point x="842.8125" y="598.875"/>
      <point x="846.9375" y="613.125" type="curve" smooth="yes"/>
      <point x="851.0625" y="630.0625"/>
      <point x="839.625" y="642.3125"/>
      <point x="822.0625" y="642.3125" type="curve" smooth="yes"/>
      <point x="610.5625" y="642.3125" type="line" smooth="yes"/>
      <point x="591.5625" y="642.3125"/>
      <point x="579.0" y="636.1875"/>
      <point x="573.875" y="617.125" type="curve" smooth="yes"/>
      <point x="569.3125" y="600.875"/>
      <point x="574.625" y="588.0625"/>
      <point x="595.1875" y="577.5" type="curve" smooth="yes"/>
      <point x="625.75" y="561.9375" type="line" smooth="yes"/>
      <point x="652.3125" y="548.375"/>
      <point x="658.3125" y="536.9375"/>
      <point x="652.3125" y="514.375" type="curve" smooth="yes"/>
      <point x="553.0" y="142.6875" type="line"/>
      <point x="574.4375" y="149.6875" type="line"/>
      <point x="405.875" y="601.75" type="line" smooth="yes"/>
      <point x="392.3125" y="638.3125"/>
      <point x="377.3125" y="642.3125"/>
      <point x="356.75" y="642.3125" type="curve" smooth="yes"/>
      <point x="239.4375" y="642.3125" type="line" smooth="yes"/>
      <point x="219.875" y="642.3125"/>
      <point x="205.3125" y="633.625"/>
      <point x="200.1875" y="614.125" type="curve" smooth="yes"/>
      <point x="195.0625" y="596.3125"/>
      <point x="201.9375" y="588.0625"/>
      <point x="219.0625" y="578.5" type="curve" smooth="yes"/>
      <point x="246.0625" y="563.9375" type="line" smooth="yes"/>
      <point x="268.0625" y="552.375"/>
      <point x="277.625" y="532.9375"/>
      <point x="270.625" y="506.375" type="curve" smooth="yes"/>
      <point x="167.125" y="122.375" type="line" smooth="yes"/>
      <point x="162.125" y="102.375"/>
      <point x="141.6875" y="86.8125"/>
      <point x="115.5625" y="76.8125" type="curve" smooth="yes"/>
      <point x="83.5625" y="64.8125" type="line" smooth="yes"/>
      <point x="57.875" y="54.375"/>
      <point x="44.4375" y="44.0"/>
      <point x="39.3125" y="24.625" type="curve" smooth="yes"/>
      <point x="34.1875" y="6.6875"/>
      <point x="45.625" y="0.0"/>
      <point x="64.1875" y="0.0" type="curve" smooth="yes"/>
      <point x="270.6875" y="0.0" type="line" smooth="yes"/>
      <point x="291.6875" y="0.0"/>
      <point x="310.25" y="10.25"/>
    </contour>
    <contour>
      <point x="699.5625" y="275.5" type="curve" smooth="yes"/>
      <point x="736.9375" y="275.5"/>
      <point x="758.6875" y="296.9375"/>
      <point x="764.9375" y="319.375" type="curve" smooth="yes"/>
      <point x="772.75" y="349.0625"/>
      <point x="760.9375" y="369.375"/>
      <point x="725.0" y="369.8125" type="curve" smooth="yes"/>
      <point x="686.25" y="370.25"/>
      <point x="637.75" y="337.9375"/>
      <point x="438.625" y="337.9375" type="curve" smooth="yes"/>
      <point x="258.375" y="337.9375"/>
      <point x="232.3125" y="366.8125"/>
      <point x="188.5" y="366.8125" type="curve" smooth="yes"/>
      <point x="149.875" y="366.8125"/>
      <point x="125.0" y="341.375"/>
      <point x="118.1875" y="315.375" type="curve" smooth="yes"/>
      <point x="111.9375" y="292.9375"/>
      <point x="122.875" y="271.5"/>
      <point x="160.5" y="271.5" type="curve" smooth="yes"/>
      <point x="199.75" y="271.5"/>
      <point x="245.8125" y="300.375"/>
      <point x="429.0625" y="300.375" type="curve" smooth="yes"/>
      <point x="626.625" y="300.375"/>
      <point x="660.8125" y="275.5"/>
    </contour>
  </outline>
</glyph>
